<?xml version="1.0" encoding="UTF-8" standalone="no"?>
<!-- Created with Inkscape (http://www.inkscape.org/) -->

<svg
   width="102.70472mm"
   height="57.075062mm"
   viewBox="0 0 363.91436 202.23447"
   id="svg4297"
   version="1.1"
   inkscape:version="1.2.1 (9c6d41e, 2022-07-14)"
   sodipodi:docname="conics.svg"
   xmlns:inkscape="http://www.inkscape.org/namespaces/inkscape"
   xmlns:sodipodi="http://sodipodi.sourceforge.net/DTD/sodipodi-0.dtd"
   xmlns="http://www.w3.org/2000/svg"
   xmlns:svg="http://www.w3.org/2000/svg"
   xmlns:rdf="http://www.w3.org/1999/02/22-rdf-syntax-ns#"
   xmlns:cc="http://creativecommons.org/ns#"
   xmlns:dc="http://purl.org/dc/elements/1.1/">
  <defs
     id="defs4299">
    <clipPath
       clipPathUnits="userSpaceOnUse"
       id="clipPath4149">
      <path
         d="m 95.95,378.262 290.101,0 0,162.937 -290.101,0 0,-162.937 z"
         id="path4151"
         inkscape:connector-curvature="0" />
    </clipPath>
    <clipPath
       clipPathUnits="userSpaceOnUse"
       id="clipPath4041">
      <path
         d="m 95.95,378.262 290.1,0 0,162.936 -290.1,0 0,-162.936 z"
         id="path4043"
         inkscape:connector-curvature="0" />
    </clipPath>
    <clipPath
       clipPathUnits="userSpaceOnUse"
       id="clipPath3969">
      <path
         d="m 95.95,378.262 290.101,0 0,162.937 -290.101,0 0,-162.937 z"
         id="path3971"
         inkscape:connector-curvature="0" />
    </clipPath>
    <clipPath
       clipPathUnits="userSpaceOnUse"
       id="clipPath13746">
      <g
         id="g13750"
         style="stroke-width:1">
        <path
           d="m 279.99772,658.4461 h 362.625 v -203.67 h -362.625 z"
           id="path13748"
           inkscape:connector-curvature="0"
           style="stroke-width:1" />
      </g>
    </clipPath>
    <clipPath
       clipPathUnits="userSpaceOnUse"
       id="clipPath14455">
      <g
         id="g14459"
         style="stroke-width:1">
        <path
           d="M 95.95,378.262 H 386.051 V 541.199 H 95.95 Z"
           id="path14457"
           inkscape:connector-curvature="0"
           style="stroke-width:1" />
      </g>
    </clipPath>
    <clipPath
       clipPathUnits="userSpaceOnUse"
       id="clipPath14467">
      <g
         id="g14471"
         style="stroke-width:1">
        <path
           d="M 279.99772,658.4461 H 642.62397 V 454.77485 H 279.99772 Z"
           id="path14469"
           inkscape:connector-curvature="0"
           style="stroke-width:1" />
      </g>
    </clipPath>
  </defs>
  <sodipodi:namedview
     id="base"
     pagecolor="#ffffff"
     bordercolor="#666666"
     borderopacity="1.0"
     inkscape:pageopacity="0.0"
     inkscape:pageshadow="2"
     inkscape:zoom="1.5021192"
     inkscape:cx="201.71501"
     inkscape:cy="157.11136"
     inkscape:document-units="px"
     inkscape:current-layer="layer1"
     showgrid="false"
     fit-margin-top="0"
     fit-margin-left="0"
     fit-margin-right="0"
     fit-margin-bottom="0"
     inkscape:window-width="1512"
     inkscape:window-height="786"
     inkscape:window-x="0"
     inkscape:window-y="38"
     inkscape:window-maximized="0"
     inkscape:showpageshadow="2"
     inkscape:pagecheckerboard="0"
     inkscape:deskcolor="#d1d1d1" />
  <metadata
     id="metadata4302">
    <rdf:RDF>
      <cc:Work
         rdf:about="">
        <dc:format>image/svg+xml</dc:format>
        <dc:type
           rdf:resource="http://purl.org/dc/dcmitype/StillImage" />
      </cc:Work>
    </rdf:RDF>
  </metadata>
  <g
     inkscape:label="Layer 1"
     inkscape:groupmode="layer"
     id="layer1"
     transform="translate(-279.99772,-454.77621)">
    <path
       d="m 382.9058,487.5978 -8.122,14.442 -8.284,-15.051 -0.179,0.1 c -0.997,-1.715 -2.532,-2.552 -4.725,-2.084 -8.97,1.904 -11.611,16.068 -11.611,16.068 l 0.019,0.03 12.39,16.536 0.051,0.548 c 1.235,-0.149 2.431,-0.329 3.567,-0.548 l -13.106,23.314 -1.003,-1.789 -13.251,-23.648 -2.282,-4.077 4.774,-8.552 17.183,-30.769 7.656,-13.706 12.338,21.276 z"
       style="fill:#7bafde;fill-opacity:1;fill-rule:nonzero;stroke:none"
       id="path4091"
       inkscape:connector-curvature="0"
       clip-path="url(#clipPath14455)"
       transform="matrix(1.25,0,0,-1.25,160.06022,1131.2736)" />
    <path
       d="m 617.53997,558.2646 -37.025,-66.2875 20.6775,-36.89625"
       style="fill:none;stroke:#000000;stroke-width:1.24625;stroke-linecap:butt;stroke-linejoin:round;stroke-miterlimit:4;stroke-dasharray:none;stroke-opacity:1"
       id="path4103"
       inkscape:connector-curvature="0"
       clip-path="url(#clipPath13746)"
       sodipodi:nodetypes="ccc" />
    <path
       d="m 633.40347,598.78335 c 0,6.125 -12.85375,11.09125 -28.71,11.09125 -15.85625,0 -28.70875,-4.96625 -28.70875,-11.09125 0,-6.12625 12.8525,-11.0925 28.70875,-11.0925 15.85625,0 28.71,4.96625 28.71,11.0925 z m -57.14,-103.905 0.0238,0.0362 0.81125,1.47125 15.7975,28.73125 11.935,21.71625 27.55375,49.02 m 1.29125,-100.6725 -16.97,30.06 -11.875,21.5925 -27.83,49.02 m -0.465,-100.13875 c -0.185,-0.49875 -0.2725,-1.01 -0.2725,-1.5325 0,-6.1175 12.84375,-11.08875 28.70625,-11.08875 0.8725,0 1.7425,0.0125 2.60375,0.05 3.81125,0.12375 7.41375,0.5475 10.6525,1.2075 9.1825,1.845 15.45,5.5575 15.45,9.83125 0,0.76 -0.19875,1.52 -0.58625,2.2425 -1.7825,3.37625 -7.525,6.1925 -15.275,7.6875 -3.78875,0.735 -8.06,1.15875 -12.58375,1.17125 h -0.26125 c -1.6075,0 -3.1775,-0.05 -4.7225,-0.15 -11.00125,-0.71 -19.885,-3.8375 -22.87625,-7.91125 -0.3725,-0.47375 -0.63375,-0.9725 -0.80875,-1.47 m 36.4925,-11.5275 -15.50875,20.71 c 0,0 3.2975,17.7075 14.5075,20.08875 12.0925,2.56875 8.23125,-26.73125 1.00125,-40.79875 z"
       style="fill:none;stroke:#000000;stroke-width:1.24625;stroke-linecap:butt;stroke-linejoin:round;stroke-miterlimit:4;stroke-dasharray:none;stroke-opacity:1"
       id="path4139"
       inkscape:connector-curvature="0"
       clip-path="url(#clipPath14467)" />
  </g>
</svg>
