<?xml version="1.0" encoding="UTF-8" standalone="no"?>
<!-- Created with Inkscape (http://www.inkscape.org/) -->

<svg
   sodipodi:docname="jeff-hannah-envelope-2.svg"
   inkscape:version="1.2.1 (9c6d41e, 2022-07-14)"
   id="svg104534"
   version="1.1"
   viewBox="0 0 297 420"
   height="420mm"
   width="297mm"
   xmlns:inkscape="http://www.inkscape.org/namespaces/inkscape"
   xmlns:sodipodi="http://sodipodi.sourceforge.net/DTD/sodipodi-0.dtd"
   xmlns="http://www.w3.org/2000/svg"
   xmlns:svg="http://www.w3.org/2000/svg">
  <sodipodi:namedview
     id="namedview104536"
     pagecolor="#ffffff"
     bordercolor="#666666"
     borderopacity="1.0"
     inkscape:showpageshadow="2"
     inkscape:pageopacity="0.0"
     inkscape:pagecheckerboard="0"
     inkscape:deskcolor="#d1d1d1"
     inkscape:document-units="mm"
     showgrid="false"
     inkscape:zoom="0.84096521"
     inkscape:cx="727.73522"
     inkscape:cy="296.08835"
     inkscape:window-width="1512"
     inkscape:window-height="858"
     inkscape:window-x="586"
     inkscape:window-y="1478"
     inkscape:window-maximized="0"
     inkscape:current-layer="layer1" />
  <defs
     id="defs104531">
    <inkscape:path-effect
       effect="bspline"
       id="path-effect105659"
       is_visible="true"
       lpeversion="1"
       weight="33.333333"
       steps="2"
       helper_size="0"
       apply_no_weight="true"
       apply_with_weight="true"
       only_selected="false" />
    <inkscape:path-effect
       effect="bspline"
       id="path-effect105655"
       is_visible="true"
       lpeversion="1"
       weight="33.333333"
       steps="2"
       helper_size="0"
       apply_no_weight="true"
       apply_with_weight="true"
       only_selected="false" />
    <inkscape:path-effect
       effect="bspline"
       id="path-effect105651"
       is_visible="true"
       lpeversion="1"
       weight="33.333333"
       steps="2"
       helper_size="0"
       apply_no_weight="true"
       apply_with_weight="true"
       only_selected="false" />
    <inkscape:path-effect
       effect="bspline"
       id="path-effect105647"
       is_visible="true"
       lpeversion="1"
       weight="33.333333"
       steps="2"
       helper_size="0"
       apply_no_weight="true"
       apply_with_weight="true"
       only_selected="false" />
    <inkscape:path-effect
       effect="bspline"
       id="path-effect105643"
       is_visible="true"
       lpeversion="1"
       weight="33.333333"
       steps="2"
       helper_size="0"
       apply_no_weight="true"
       apply_with_weight="true"
       only_selected="false" />
    <inkscape:path-effect
       effect="bspline"
       id="path-effect105639"
       is_visible="true"
       lpeversion="1"
       weight="33.333333"
       steps="2"
       helper_size="0"
       apply_no_weight="true"
       apply_with_weight="true"
       only_selected="false" />
    <inkscape:path-effect
       effect="bspline"
       id="path-effect105635"
       is_visible="true"
       lpeversion="1"
       weight="33.333333"
       steps="2"
       helper_size="0"
       apply_no_weight="true"
       apply_with_weight="true"
       only_selected="false" />
    <inkscape:path-effect
       effect="bspline"
       id="path-effect105190"
       is_visible="true"
       lpeversion="1"
       weight="33.333333"
       steps="2"
       helper_size="0"
       apply_no_weight="true"
       apply_with_weight="true"
       only_selected="false" />
  </defs>
  <g
     inkscape:label="1 boundaries"
     inkscape:groupmode="layer"
     id="layer1">
    <rect
       style="fill:#ebebec;stroke-width:1;stroke-linecap:square;stop-color:#000000"
       id="rect104707"
       width="215.89999"
       height="279.39999"
       x="81.100006"
       y="0" />
    <rect
       style="fill:#f6f9f5;fill-opacity:1;stroke-width:1;stroke-linecap:square;stop-color:#000000"
       id="rect104709"
       width="144"
       height="111"
       x="140"
       y="30" />
  </g>
  <g
     inkscape:groupmode="layer"
     id="layer14"
     inkscape:label="2 guidelines"
     style="display:inline">
    <path
       style="fill:none;fill-opacity:1;stroke:#000000;stroke-width:1;stroke-linecap:square;stroke-opacity:1;stop-color:#000000"
       d="m 140,30 c -16.26231,0 -32.52488,0 -48.78772,0"
       id="path105188"
       inkscape:path-effect="#path-effect105190"
       inkscape:original-d="m 140,30 c -16.26231,2.65e-4 -32.52488,2.65e-4 -48.78772,0" />
    <path
       style="fill:none;fill-opacity:1;stroke:#000000;stroke-width:1;stroke-linecap:square;stroke-opacity:1;stop-color:#000000"
       d="m 140,30 c 0.16666,-7.626739 0.33333,-15.253737 0.5,-22.8809929"
       id="path105633"
       inkscape:path-effect="#path-effect105635"
       inkscape:original-d="m 140,30 c 0.16693,-7.626733 0.3336,-15.253731 0.5,-22.8809929" />
    <path
       style="fill:none;fill-opacity:1;stroke:#000000;stroke-width:1;stroke-linecap:square;stroke-opacity:1;stop-color:#000000"
       d="m 283.99999,30 c 0,-7.797001 0,-15.594267 0,-23.3917972"
       id="path105637"
       inkscape:path-effect="#path-effect105639"
       inkscape:original-d="m 283.99999,30 c 2.6e-4,-7.797001 2.6e-4,-15.594267 0,-23.3917972" />
    <path
       style="fill:none;fill-opacity:1;stroke:#000000;stroke-width:1;stroke-linecap:square;stroke-opacity:1;stop-color:#000000"
       d="m 283.99999,30 c 3.51659,0.16668 7.0329,0.333346 10.54894,0.499999"
       id="path105641"
       inkscape:path-effect="#path-effect105643"
       inkscape:original-d="m 283.99999,30 c 3.51658,0.166931 7.03289,0.333598 10.54894,0.499999" />
    <path
       style="fill:none;fill-opacity:1;stroke:#000000;stroke-width:1;stroke-linecap:square;stroke-opacity:1;stop-color:#000000"
       d="m 283.99999,141 c 2.97026,0 5.94024,0 8.90998,0"
       id="path105645"
       inkscape:path-effect="#path-effect105647"
       inkscape:original-d="m 283.99999,141 c 2.97026,2.6e-4 5.94024,2.6e-4 8.90998,0" />
    <path
       style="fill:none;fill-opacity:1;stroke:#000000;stroke-width:1;stroke-linecap:square;stroke-opacity:1;stop-color:#000000"
       d="m 283.99999,141 c -0.16667,28.63971 -0.33334,57.27917 -0.50001,85.91835"
       id="path105649"
       inkscape:path-effect="#path-effect105651"
       inkscape:original-d="m 283.99999,141 c -0.1664,28.63971 -0.33308,57.27917 -0.50001,85.91835" />
    <path
       style="fill:none;fill-opacity:1;stroke:#000000;stroke-width:1;stroke-linecap:square;stroke-opacity:1;stop-color:#000000"
       d="m 140,141 c 0,17.66458 0,35.32889 0,52.99294"
       id="path105653"
       inkscape:path-effect="#path-effect105655"
       inkscape:original-d="m 140,141 c 2.6e-4,17.66458 2.6e-4,35.32889 0,52.99294" />
    <path
       style="fill:none;fill-opacity:1;stroke:#000000;stroke-width:1;stroke-linecap:square;stroke-opacity:1;stop-color:#000000"
       d="m 140,141 c -11.51631,-0.16666 -23.03287,-0.33333 -34.54971,-0.5"
       id="path105657"
       inkscape:path-effect="#path-effect105659"
       inkscape:original-d="m 140,141 c -11.51631,-0.16641 -23.03287,-0.33307 -34.54971,-0.5" />
  </g>
  <g
     inkscape:groupmode="layer"
     id="layer15"
     inkscape:label="3 letters">
    <text
       xml:space="preserve"
       style="font-style:normal;font-variant:normal;font-weight:normal;font-stretch:normal;font-size:50.8px;line-height:1.25;font-family:'Times New Roman';-inkscape-font-specification:'Times New Roman, ';display:none;fill:#000000;fill-opacity:1;stroke:none;stroke-width:0.264583"
       x="168.6315"
       y="101.93311"
       id="text105799"><tspan
         sodipodi:role="line"
         id="tspan105797"
         style="font-style:normal;font-variant:normal;font-weight:normal;font-stretch:normal;font-size:50.8px;font-family:'Times New Roman';-inkscape-font-specification:'Times New Roman, ';stroke-width:0.264583"
         x="168.6315"
         y="101.93311">J</tspan></text>
    <text
       xml:space="preserve"
       style="font-style:normal;font-variant:normal;font-weight:normal;font-stretch:normal;font-size:50.8px;line-height:1.25;font-family:'Times New Roman';-inkscape-font-specification:'Times New Roman, ';display:none;fill:#000000;fill-opacity:1;stroke:none;stroke-width:0.264583"
       x="192.08183"
       y="102.31758"
       id="text105803"><tspan
         sodipodi:role="line"
         id="tspan105801"
         style="font-style:normal;font-variant:normal;font-weight:normal;font-stretch:normal;font-size:50.8px;font-family:'Times New Roman';-inkscape-font-specification:'Times New Roman, ';stroke-width:0.264583"
         x="192.08183"
         y="102.31758">&amp;</tspan></text>
    <text
       xml:space="preserve"
       style="font-style:normal;font-variant:normal;font-weight:normal;font-stretch:normal;font-size:50.8px;line-height:1.25;font-family:'Times New Roman';-inkscape-font-specification:'Times New Roman, ';display:none;fill:#000000;fill-opacity:1;stroke:none;stroke-width:0.264583"
       x="229.18965"
       y="102.31758"
       id="text105807"><tspan
         sodipodi:role="line"
         id="tspan105805"
         style="font-style:normal;font-variant:normal;font-weight:normal;font-stretch:normal;font-size:50.8px;font-family:'Times New Roman';-inkscape-font-specification:'Times New Roman, ';stroke-width:0.264583"
         x="229.18965"
         y="102.31758">H</tspan></text>
    <path
       d="m 178.57935,67.988411 v -0.986949 h 15.49778 v 0.986949 h -1.30704 q -2.21397,0 -3.2276,1.307042 -0.64018,0.853578 -0.64018,4.107845 V 91.08837 q 0,4.081171 -0.90693,6.615231 -0.88025,2.534059 -3.06754,4.427939 -2.1873,1.8672 -5.28152,1.8672 -2.50738,0 -3.9478,-1.22702 -1.44041,-1.25369 -1.44041,-2.854152 0,-1.30704 0.66686,-1.973898 0.88025,-0.826904 2.05392,-0.826904 0.85358,0 1.52044,0.56016 0.69353,0.560162 1.73383,2.987524 0.61351,1.44042 1.57378,1.44042 0.72021,0 1.33372,-0.88026 0.64018,-0.88025 0.64018,-3.120895 V 73.403298 q 0,-2.747455 -0.34677,-3.627707 -0.26674,-0.666858 -1.12032,-1.146996 -1.14699,-0.640184 -2.42736,-0.640184 z"
       id="path105910"
       style="font-size:54.629px;line-height:1.25;font-family:'Times New Roman';-inkscape-font-specification:'Times New Roman, ';display:inline;fill:none;stroke:#000000;stroke-width:0.264582;stroke-opacity:1" />
    <path
       d="m 209.42112,79.902726 h 6.6438 v 0.585287 q -1.37622,0.11073 -2.0406,0.616924 -0.64856,0.490375 -2.04059,3.005525 -1.39203,2.51515 -3.13207,4.698111 1.40785,1.64513 2.51515,2.309509 1.10729,0.648561 2.23041,0.648561 1.09148,0 1.85077,-0.585287 0.75929,-0.601105 1.07566,-1.755859 l 0.58529,0.427101 q -0.58529,2.230416 -1.88241,3.290259 -1.29712,1.059843 -3.02134,1.059843 -1.29712,0 -2.6417,-0.696016 -1.32876,-0.711835 -2.91061,-2.388602 -1.9615,1.740041 -3.54336,2.420239 -1.56604,0.664379 -3.35353,0.664379 -2.61007,0 -4.14447,-1.392033 -1.5344,-1.392033 -1.5344,-3.321896 0,-1.914045 1.37622,-3.812272 1.37621,-1.914045 5.17267,-3.954639 -0.74348,-1.645129 -1.01239,-2.689154 -0.26892,-1.059843 -0.26892,-2.024775 0,-2.704973 1.99314,-4.128643 1.55022,-1.107299 3.52754,-1.107299 1.88241,0 3.0688,1.123118 1.18639,1.107299 1.18639,2.73661 0,1.676766 -1.15475,2.942251 -1.13894,1.265484 -4.04955,2.768247 2.00895,3.574993 4.19191,6.548882 2.78407,-3.321897 2.78407,-5.599769 0,-0.727653 -0.47456,-1.297121 -0.34801,-0.427101 -0.99657,-0.506194 z m -6.04268,0.411283 q 1.9615,-0.933295 2.92643,-2.119686 0.98075,-1.186392 0.98075,-2.641699 0,-1.138936 -0.71184,-1.882408 -0.69601,-0.743472 -1.74004,-0.743472 -1.37621,0 -2.08805,0.964932 -0.69601,0.949113 -0.69601,1.866589 0,0.775109 0.26891,1.740041 0.26892,0.949113 1.05985,2.815703 z m 2.45187,9.886597 q -2.08805,-2.84734 -2.89479,-4.16028 -0.80675,-1.31294 -1.77168,-3.258623 -1.89823,1.091481 -2.86316,2.404421 -0.94911,1.31294 -0.94911,2.84734 0,1.692585 1.09148,2.973888 1.09148,1.281303 2.94225,1.281303 0.99657,0 1.91404,-0.395464 0.9333,-0.395464 2.53097,-1.692585 z"
       id="path105913"
       style="font-size:32.3964px;line-height:1.25;font-family:'Times New Roman';-inkscape-font-specification:'Times New Roman, ';display:inline;fill:none;stroke:#000000;stroke-width:0.264582;stroke-opacity:1" />
    <path
       d="m 224.72706,82.487805 h 15.51117 v -9.552908 q 0,-2.560573 -0.32007,-3.373063 -0.24621,-0.615523 -1.03408,-1.058699 -1.0587,-0.590901 -2.2405,-0.590901 h -1.18181 V 67.00126 h 14.28013 v 0.910974 h -1.18181 q -1.1818,0 -2.2405,0.56628 -0.78787,0.393935 -1.08332,1.206424 -0.27083,0.787869 -0.27083,3.249959 v 21.543286 q 0,2.535952 0.32007,3.348442 0.24621,0.615523 1.00946,1.058703 1.08332,0.5909 2.26512,0.5909 h 1.18181 v 0.910972 h -14.28013 v -0.910972 h 1.18181 q 2.04353,0 2.97913,-1.20643 0.61552,-0.787866 0.61552,-3.791615 V 84.309752 h -15.51117 v 10.168431 q 0,2.535952 0.32007,3.348442 0.24621,0.615523 1.03408,1.058703 1.0587,0.5909 2.2405,0.5909 h 1.20643 V 100.3872 H 215.2234 v -0.910972 h 1.1818 q 2.06816,0 3.00375,-1.20643 0.5909,-0.787866 0.5909,-3.791615 V 72.934897 q 0,-2.560573 -0.32007,-3.373063 -0.24621,-0.615523 -1.00946,-1.058699 -1.08332,-0.590901 -2.26512,-0.590901 h -1.1818 V 67.00126 h 14.30474 v 0.910974 h -1.20643 q -1.1818,0 -2.2405,0.56628 -0.76325,0.393935 -1.0587,1.206424 -0.29545,0.787869 -0.29545,3.249959 z"
       id="path105916"
       style="font-size:50.4236px;line-height:1.25;font-family:'Times New Roman';-inkscape-font-specification:'Times New Roman, ';display:inline;fill:none;stroke:#000000;stroke-width:0.264584;stroke-opacity:1" />
    <text
       xml:space="preserve"
       style="font-style:normal;font-variant:normal;font-weight:normal;font-stretch:normal;font-size:69.4947px;line-height:1.25;font-family:'Times New Roman';-inkscape-font-specification:'Times New Roman, ';display:none;opacity:0.97;fill:#faf5f7;fill-opacity:1;stroke:none;stroke-width:0.264582"
       x="160.57481"
       y="109.03532"
       id="text105811"><tspan
         sodipodi:role="line"
         id="tspan105809"
         style="font-style:normal;font-variant:normal;font-weight:normal;font-stretch:normal;font-size:69.4947px;font-family:'Times New Roman';-inkscape-font-specification:'Times New Roman, ';fill:#faf5f7;fill-opacity:1;stroke-width:0.264582"
         x="160.57481"
         y="109.03532">J</tspan></text>
    <text
       xml:space="preserve"
       style="font-style:normal;font-variant:normal;font-weight:normal;font-stretch:normal;font-size:41.2122px;line-height:1.25;font-family:'Times New Roman';-inkscape-font-specification:'Times New Roman, ';display:none;opacity:0.97;fill:#faf5f7;fill-opacity:1;stroke:none;stroke-width:0.264582"
       x="185.70308"
       y="97.00174"
       id="text105815"><tspan
         sodipodi:role="line"
         id="tspan105813"
         style="font-style:normal;font-variant:normal;font-weight:normal;font-stretch:normal;font-size:41.2122px;font-family:'Times New Roman';-inkscape-font-specification:'Times New Roman, ';fill:#faf5f7;fill-opacity:1;stroke-width:0.264582"
         x="185.70308"
         y="97.00174">&amp;</tspan></text>
    <text
       xml:space="preserve"
       style="font-style:normal;font-variant:normal;font-weight:normal;font-stretch:normal;font-size:64.1449px;line-height:1.25;font-family:'Times New Roman';-inkscape-font-specification:'Times New Roman, ';display:none;opacity:0.97;fill:#faf5f7;fill-opacity:1;stroke:none;stroke-width:0.264584"
       x="213.01674"
       y="105.493"
       id="text105819"><tspan
         sodipodi:role="line"
         id="tspan105817"
         style="font-style:normal;font-variant:normal;font-weight:normal;font-stretch:normal;font-size:64.1449px;font-family:'Times New Roman';-inkscape-font-specification:'Times New Roman, ';fill:#faf5f7;fill-opacity:1;stroke-width:0.264584"
         x="213.01674"
         y="105.493">H</tspan></text>
    <path
       id="path108896"
       style="font-size:54.629px;line-height:1.25;font-family:'Times New Roman';-inkscape-font-specification:'Times New Roman, ';display:inline;fill:none;stroke:#000000;stroke-width:0.264582;stroke-opacity:1"
       d="m 176.39844,65.304688 c 0.46723,1.321148 -0.26983,2.954384 0.77734,4.076171 1.09745,1.146141 2.84657,0.193813 4.08789,0.953125 0.71016,0.668247 0.32291,1.780103 0.49136,2.646869 0.0296,6.912878 0.0363,13.826351 0.0175,20.739431 -0.0256,1.698168 -0.0316,3.590154 -0.13196,5.164482 -0.72786,-1.929339 -2.4087,-3.750103 -4.60014,-3.777566 -2.87799,-0.202952 -5.36279,2.799572 -4.72416,5.59506 0.51507,2.96568 3.37213,5.09529 6.29696,5.26467 4.31859,0.47964 8.66488,-2.1033 10.5472,-5.975272 1.57843,-3.073967 1.76399,-6.601573 1.74,-9.99113 0.0757,-5.902663 -0.13794,-11.81012 0.10882,-17.709554 0.14114,-0.714411 -0.20557,-1.772527 0.63394,-2.118657 1.16036,-0.35979 2.41182,-0.08711 3.60896,-0.195315 0.83826,-0.02799 1.67558,-0.0824 2.51342,-0.121533 -0.8103,-0.538495 -1.96411,-1.27157 -1.6669,-2.417772 0.18194,-1.267013 -0.92974,-2.542761 -2.23811,-2.385818 -5.84141,-0.08028 -11.68592,-0.02764 -17.52858,-0.04993 0.0221,0.100912 0.0443,0.201823 0.0664,0.302735 z" />
    <path
       id="path108898"
       style="font-size:32.3964px;line-height:1.25;font-family:'Times New Roman';-inkscape-font-specification:'Times New Roman, ';display:inline;fill:none;stroke:#000000;stroke-width:0.264582;stroke-opacity:1"
       d="m 204.31055,69.789062 c -3.83251,0.0644 -7.38458,3.661334 -6.94234,7.564723 0.041,1.200111 0.32596,2.381285 0.74312,3.503637 -2.96052,1.705763 -5.67329,4.503247 -6.02453,8.050689 -0.30866,3.518476 2.6513,6.884542 6.1505,7.158954 2.92487,0.500137 5.97512,-0.471531 8.2959,-2.264331 2.28634,2.132424 5.93084,3.203207 8.80506,1.626899 2.18353,-1.170875 3.81723,-3.609893 3.6485,-6.126939 -0.40862,-1.580279 -2.68904,-2.570235 -3.91059,-1.271444 -0.54832,0.524873 -0.49007,1.801485 -1.47692,1.713262 -0.83861,0.0077 -1.57102,-0.506623 -2.13245,-1.086309 1.4097,-1.907957 2.39233,-4.135988 3.875,-5.966797 1.05193,-0.213245 2.42691,-0.538473 2.67831,-1.770581 0.61912,-1.64794 -1.13733,-3.550405 -2.833,-3.038935 -1.48939,0.01387 -2.97897,0.0412 -4.46836,0.01264 1.23208,-3.007387 -0.48719,-6.950606 -3.70117,-7.794922 -0.87351,-0.270701 -1.79565,-0.360091 -2.70703,-0.310547 z m 0.53515,5.142579 c 0.84418,0.511545 0.33683,1.738944 -0.30036,2.210094 -0.34374,0.479037 -0.36697,-0.620025 -0.44662,-0.88784 -0.0727,-0.519211 0.0982,-1.317806 0.74698,-1.322254 z m 2.94532,6.632812 c 0.25523,0.407927 0.67468,0.704423 1.0664,0.935547 -0.0142,0.702973 -0.40613,1.314711 -0.73242,1.912109 -0.45301,-0.798036 -0.99634,-1.540784 -1.45117,-2.33789 0.35324,-0.104253 0.79787,-0.673609 1.07814,-0.575973 z m -7.2461,4.320313 c 0.72704,1.369859 1.66536,2.609931 2.50391,3.910156 -1.03269,0.630263 -2.71927,0.757962 -3.34778,-0.492123 -0.6615,-1.170086 -0.25124,-2.743472 0.75989,-3.580143 l 0.046,0.08879 z" />
    <path
       id="path108900"
       style="font-size:50.4236px;line-height:1.25;font-family:'Times New Roman';-inkscape-font-specification:'Times New Roman, ';display:inline;fill:none;stroke:#000000;stroke-width:0.264584;stroke-opacity:1"
       d="m 215.96875,65.013672 c -0.90101,0.0076 -2.16158,-0.174503 -2.60352,0.839844 -0.23271,0.876425 -0.24432,1.850149 -0.0293,2.723707 0.43819,1.153219 1.82062,1.623308 2.95192,1.337374 0.66633,-0.03156 1.68277,0.192763 1.58001,1.058086 0.30274,3.263004 0.0172,6.54242 0.13165,9.812473 -0.0238,5.387459 0.10928,10.779505 -0.1851,16.16211 -0.58725,0.82325 -1.74765,0.417823 -2.60234,0.526127 -1.24909,0.0043 -2.49817,0.01002 -3.74727,0.01293 0.84243,0.569107 2.0419,1.35751 1.73633,2.548832 -0.18526,1.31853 1.0992,2.53023 2.40507,2.30306 5.59892,0.0924 11.20925,0.0222 16.80196,0.0563 0.58766,-0.28649 -0.096,-0.81167 -0.39453,-1.03515 -0.96676,-0.78167 -0.0228,-2.268875 -0.94683,-3.102218 -0.94211,-1.188097 -2.62409,-0.492505 -3.84223,-1.02474 -0.59855,-0.542159 -0.35623,-1.467677 -0.47992,-2.190653 -0.0517,-2.54312 0.0381,-5.087162 -0.0174,-7.630831 -0.0122,-0.61195 -0.19297,-1.392301 0.69926,-1.100391 3.6,0 7.2,0 10.8,0 -0.0295,3.548111 0.15434,7.106547 -0.19726,10.644531 -0.7167,0.867181 -1.96432,0.401295 -2.93438,0.525253 -1.12929,-5.96e-4 -2.25859,-0.002 -3.38789,-0.0018 0.82822,0.584492 2.03258,1.352372 1.73392,2.544564 -0.18707,1.29209 1.04699,2.51771 2.34105,2.31816 5.91195,0.0861 11.82508,0.0298 17.73753,0.0455 -0.83686,-0.58133 -2.06222,-1.34854 -1.75416,-2.548561 0.18678,-1.315769 -1.0678,-2.481315 -2.35921,-2.353869 -0.74217,-0.07239 -1.8378,0.170921 -2.23364,-0.632875 -0.38337,-1.973349 -0.11804,-4.000157 -0.20182,-5.996728 0.0143,-6.773203 -0.0905,-13.548204 0.11914,-20.319531 0.65442,-0.921544 1.92281,-0.536274 2.88554,-0.622889 1.17487,0.01231 2.34974,0.02502 3.52462,0.03695 -0.82868,-0.593468 -2.03573,-1.374863 -1.73587,-2.56996 0.19003,-1.295881 -1.04275,-2.531093 -2.34301,-2.33183 -5.91195,-0.08567 -11.82507,-0.03273 -17.73753,-0.04548 0.83987,0.580162 2.06093,1.348577 1.75706,2.55257 -0.18143,1.3102 1.06066,2.477483 2.35047,2.351669 0.74611,0.06005 1.66331,-0.116068 2.22841,0.498105 0.44416,2.907866 0.0885,5.856676 0.21875,8.782812 -0.11993,0.480456 0.35629,1.55707 -0.5,1.301172 -3.66732,0 -7.33463,0 -11.00195,0 0.0236,-3.347694 -0.13711,-6.704208 0.18164,-10.042969 1.11583,-1.112403 2.85804,-0.05604 4.13463,-0.805754 0.61442,-0.246272 0.87244,-0.98621 0.52081,-1.549967 -0.11313,-0.9173 0.0888,-2.193195 -0.91734,-2.683515 -1.67655,-0.706711 -3.53385,-0.255994 -5.29279,-0.401006 -3.13154,-0.0099 -6.263,-0.0046 -9.39453,0.0086 z" />
    <path
       id="path108926"
       style="font-size:54.629px;line-height:1.25;font-family:'Times New Roman';-inkscape-font-specification:'Times New Roman, ';display:inline;fill:none;stroke:#000000;stroke-width:0.264582;stroke-opacity:1"
       d="m 175.20703,62.96875 c -0.69428,-0.04549 -1.43061,0.626457 -1.08634,1.335956 0.79128,2.001232 -0.0505,4.483533 1.42702,6.237813 0.999,1.193234 2.66536,1.62199 4.15346,1.484825 -0.0187,3.123705 0.0847,6.270339 0.0658,9.404276 0.0178,4.117837 -0.006,8.23572 -0.0209,12.353536 -2.79702,-1.41562 -6.58201,-0.496788 -8.27513,2.186713 -1.92222,2.696426 -1.49207,6.686161 0.8431,9.002431 2.78379,3.0544 7.48435,3.79701 11.27096,2.377 4.86434,-1.65942 8.40728,-6.39229 8.90277,-11.457091 0.79362,-4.931111 0.24723,-9.940183 0.4101,-14.906709 0.002,-2.989137 -0.0206,-5.981503 0.17242,-8.966016 3.12287,-0.03649 6.23949,-0.247143 9.35742,-0.408203 -0.82298,-1.891562 -2.80498,-2.741804 -4.28125,-4.017578 0.10545,-1.928489 -1.11764,-3.955964 -3.07108,-4.395236 -1.72297,-0.405095 -3.51663,-0.110485 -5.26872,-0.187338 -4.86584,-0.0012 -9.73681,0.02246 -14.59965,-0.04438 z" />
    <path
       id="path108928"
       style="font-size:32.3964px;line-height:1.25;font-family:'Times New Roman';-inkscape-font-specification:'Times New Roman, ';display:inline;fill:none;stroke:#000000;stroke-width:0.264582;stroke-opacity:1"
       d="m 203.82422,67.802734 c -5.06277,0.280517 -9.3481,5.470739 -8.37891,10.494141 0.0759,0.571571 0.16633,1.142412 0.31836,1.699219 -3.27589,2.217573 -5.85413,5.954789 -5.66518,10.03541 0.32049,4.733321 4.9908,8.546838 9.67573,8.147111 2.34815,0.01862 4.67463,-0.691013 6.67109,-1.91299 3.22182,2.365166 8.12076,2.64413 11.24554,-0.03765 2.38019,-1.875851 3.92805,-5.197905 2.94512,-8.192919 -0.81148,-1.790215 -2.92202,-2.81782 -4.83909,-2.499904 0.29833,-0.625967 0.78031,-1.193874 1.50515,-1.272625 2.13196,-0.781221 3.49828,-3.381312 2.5632,-5.534015 -0.83849,-2.203496 -3.44372,-3.410269 -5.68949,-2.850102 -0.32263,-0.07289 -0.89178,0.205891 -1.03917,-0.07996 0.0627,-4.032211 -3.35952,-7.914166 -7.46865,-7.967922 -0.61253,-0.06504 -1.22928,-0.03222 -1.8437,-0.0278 z M 200.84766,88.875 c -0.32537,0.02895 0.45218,-0.340836 0,0 z" />
    <path
       id="path108930"
       style="font-size:50.4236px;line-height:1.25;font-family:'Times New Roman';-inkscape-font-specification:'Times New Roman, ';display:inline;fill:none;stroke:#000000;stroke-width:0.264584;stroke-opacity:1"
       d="m 248.28125,63.001953 c -4.14511,0.07914 -8.29388,-0.03503 -12.44062,0 -6.37283,0.02622 -12.74658,-0.04062 -19.11877,0.03302 -1.18176,0.07918 -2.42653,-0.04355 -3.55584,0.341976 -1.87189,0.938392 -2.32589,3.346743 -1.88909,5.229052 0.44483,2.036711 2.53247,3.69846 4.64104,3.331495 0.003,2.287656 0.11308,4.602873 0.079,6.903515 -0.0463,5.272242 0.0678,10.546403 -0.10244,15.816805 0.22893,0.894625 -0.43671,0.86364 -1.1312,0.802789 -2.7642,0.01367 -5.5284,0.02827 -8.2926,0.04134 1.03192,1.937422 3.07382,2.918565 4.66992,4.302735 0.0499,1.367152 0.40845,2.873722 1.62876,3.669472 1.61364,1.26389 3.7688,0.85506 5.66069,0.88122 4.94519,-0.0183 9.91378,0.16868 14.84337,-0.12882 0.31743,-0.25167 0.57621,-0.40437 0.93236,-0.12167 1.89891,0.5779 3.89986,0.085 5.84263,0.26011 6.05542,0.0339 12.11094,0.0208 18.16641,0.0217 -0.84502,-1.97907 -2.83409,-2.99247 -4.38672,-4.32813 -0.005,-1.591762 -0.66765,-3.338394 -2.20682,-4.028711 -0.78505,-0.41062 -1.67707,-0.591924 -2.5588,-0.600191 -0.20964,-4.536307 -0.0247,-9.07894 -0.0977,-13.617969 0.002,-3.293607 0.033,-6.587239 0.10547,-9.880078 3.03138,0.0055 6.06259,0.03379 9.09375,0.06836 -0.82282,-1.996515 -2.81907,-3.017374 -4.33984,-4.398438 0.003,-1.603627 -0.66224,-3.373573 -2.22071,-4.059518 -1.01713,-0.535939 -2.19861,-0.569126 -3.32226,-0.540091 z m -15.09375,8.109375 c 0.86716,0.595687 1.93179,0.89789 2.98242,0.84375 0.1005,2.181429 0.0517,4.365959 0.0527,6.548828 -2.49675,-0.0052 -4.99349,-0.01042 -7.49024,-0.01563 0.002,-2.184381 -0.0348,-4.370994 0.0957,-6.552734 1.37727,-0.03712 2.99467,0.0013 4.00586,-1.101563 0.11784,0.09245 0.23568,0.184896 0.35352,0.277344 z m -0.64453,17.199219 c 1.22851,0 2.45703,0 3.68555,0 -0.003,2.382257 0.0686,4.769002 -0.1211,7.146484 -2.43165,-8.25e-4 -4.86376,0.05911 -7.29492,-0.01367 -0.14531,-2.376952 -0.0474,-4.759247 -0.0801,-7.138671 1.27018,0.002 2.54037,0.0039 3.81055,0.0059 z" />
  </g>
  <plotdata
     application="axidraw"
     model="2"
     layer="-2"
     node="0"
     last_path="0"
     node_after_path="0"
     last_known_x="0"
     last_known_y="0"
     paused_x="0"
     paused_y="0"
     randseed="0"
     row="0"
     id="1729952954" />
</svg>
