<?xml version="1.0" encoding="UTF-8" standalone="no"?>
<!-- Created with Inkscape (http://www.inkscape.org/) -->

<svg
   width="297mm"
   height="420mm"
   viewBox="0 0 297 420"
   version="1.1"
   id="svg104534"
   inkscape:version="1.2.1 (9c6d41e, 2022-07-14)"
   sodipodi:docname="jeff-hannah-envelope.svg"
   xmlns:inkscape="http://www.inkscape.org/namespaces/inkscape"
   xmlns:sodipodi="http://sodipodi.sourceforge.net/DTD/sodipodi-0.dtd"
   xmlns="http://www.w3.org/2000/svg"
   xmlns:svg="http://www.w3.org/2000/svg">
  <sodipodi:namedview
     id="namedview104536"
     pagecolor="#ffffff"
     bordercolor="#666666"
     borderopacity="1.0"
     inkscape:showpageshadow="2"
     inkscape:pageopacity="0.0"
     inkscape:pagecheckerboard="0"
     inkscape:deskcolor="#d1d1d1"
     inkscape:document-units="mm"
     showgrid="false"
     inkscape:zoom="0.84096521"
     inkscape:cx="777.67783"
     inkscape:cy="292.52102"
     inkscape:window-width="1512"
     inkscape:window-height="858"
     inkscape:window-x="586"
     inkscape:window-y="1478"
     inkscape:window-maximized="0"
     inkscape:current-layer="g105865" />
  <defs
     id="defs104531">
    <inkscape:path-effect
       effect="bspline"
       id="path-effect105659"
       is_visible="true"
       lpeversion="1"
       weight="33.333333"
       steps="2"
       helper_size="0"
       apply_no_weight="true"
       apply_with_weight="true"
       only_selected="false" />
    <inkscape:path-effect
       effect="bspline"
       id="path-effect105655"
       is_visible="true"
       lpeversion="1"
       weight="33.333333"
       steps="2"
       helper_size="0"
       apply_no_weight="true"
       apply_with_weight="true"
       only_selected="false" />
    <inkscape:path-effect
       effect="bspline"
       id="path-effect105651"
       is_visible="true"
       lpeversion="1"
       weight="33.333333"
       steps="2"
       helper_size="0"
       apply_no_weight="true"
       apply_with_weight="true"
       only_selected="false" />
    <inkscape:path-effect
       effect="bspline"
       id="path-effect105647"
       is_visible="true"
       lpeversion="1"
       weight="33.333333"
       steps="2"
       helper_size="0"
       apply_no_weight="true"
       apply_with_weight="true"
       only_selected="false" />
    <inkscape:path-effect
       effect="bspline"
       id="path-effect105643"
       is_visible="true"
       lpeversion="1"
       weight="33.333333"
       steps="2"
       helper_size="0"
       apply_no_weight="true"
       apply_with_weight="true"
       only_selected="false" />
    <inkscape:path-effect
       effect="bspline"
       id="path-effect105639"
       is_visible="true"
       lpeversion="1"
       weight="33.333333"
       steps="2"
       helper_size="0"
       apply_no_weight="true"
       apply_with_weight="true"
       only_selected="false" />
    <inkscape:path-effect
       effect="bspline"
       id="path-effect105635"
       is_visible="true"
       lpeversion="1"
       weight="33.333333"
       steps="2"
       helper_size="0"
       apply_no_weight="true"
       apply_with_weight="true"
       only_selected="false" />
    <inkscape:path-effect
       effect="bspline"
       id="path-effect105190"
       is_visible="true"
       lpeversion="1"
       weight="33.333333"
       steps="2"
       helper_size="0"
       apply_no_weight="true"
       apply_with_weight="true"
       only_selected="false" />
  </defs>
  <g
     inkscape:label="1 boundaries"
     inkscape:groupmode="layer"
     id="layer1">
    <rect
       style="fill:#ebebec;stroke-width:1;stroke-linecap:square;stop-color:#000000"
       id="rect104707"
       width="215.89999"
       height="279.39999"
       x="81.100006"
       y="0" />
    <rect
       style="fill:#f6f9f5;fill-opacity:1;stroke-width:1;stroke-linecap:square;stop-color:#000000"
       id="rect104709"
       width="144"
       height="111"
       x="140"
       y="30" />
  </g>
  <g
     inkscape:groupmode="layer"
     id="layer14"
     inkscape:label="2 guidelines"
     style="display:inline">
    <path
       style="fill:none;fill-opacity:1;stroke:#000000;stroke-width:1;stroke-linecap:square;stroke-opacity:1;stop-color:#000000"
       d="m 140,30 c -16.26231,0 -32.52488,0 -48.78772,0"
       id="path105188"
       inkscape:path-effect="#path-effect105190"
       inkscape:original-d="m 140,30 c -16.26231,2.65e-4 -32.52488,2.65e-4 -48.78772,0" />
    <path
       style="fill:none;fill-opacity:1;stroke:#000000;stroke-width:1;stroke-linecap:square;stroke-opacity:1;stop-color:#000000"
       d="m 140,30 c 0.16666,-7.626739 0.33333,-15.253737 0.5,-22.8809929"
       id="path105633"
       inkscape:path-effect="#path-effect105635"
       inkscape:original-d="m 140,30 c 0.16693,-7.626733 0.3336,-15.253731 0.5,-22.8809929" />
    <path
       style="fill:none;fill-opacity:1;stroke:#000000;stroke-width:1;stroke-linecap:square;stroke-opacity:1;stop-color:#000000"
       d="m 283.99999,30 c 0,-7.797001 0,-15.594267 0,-23.3917972"
       id="path105637"
       inkscape:path-effect="#path-effect105639"
       inkscape:original-d="m 283.99999,30 c 2.6e-4,-7.797001 2.6e-4,-15.594267 0,-23.3917972" />
    <path
       style="fill:none;fill-opacity:1;stroke:#000000;stroke-width:1;stroke-linecap:square;stroke-opacity:1;stop-color:#000000"
       d="m 283.99999,30 c 3.51659,0.16668 7.0329,0.333346 10.54894,0.499999"
       id="path105641"
       inkscape:path-effect="#path-effect105643"
       inkscape:original-d="m 283.99999,30 c 3.51658,0.166931 7.03289,0.333598 10.54894,0.499999" />
    <path
       style="fill:none;fill-opacity:1;stroke:#000000;stroke-width:1;stroke-linecap:square;stroke-opacity:1;stop-color:#000000"
       d="m 283.99999,141 c 2.97026,0 5.94024,0 8.90998,0"
       id="path105645"
       inkscape:path-effect="#path-effect105647"
       inkscape:original-d="m 283.99999,141 c 2.97026,2.6e-4 5.94024,2.6e-4 8.90998,0" />
    <path
       style="fill:none;fill-opacity:1;stroke:#000000;stroke-width:1;stroke-linecap:square;stroke-opacity:1;stop-color:#000000"
       d="m 283.99999,141 c -0.16667,28.63971 -0.33334,57.27917 -0.50001,85.91835"
       id="path105649"
       inkscape:path-effect="#path-effect105651"
       inkscape:original-d="m 283.99999,141 c -0.1664,28.63971 -0.33308,57.27917 -0.50001,85.91835" />
    <path
       style="fill:none;fill-opacity:1;stroke:#000000;stroke-width:1;stroke-linecap:square;stroke-opacity:1;stop-color:#000000"
       d="m 140,141 c 0,17.66458 0,35.32889 0,52.99294"
       id="path105653"
       inkscape:path-effect="#path-effect105655"
       inkscape:original-d="m 140,141 c 2.6e-4,17.66458 2.6e-4,35.32889 0,52.99294" />
    <path
       style="fill:none;fill-opacity:1;stroke:#000000;stroke-width:1;stroke-linecap:square;stroke-opacity:1;stop-color:#000000"
       d="m 140,141 c -11.51631,-0.16666 -23.03287,-0.33333 -34.54971,-0.5"
       id="path105657"
       inkscape:path-effect="#path-effect105659"
       inkscape:original-d="m 140,141 c -11.51631,-0.16641 -23.03287,-0.33307 -34.54971,-0.5" />
  </g>
  <g
     inkscape:groupmode="layer"
     id="layer15"
     inkscape:label="3 letters">
    <text
       xml:space="preserve"
       style="font-style:normal;font-variant:normal;font-weight:normal;font-stretch:normal;font-size:50.8px;line-height:1.25;font-family:'Times New Roman';-inkscape-font-specification:'Times New Roman, ';display:none;fill:#000000;fill-opacity:1;stroke:none;stroke-width:0.264583"
       x="168.6315"
       y="101.93311"
       id="text105799"><tspan
         sodipodi:role="line"
         id="tspan105797"
         style="font-style:normal;font-variant:normal;font-weight:normal;font-stretch:normal;font-size:50.8px;font-family:'Times New Roman';-inkscape-font-specification:'Times New Roman, ';stroke-width:0.264583"
         x="168.6315"
         y="101.93311">J</tspan></text>
    <text
       xml:space="preserve"
       style="font-style:normal;font-variant:normal;font-weight:normal;font-stretch:normal;font-size:50.8px;line-height:1.25;font-family:'Times New Roman';-inkscape-font-specification:'Times New Roman, ';display:none;fill:#000000;fill-opacity:1;stroke:none;stroke-width:0.264583"
       x="192.08183"
       y="102.31758"
       id="text105803"><tspan
         sodipodi:role="line"
         id="tspan105801"
         style="font-style:normal;font-variant:normal;font-weight:normal;font-stretch:normal;font-size:50.8px;font-family:'Times New Roman';-inkscape-font-specification:'Times New Roman, ';stroke-width:0.264583"
         x="192.08183"
         y="102.31758">&amp;</tspan></text>
    <text
       xml:space="preserve"
       style="font-style:normal;font-variant:normal;font-weight:normal;font-stretch:normal;font-size:50.8px;line-height:1.25;font-family:'Times New Roman';-inkscape-font-specification:'Times New Roman, ';display:none;fill:#000000;fill-opacity:1;stroke:none;stroke-width:0.264583"
       x="229.18965"
       y="102.31758"
       id="text105807"><tspan
         sodipodi:role="line"
         id="tspan105805"
         style="font-style:normal;font-variant:normal;font-weight:normal;font-stretch:normal;font-size:50.8px;font-family:'Times New Roman';-inkscape-font-specification:'Times New Roman, ';stroke-width:0.264583"
         x="229.18965"
         y="102.31758">H</tspan></text>
    <g
       id="g105865"
       transform="translate(3.2233874,-1.805772)">
      <g
         id="g107088">
        <path
           style="stroke:#000000;fill:none;stroke-width:0.264582"
           d="M 176.027621,68.908234 l -0.305496,0.305496 c -0.353553,0.353553 0.139265,0.567841 0.492819,0.214288 l 0.254619,-0.254619 c 0.353553,-0.353553 1.060660,-0.353553 0.707107,0.000000 l -0.254619,0.254619 c -0.353553,0.353553 0.311420,0.395687 0.664973,0.042133 l 0.296752,-0.296752 c 0.353553,-0.353553 1.060660,-0.353553 0.707107,0.000000 l -0.412726,0.412726 c -0.353553,0.353553 0.180882,0.526225 0.534435,0.172671 l 0.585397,-0.585397 c 0.353553,-0.353553 1.060660,-0.353553 0.707107,0.000000 l -0.802529,0.802529 c -0.353553,0.353553 0.096120,0.610987 0.449673,0.257433 l 1.059962,-1.059962 c 0.353553,-0.353553 1.060660,-0.353553 0.707107,0.000000 l -1.370821,1.370821 c -0.353553,0.353553 -0.024211,0.731318 0.329342,0.377764 l 1.748585,-1.748585 c 0.353553,-0.353553 1.060660,-0.353553 0.707107,0.000000 l -2.224727,2.224727 c -0.353553,0.353553 -0.216898,0.924005 0.136655,0.570451 l 2.795179,-2.795179 c 0.353553,-0.353553 1.060660,-0.353553 0.707107,0.000000 l -3.424353,3.424353 c -0.353553,0.353553 -0.296838,1.003945 0.056715,0.650392 l 4.074745,-4.074745 c 0.353553,-0.353553 1.060660,-0.353553 0.707107,0.000000 l -4.753462,4.753462 c -0.353553,0.353553 -0.341079,1.048185 0.012475,0.694632 l 5.448094,-5.448094 c 0.353553,-0.353553 1.060660,-0.353553 0.707107,0.000000 l -6.152548,6.152548 c -0.353553,0.353553 -0.353553,1.060660 0.000000,0.707107 l 6.859655,-6.859655 c 0.353553,-0.353553 1.060660,-0.353553 0.707107,0.000000 l -0.557540,0.557540 c -0.353553,0.353553 0.558073,0.149034 0.911626,-0.204520 l 0.353020,-0.353020 c 0.353553,-0.353553 1.060660,-0.353553 0.707107,0.000000 l -0.257697,0.257697 c -0.353553,0.353553 0.356632,0.350475 0.710185,-0.003078 l 0.395662,-0.395662 M 185.935029,71.728747 l -5.011414,5.011414 c -0.353553,0.353553 -0.353553,1.060660 0.000000,0.707107 l 4.563576,-4.563576 c 0.353553,-0.353553 0.242390,0.464716 -0.111163,0.818270 l -4.452413,4.452413 c -0.353553,0.353553 -0.353553,1.060660 0.000000,0.707107 l 4.409593,-4.409593 c 0.353553,-0.353553 0.336941,0.370166 -0.016612,0.723719 l -4.392981,4.392981 c -0.353553,0.353553 -0.353553,1.060660 0.000000,0.707107 l 4.389140,-4.389140 c 0.353553,-0.353553 0.353553,0.353553 0.000000,0.707107 l -4.389140,4.389140 c -0.353553,0.353553 -0.353553,1.060660 0.000000,0.707107 l 4.389140,-4.389140 c 0.353553,-0.353553 0.353553,0.353553 0.000000,0.707107 l -4.389140,4.389140 c -0.353553,0.353553 -0.353553,1.060660 0.000000,0.707107 l 4.389140,-4.389140 c 0.353553,-0.353553 0.353553,0.353553 0.000000,0.707107 l -4.389140,4.389140 c -0.353553,0.353553 -0.353553,1.060660 0.000000,0.707107 l 4.389140,-4.389140 c 0.353553,-0.353553 0.353553,0.353553 0.000000,0.707107 l -4.389140,4.389140 c -0.353553,0.353553 -0.353553,1.060660 0.000000,0.707107 l 4.389140,-4.389140 c 0.353553,-0.353553 0.353553,0.353553 0.000000,0.707107 l -4.389140,4.389140 c -0.353553,0.353553 -0.353553,1.060660 0.000000,0.707107 l 4.389140,-4.389140 c 0.353553,-0.353553 0.353553,0.353553 0.000000,0.707107 l -4.389140,4.389140 c -0.353553,0.353553 -0.353553,1.060660 0.000000,0.707107 l 4.389140,-4.389140 c 0.353553,-0.353553 0.353553,0.353553 0.000000,0.707107 l -4.389140,4.389140 c -0.353553,0.353553 -0.353553,1.060660 0.000000,0.707107 l 4.389140,-4.389140 c 0.353553,-0.353553 0.353553,0.353553 0.000000,0.707107 l -4.389140,4.389140 c -0.353553,0.353553 -0.353553,1.060660 0.000000,0.707107 l 4.389140,-4.389140 c 0.353553,-0.353553 0.353553,0.353553 0.000000,0.707107 l -4.389140,4.389140 c -0.353553,0.353553 -0.353553,1.060660 0.000000,0.707107 l 4.389140,-4.389140 c 0.353553,-0.353553 0.353553,0.353553 0.000000,0.707107 l -4.389140,4.389140 c -0.353553,0.353553 -0.353553,1.060660 0.000000,0.707107 l 4.389140,-4.389140 c 0.353553,-0.353553 0.353553,0.353553 0.000000,0.707107 l -4.389140,4.389140 c -0.353553,0.353553 -0.353553,1.060660 0.000000,0.707107 l 4.389140,-4.389140 c 0.353553,-0.353553 0.353553,0.353553 0.000000,0.707107 l -4.389140,4.389140 c -0.353553,0.353553 -0.353553,1.060660 0.000000,0.707107 l 4.389140,-4.389140 c 0.353553,-0.353553 0.347700,0.359407 -0.005854,0.712961 l -4.383286,4.383286 c -0.353553,0.353553 -0.353553,1.060660 0.000000,0.707107 l 4.368754,-4.368754 c 0.353553,-0.353553 0.320347,0.386760 -0.033207,0.740313 l -4.335548,4.335548 c -0.353553,0.353553 -0.391443,1.098550 -0.037890,0.744997 l 4.317318,-4.317318 c 0.353553,-0.353553 0.269597,0.437510 -0.083957,0.791063 l -4.252403,4.252403 c -0.353553,0.353553 -0.486347,1.193453 -0.132793,0.839900 l 4.264379,-4.264379 c 0.353553,-0.353553 0.181196,0.525911 -0.172358,0.879465 l -7.086085,7.086085 c -0.353553,0.353553 -1.113646,0.406539 -0.760093,0.052986 l 1.164132,-1.164132 c 0.353553,-0.353553 -0.163503,-0.543604 -0.517056,-0.190050 l -1.349969,1.349969 c -0.353553,0.353553 -1.007437,0.300330 -0.653884,-0.053223 l 1.620688,-1.620688 c 0.353553,-0.353553 0.053492,-0.760599 -0.300061,-0.407046 l -1.929007,1.929007 c -0.353553,0.353553 -0.912752,0.205646 -0.559199,-0.147908 l 2.246617,-2.246617 c 0.353553,-0.353553 0.135059,-0.842166 -0.218495,-0.488612 l -2.542694,2.542694 c -0.353553,0.353553 -0.824444,0.117337 -0.470891,-0.236216 l 2.791448,-2.791448 c 0.353553,-0.353553 0.121541,-0.828648 -0.232012,-0.475095 l -2.987577,2.987577 c -0.353553,0.353553 -0.739316,0.032209 -0.385763,-0.321344 l 3.128147,-3.128147 c 0.353553,-0.353553 0.090215,-0.797322 -0.263338,-0.443769 l -3.213151,3.213151 c -0.353553,0.353553 -0.662605,-0.044501 -0.309052,-0.398055 l 3.225967,-3.225967 c 0.353553,-0.353553 -0.002323,-0.704784 -0.355876,-0.351230 l -3.135204,3.135204 c -0.353553,0.353553 -0.551141,-0.155965 -0.197588,-0.509519 l 2.897499,-2.897499 c 0.353553,-0.353553 -0.183803,-0.523304 -0.537356,-0.169751 l -2.478873,2.478873 c -0.353553,0.353553 -0.358029,-0.349078 -0.004476,-0.702631 l 1.799038,-1.799038 c 0.353553,-0.353553 -0.531333,-0.175774 -0.884886,0.177779 l -1.036291,1.036291 M 184.907121,98.919602 l -6.325831,6.325831 c -0.353553,0.353553 0.638584,0.068523 0.992137,-0.285030 l 4.598639,-4.598639 c 0.353553,-0.353553 -0.231034,0.938141 -0.584588,1.291694 l -2.990840,2.990840"
           id="path107086" />
        <path
           d="m 175.35596,69.794183 v -0.986949 h 15.49778 v 0.986949 h -1.30704 q -2.21397,0 -3.2276,1.307042 -0.64018,0.853578 -0.64018,4.107845 v 17.685072 q 0,4.081171 -0.90693,6.615231 -0.88025,2.534057 -3.06754,4.427937 -2.1873,1.8672 -5.28152,1.8672 -2.50738,0 -3.9478,-1.22702 -1.44041,-1.25369 -1.44041,-2.85415 0,-1.30704 0.66686,-1.973898 0.88025,-0.826904 2.05392,-0.826904 0.85358,0 1.52044,0.56016 0.69353,0.560162 1.73383,2.987522 0.61351,1.44042 1.57378,1.44042 0.72021,0 1.33372,-0.88026 0.64018,-0.88025 0.64018,-3.120893 V 75.20907 q 0,-2.747455 -0.34677,-3.627707 -0.26674,-0.666858 -1.12032,-1.146996 -1.14699,-0.640184 -2.42736,-0.640184 z"
           id="path105910"
           style="font-size:54.629px;line-height:1.25;font-family:'Times New Roman';-inkscape-font-specification:'Times New Roman, ';display:inline;fill:none;stroke:#000000;stroke-width:0.264582;stroke-opacity:1" />
      </g>
      <g
         id="g107093">
        <path
           style="stroke:#000000;fill:none;stroke-width:0.264582"
           d="M 198.262425,74.652360 l -0.980098,0.980098 c -0.353553,0.353553 -0.946333,1.653440 -0.592780,1.299886 l 2.650015,-2.650015 c 0.353553,-0.353553 1.358094,-0.650987 1.004540,-0.297434 l -3.841983,3.841983 c -0.353553,0.353553 -0.368181,1.075288 -0.014628,0.721735 l 4.599566,-4.599566 c 0.353553,-0.353553 1.052719,-0.345612 0.699166,0.007941 l -0.490635,0.490635 c -0.353553,0.353553 0.425862,0.281245 0.779416,-0.072309 l 0.341676,-0.341676 c 0.353553,-0.353553 0.903944,-0.196837 0.550391,0.156716 l -0.293396,0.293396 c -0.353553,0.353553 0.128565,0.578542 0.482118,0.224988 l 0.309567,-0.309567 c 0.353553,-0.353553 0.798546,-0.091440 0.444993,0.262114 l -0.352611,0.352611 c -0.353553,0.353553 -0.017713,0.724820 0.335840,0.371267 l 0.410589,-0.410589 c 0.353553,-0.353553 0.706481,0.000626 0.352927,0.354179 l -0.496859,0.496859 c -0.353553,0.353553 -0.170950,0.878057 0.182603,0.524504 l 0.620348,-0.620348 c 0.353553,-0.353553 0.605518,0.101588 0.251965,0.455142 l -0.791350,0.791350 c -0.353553,0.353553 -0.415970,1.123077 -0.062417,0.769523 l 1.041204,-1.041204 c 0.353553,-0.353553 0.462614,0.244493 0.109061,0.598046 l -1.725081,1.725081 M 198.820262,76.922950 l -2.301436,2.301436 c -0.353553,0.353553 -0.265990,0.973097 0.087563,0.619543 l 1.857080,-1.857080 c 0.353553,-0.353553 0.414489,0.292618 0.060936,0.646171 l -1.797546,1.797546 c -0.353553,0.353553 -0.200923,0.908029 0.152631,0.554476 l 1.760311,-1.760311 c 0.353553,-0.353553 0.504429,0.202677 0.150876,0.556231 l -1.730741,1.730741 c -0.353553,0.353553 -0.159426,0.866532 0.194128,0.512979 l 1.711814,-1.711814 c 0.353553,-0.353553 0.541604,0.165502 0.188051,0.519056 l -1.696045,1.696045 c -0.353553,0.353553 -0.138939,0.846046 0.214615,0.492492 l 1.680160,-1.680160 c 0.353553,-0.353553 0.557261,0.149846 0.203708,0.503399 l -8.252871,8.252871 c -0.353553,0.353553 -0.433860,1.140967 -0.080307,0.787414 l 3.255961,-3.255961 c 0.353553,-0.353553 -0.209132,0.916238 -0.562685,1.269792 l -2.664146,2.664146 c -0.353553,0.353553 -0.239950,0.947057 0.113603,0.593504 l 2.407366,-2.407366 c 0.353553,-0.353553 0.354975,0.352132 0.001422,0.705685 l -2.224941,2.224941 c -0.353553,0.353553 -0.116100,0.823207 0.237453,0.469653 l 2.070816,-2.070816 c 0.353553,-0.353553 0.504176,0.202931 0.150623,0.556484 l -1.937488,1.937488 c -0.353553,0.353553 -0.029548,0.736655 0.324005,0.383101 l 1.819307,-1.819307 c 0.353553,-0.353553 0.607127,0.099980 0.253574,0.453533 l -1.714999,1.714999 c -0.353553,0.353553 0.039104,0.668002 0.392658,0.314449 l 1.616151,-1.616151 c 0.353553,-0.353553 0.686104,0.021003 0.332551,0.374556 l -1.517271,1.517271 c -0.353553,0.353553 0.118266,0.588840 0.471820,0.235287 l 1.422219,-1.422219 c 0.353553,-0.353553 0.782612,-0.075506 0.429059,0.278048 l -1.337383,1.337383 c -0.353553,0.353553 0.204184,0.502923 0.557737,0.149370 l 1.263818,-1.263818 c 0.353553,-0.353553 0.916833,-0.209727 0.563280,0.143827 l -1.223656,1.223656 c -0.353553,0.353553 0.297567,0.409539 0.651121,0.055986 l 1.183118,-1.183118 c 0.353553,-0.353553 1.063694,-0.356587 0.710140,-0.003033 l -1.190365,1.190365 c -0.353553,0.353553 0.408897,0.298209 0.762451,-0.055344 l 1.269767,-1.269767 c 0.353553,-0.353553 1.534102,-0.826995 1.180548,-0.473442 l -1.600468,1.600468 c -0.353553,0.353553 0.638146,0.068961 0.991699,-0.284593 l 8.602911,-8.602911 M 194.846767,85.139085 l -2.731493,2.731493 c -0.353553,0.353553 -0.901347,1.608454 -0.547794,1.254901 l 5.038889,-5.038889 M 197.079893,85.027279 l 2.683584,-2.683584 c 0.353553,-0.353553 1.372625,-0.665519 1.019072,-0.311965 l -2.405522,2.405522 c -0.353553,0.353553 -0.115862,0.822969 0.237691,0.469416 l 6.929622,-6.929622 c 0.353553,-0.353553 0.256248,0.450859 -0.097305,0.804412 l -3.649812,3.649812 M 198.589833,85.638658 l 1.904734,-1.904734 c 0.353553,-0.353553 0.610557,0.096550 0.257003,0.450103 l -1.651599,1.651599 c -0.353553,0.353553 -0.104248,0.811355 0.249305,0.457801 l 1.662656,-1.662656 c 0.353553,-0.353553 0.615844,0.091263 0.262291,0.444816 l -1.671499,1.671499 c -0.353553,0.353553 -0.092045,0.799151 0.261509,0.445598 l 1.675982,-1.675982 c 0.353553,-0.353553 0.621235,0.085872 0.267682,0.439425 l -1.677006,1.677006 c -0.353553,0.353553 -0.076934,0.784041 0.276619,0.430487 l 1.672229,-1.672229 c 0.353553,-0.353553 0.626733,0.080374 0.273179,0.433927 l -1.663753,1.663753 c -0.353553,0.353553 -0.066925,0.774031 0.286629,0.420478 l 1.655046,-1.655046 c 0.353553,-0.353553 0.632340,0.074766 0.278787,0.428320 l -1.645533,1.645533 c -0.353553,0.353553 -0.060548,0.767654 0.293006,0.414101 l 1.636767,-1.636767 c 0.353553,-0.353553 0.638526,0.068580 0.284973,0.422134 l -1.628734,1.628734 c -0.353553,0.353553 -0.058242,0.765349 0.295311,0.411796 l 1.623768,-1.623768 c 0.353553,-0.353553 0.645238,0.061868 0.291685,0.415422 l -1.618029,1.618029 c -0.353553,0.353553 -0.056129,0.763236 0.297424,0.409683 l 1.882073,-1.882073 M 203.680356,81.255243 l 1.477151,-1.477151 M 206.661634,81.809498 l -0.181452,0.181452 c -0.241936,0.241936 0.270457,0.436649 0.512393,0.194713 l 0.111000,-0.111000 c 0.353553,-0.353553 1.060660,-0.353553 0.707107,0.000000 l -0.331458,0.331458 c -0.353553,0.353553 -0.057815,0.764922 0.295738,0.411369 l 0.742826,-0.742826 c 0.353553,-0.353553 1.060660,-0.353553 0.707107,0.000000 l -1.250551,1.250551 c -0.353553,0.353553 -0.298265,1.005371 0.055289,0.651818 l 1.902369,-1.902369 c 0.353553,-0.353553 1.060660,-0.353553 0.707107,0.000000 l -2.715343,2.715343 c -0.353553,0.353553 -0.684145,1.391251 -0.330591,1.037698 l 3.753042,-3.753042 c 0.353553,-0.353553 1.060660,-0.353553 0.707107,0.000000 l -0.265350,0.265350 c -0.107267,0.107267 0.764840,-0.057733 0.872107,-0.165000 l 0.080450,-0.080450 M 206.453215,87.674770 l 2.847769,-2.847769 M 207.161606,88.380592 l -6.430373,6.430373 M 202.998407,93.250899 l 2.296254,-2.296254 c 0.353553,-0.353553 0.683944,0.023163 0.330391,0.376716 l -1.562213,1.562213 c -0.353553,0.353553 0.001745,0.705362 0.355298,0.351809 l 1.546383,-1.546383 c 0.353553,-0.353553 0.703776,0.003330 0.350223,0.356884 l -1.531159,1.531159 c -0.353553,0.353553 0.023754,0.683353 0.377307,0.329799 l 1.517795,-1.517795 c 0.353553,-0.353553 0.733830,-0.026723 0.380277,0.326830 l -1.506783,1.506783 c -0.353553,0.353553 0.054373,0.652734 0.407926,0.299181 l 1.499337,-1.499337 c 0.353553,-0.353553 0.783072,-0.075965 0.429518,0.277588 l -1.497784,1.497784 c -0.353553,0.353553 0.106718,0.600389 0.460271,0.246835 l 1.510111,-1.510111 c 0.353553,-0.353553 0.862506,-0.155400 0.508953,0.198154 l -1.528084,1.528084 c -0.353553,0.353553 0.179036,0.528071 0.532589,0.174517 l 1.565217,-1.565217 c 0.353553,-0.353553 1.001460,-0.294353 0.647907,0.059200 l -1.634567,1.634567 c -0.353553,0.353553 0.290217,0.416890 0.643770,0.063336 l 2.040319,-2.040319 M 213.754165,91.687527 l -3.921610,3.921610 c -0.353553,0.353553 0.535064,0.172043 0.888617,-0.181511 l 2.449485,-2.449485 c 0.353553,-0.353553 -0.282829,0.989936 -0.636383,1.343489 l -0.796641,0.796641"
           id="path107091" />
        <path
           d="m 206.19773,81.708498 h 6.6438 v 0.585287 q -1.37622,0.11073 -2.0406,0.616924 -0.64856,0.490375 -2.04059,3.005525 -1.39203,2.51515 -3.13207,4.698111 1.40785,1.64513 2.51515,2.309509 1.10729,0.648561 2.23041,0.648561 1.09148,0 1.85077,-0.585287 0.75929,-0.601105 1.07566,-1.755859 l 0.58529,0.427101 q -0.58529,2.230416 -1.88241,3.290259 -1.29712,1.059843 -3.02134,1.059843 -1.29712,0 -2.6417,-0.696016 -1.32876,-0.711835 -2.91061,-2.388602 -1.9615,1.740041 -3.54336,2.420239 -1.56604,0.664379 -3.35353,0.664379 -2.61007,0 -4.14447,-1.392033 -1.5344,-1.392033 -1.5344,-3.321896 0,-1.914045 1.37622,-3.812272 1.37621,-1.914045 5.17267,-3.954639 -0.74348,-1.645129 -1.01239,-2.689154 -0.26892,-1.059843 -0.26892,-2.024775 0,-2.704973 1.99314,-4.128643 1.55022,-1.107299 3.52754,-1.107299 1.88241,0 3.0688,1.123118 1.18639,1.107299 1.18639,2.73661 0,1.676766 -1.15475,2.942251 -1.13894,1.265484 -4.04955,2.768247 2.00895,3.574993 4.19191,6.548882 2.78407,-3.321897 2.78407,-5.599769 0,-0.727653 -0.47456,-1.297121 -0.34801,-0.427101 -0.99657,-0.506194 z m -6.04268,0.411283 q 1.9615,-0.933295 2.92643,-2.119686 0.98075,-1.186392 0.98075,-2.641699 0,-1.138936 -0.71184,-1.882408 -0.69601,-0.743472 -1.74004,-0.743472 -1.37621,0 -2.08805,0.964932 -0.69601,0.949113 -0.69601,1.866589 0,0.775109 0.26891,1.740041 0.26892,0.949113 1.05985,2.815703 z m 2.45187,9.886597 q -2.08805,-2.84734 -2.89479,-4.16028 -0.80675,-1.31294 -1.77168,-3.258623 -1.89823,1.091481 -2.86316,2.404421 -0.94911,1.31294 -0.94911,2.84734 0,1.692585 1.09148,2.973888 1.09148,1.281303 2.94225,1.281303 0.99657,0 1.91404,-0.395464 0.9333,-0.395464 2.53097,-1.692585 z"
           id="path105913"
           style="font-size:32.3964px;line-height:1.25;font-family:'Times New Roman';-inkscape-font-specification:'Times New Roman, ';display:inline;fill:none;stroke:#000000;stroke-width:0.264582;stroke-opacity:1" />
      </g>
      <g
         id="g107098">
        <path
           style="display:inline;fill:none;stroke:#000000;stroke-width:0.264584"
           d="m 212.60139,68.908032 -0.25019,0.250192 c -0.33359,0.33359 0.16493,0.542179 0.49852,0.208589 l 0.19362,-0.193617 c 0.35355,-0.353553 1.06066,-0.353553 0.7071,0 l -0.18239,0.182397 c -0.35356,0.353553 0.29242,0.414686 0.64597,0.06113 l 0.24353,-0.24353 c 0.35355,-0.353553 1.06066,-0.353553 0.70711,0 l -0.37639,0.376391 c -0.35356,0.353553 0.16568,0.541424 0.51923,0.187871 l 0.56426,-0.564262 c 0.35356,-0.353553 1.06066,-0.353553 0.70711,0 l -0.79587,0.795874 c -0.35356,0.353553 0.0632,0.643883 0.41677,0.29033 l 1.08621,-1.086203 c 0.35355,-0.353553 1.06066,-0.353553 0.7071,0 l -1.44099,1.440995 c -0.35355,0.353553 -0.0918,0.798932 0.26173,0.445378 l 1.88637,-1.886374 c 0.35356,-0.353553 1.06066,-0.353553 0.70711,0 l -2.44358,2.443583 c -0.35356,0.353553 -0.26708,0.974184 0.0865,0.620631 l 3.06422,-3.064214 c 0.35355,-0.353553 1.06066,-0.353553 0.7071,0 l -3.71922,3.719226 c -0.35356,0.353553 -0.32599,1.033098 0.0276,0.679544 l 4.39877,-4.39877 c 0.35355,-0.353553 1.06066,-0.353553 0.70711,0 l -5.09479,5.094789 c -0.35356,0.353553 -0.35187,1.05897 0.002,0.705417 l 5.8002,-5.800205 c 0.35356,-0.353553 1.06066,-0.353553 0.70711,0 l -6.50731,6.507312 c -0.35356,0.353553 -0.35356,1.06066 0,0.707107 l 4.16581,-4.165814 c 0.35355,-0.353553 0.26084,0.446267 -0.0927,0.79982 l -4.0731,4.073101 c -0.35356,0.353553 -0.35356,1.06066 0,0.707107 l 4.01777,-4.017773 c 0.35355,-0.353553 0.35924,0.347867 0.006,0.70142 l -4.02346,4.023459 c -0.35355,0.353553 -0.35355,1.06066 0,0.707107 l 3.99488,-3.99488 c 0.35355,-0.353553 0.35355,0.353553 0,0.707107 l -3.99488,3.99488 c -0.35355,0.353553 -0.35355,1.06066 0,0.707107 l 3.99488,-3.99488 c 0.35355,-0.353553 0.35355,0.353553 0,0.707107 l -3.99488,3.99488 c -0.35355,0.353553 -0.35355,1.06066 0,0.707107 l 3.99488,-3.99488 c 0.35355,-0.353553 0.35355,0.353553 0,0.707107 l -3.99488,3.99488 c -0.35355,0.353553 -0.35355,1.06066 0,0.707107 l 3.99488,-3.99488 c 0.35355,-0.353553 0.35355,0.353553 0,0.707107 l -3.99488,3.99488 c -0.35355,0.353553 -0.35355,1.06066 0,0.707107 l 3.99488,-3.99488 c 0.35355,-0.353553 0.35355,0.353553 0,0.707107 l -3.99488,3.99488 c -0.35355,0.353553 -0.35355,1.06066 0,0.707107 l 3.99488,-3.99488 c 0.35355,-0.353553 0.35355,0.353553 0,0.707107 l -3.99488,3.99488 c -0.35355,0.353553 -0.35355,1.06066 0,0.707107 l 3.99488,-3.99488 c 0.35355,-0.353553 0.35355,0.353553 0,0.707107 l -3.99488,3.99488 c -0.35355,0.353553 -0.35355,1.06066 0,0.707107 l 4.45579,-4.455794 c 0.35356,-0.353553 1.06066,-0.353553 0.70711,0 l -5.1629,5.162901 c -0.35355,0.353553 -0.35355,1.06066 0,0.707107 l 3.99488,-3.99488 c 0.35355,-0.353553 0.35355,0.353553 0,0.707107 l -3.99488,3.99488 c -0.35355,0.353553 -0.35355,1.06066 0,0.707107 l 3.99488,-3.99488 c 0.35355,-0.353553 0.35355,0.353553 0,0.707107 l -3.99488,3.99488 c -0.35355,0.353553 -0.35355,1.06066 0,0.707107 l 3.99488,-3.99488 c 0.35355,-0.353553 0.35355,0.353553 0,0.707107 l -3.99488,3.99488 c -0.35355,0.353553 -0.35355,1.06066 0,0.707107 l 3.99488,-3.99488 c 0.35355,-0.353553 0.35355,0.353553 0,0.707107 l -3.99488,3.99488 c -0.35355,0.353553 -0.35574,1.062843 -0.002,0.709289 l 3.99706,-3.997063 c 0.35355,-0.353553 0.35355,0.353553 0,0.707107 l -4.01152,4.011522 c -0.35356,0.353553 -0.39569,1.102791 -0.0421,0.749238 l 4.05365,-4.053653 c 0.35355,-0.353553 0.35355,0.353553 0,0.707107 l -4.13738,4.137383 c -0.35356,0.353553 -0.58971,1.29681 -0.23615,0.943257 l 4.37353,-4.373533 c 0.35355,-0.353553 0.35355,0.353553 0,0.707107 l -6.09955,6.099548 c -0.35355,0.35355 0.35355,0.35355 0.70711,0 l 5.39244,-5.392442 c 0.35355,-0.353553 0.35839,0.348717 0.005,0.70227 l -4.69018,4.690172 c -0.35355,0.35355 0.35356,0.35355 0.70711,0 l 4.0038,-4.003796 c 0.35355,-0.353553 0.3947,0.312401 0.0411,0.665954 l -3.33784,3.337842 c -0.35355,0.35355 0.35355,0.35355 0.70711,0 l 2.71189,-2.711899 c 0.35356,-0.353553 0.45928,0.247829 0.10573,0.601382 l -2.11052,2.110517 c -0.35355,0.35355 0.35356,0.35355 0.70711,0 l 1.61846,-1.61846 c 0.35355,-0.353554 0.67353,0.0336 0.31998,0.38713 l -1.23133,1.23133 c -0.35356,0.35355 0.35355,0.35355 0.7071,0 l 0.9189,-0.91889 c 0.35355,-0.35356 0.80512,-0.098 0.45157,0.25553 l -0.66336,0.66336 c -0.35355,0.35355 0.35355,0.35355 0.70711,0 l 0.45277,-0.45277 c 0.35356,-0.35356 0.90089,-0.19379 0.54734,0.15976 l -0.29301,0.29301 c -0.35355,0.35356 0.35356,0.35356 0.70711,0 l 0.19805,-0.19805 c 0.35355,-0.35355 1.04125,-0.33414 0.6877,0.0194 l -0.17864,0.17864 c -0.35356,0.35356 0.35355,0.35356 0.7071,0 l 0.38518,-0.38518 c 0.0782,-0.0782 0.19356,0.51355 0.11539,0.59172 l -0.0586,0.0586 m -2.37616,-32.272079 0.6467,-0.646706 c 0.35356,-0.353553 1.06066,-0.353553 0.70711,0 l -0.22294,0.222943 c -0.35356,0.353553 0.39785,0.309255 0.7514,-0.0443 l 0.35921,-0.359211 c 0.1128,-0.112797 0.28013,0.426982 0.16733,0.539779 l -0.0846,0.0846 m 7.07294,-0.708975 -0.44381,0.443809 c -0.35355,0.353553 0.35355,0.353553 0.70711,0 l 0.17864,-0.178644 c 0.35355,-0.353553 1.06066,-0.353553 0.70711,0 l -0.20942,0.20942 c -0.35356,0.353553 0.27586,0.431247 0.62941,0.07769 l 0.28712,-0.287114 c 0.35355,-0.353553 1.06066,-0.353553 0.7071,0 l -0.44423,0.444233 c -0.35355,0.353553 0.1464,0.560704 0.49996,0.207151 l 0.65138,-0.651384 c 0.35355,-0.353553 1.06066,-0.353553 0.70711,0 l -0.9054,0.905398 c -0.35355,0.353553 0.043,0.664151 0.39651,0.310597 l 1.21599,-1.215995 c 0.35356,-0.353553 1.06066,-0.353553 0.70711,0 l -1.59865,1.598647 c -0.35355,0.353553 -0.13867,0.845775 0.21489,0.492222 l 2.09087,-2.090869 c 0.35355,-0.353553 1.06066,-0.353553 0.7071,0 l -2.67398,2.673985 c -0.35355,0.353553 -0.28151,0.988613 0.0721,0.635059 l 3.30904,-3.309044 c 0.35355,-0.353553 1.06066,-0.353553 0.70711,0 l -3.97428,3.974275 c -0.35355,0.353553 -0.33112,1.038231 0.0224,0.684678 l 4.65895,-4.658953 c 0.35356,-0.353553 1.06066,-0.353553 0.70711,0 l -5.36081,5.360813 c -0.35355,0.353553 -0.35355,1.06066 0,0.707107 L 243.45,69.173153 c 0.35355,-0.353553 1.06066,-0.353553 0.7071,0 l -0.74528,0.745281 c -0.35355,0.353553 0.75465,-0.04754 1.10821,-0.401097 l 0.34418,-0.344184 c 0.35355,-0.353553 1.06066,-0.353553 0.70711,0 l -0.19898,0.198974 c -0.35355,0.353553 0.37389,0.333223 0.72744,-0.02033 l 0.3188,-0.318803 m -24.75966,16.981486 1.35478,-1.354782 c 0.35355,-0.353553 1.06066,-0.353553 0.70711,0 l -1.08962,1.089617 c -0.35355,0.353553 0.35355,0.353553 0.70711,0 l 1.08962,-1.089617 c 0.35355,-0.353553 1.06066,-0.353553 0.7071,0 l -1.08961,1.089617 c -0.35356,0.353553 0.35355,0.353553 0.7071,0 l 1.08962,-1.089617 c 0.35355,-0.353553 1.06066,-0.353553 0.70711,0 l -1.08962,1.089617 c -0.35355,0.353553 0.35355,0.353553 0.70711,0 l 1.08961,-1.089617 c 0.35356,-0.353553 1.06066,-0.353553 0.70711,0 l -1.08962,1.089617 c -0.35355,0.353553 0.35356,0.353553 0.70711,0 l 1.08962,-1.089617 c 0.35355,-0.353553 1.06066,-0.353553 0.70711,0 l -1.08962,1.089617 c -0.35355,0.353553 0.35355,0.353553 0.70711,0 l 1.08961,-1.089617 c 0.35356,-0.353553 1.06066,-0.353553 0.70711,0 l -1.08962,1.089617 c -0.35355,0.353553 0.35356,0.353553 0.70711,0 l 1.08962,-1.089617 c 0.35355,-0.353553 1.06066,-0.353553 0.7071,0 l -1.08961,1.089617 c -0.35356,0.353553 0.35355,0.353553 0.7071,0 l 1.08962,-1.089617 c 0.35355,-0.353553 1.06066,-0.353553 0.70711,0 l -1.08962,1.089617 c -0.35355,0.353553 0.35355,0.353553 0.70711,0 l 1.08961,-1.089617 c 0.35356,-0.353553 1.06066,-0.353553 0.70711,0 l -1.08962,1.089617 c -0.35355,0.353553 0.35356,0.353553 0.70711,0 l 1.08962,-1.089617 c 0.35355,-0.353553 1.06066,-0.353553 0.70711,0 l -1.08962,1.089617 c -0.35355,0.353553 0.35355,0.353553 0.70711,0 l 5.31073,-5.310736 c 0.35355,-0.353553 0.35355,-1.06066 0,-0.707107 l -3.99488,3.99488 c -0.35355,0.353553 -0.35355,-0.353553 0,-0.707107 l 3.99488,-3.99488 c 0.35355,-0.353553 0.35355,-1.06066 0,-0.707107 l -3.99488,3.99488 c -0.35355,0.353553 -0.35355,-0.353553 0,-0.707107 l 3.99488,-3.99488 c 0.35355,-0.353553 0.35355,-1.06066 0,-0.707107 l -3.99488,3.99488 c -0.35355,0.353553 -0.35355,-0.353553 0,-0.707107 l 3.99488,-3.99488 c 0.35355,-0.353553 0.35355,-1.06066 0,-0.707107 l -3.99488,3.99488 c -0.35355,0.353553 -0.35355,-0.353553 0,-0.707107 l 3.9965,-3.996498 c 0.35355,-0.353553 0.36452,-1.071623 0.011,-0.71807 l -4.00746,4.007461 c -0.35355,0.353553 -0.35355,-0.353553 0,-0.707107 l 4.03751,-4.037509 c 0.35355,-0.353553 0.4201,-1.127204 0.0665,-0.773651 l -4.10405,4.104053 c -0.35355,0.353553 -0.35355,-0.353553 0,-0.707107 l 4.60787,-4.607871 m -29.33555,30.042656 -0.28716,0.28716 c -0.35355,0.35355 0.19691,0.5102 0.55047,0.15664 l 0.19205,-0.19205 c 0.35355,-0.35355 1.11979,-0.41269 0.76624,-0.0591 l -0.25119,0.25118 c -0.35355,0.35356 0.35355,0.35356 0.70711,0 l 0.93211,-0.9321 m 26.37809,-20.014139 -4.86879,4.868794 c -0.35356,0.353553 0.25519,0.451911 0.60874,0.09836 l 3.99488,-3.99488 c 0.35356,-0.353553 0.35356,0.353553 0,0.707107 l -3.99488,3.99488 c -0.35355,0.353553 -0.35355,1.06066 0,0.707107 l 3.99488,-3.99488 c 0.35356,-0.353553 0.35356,0.353553 0,0.707107 l -3.99488,3.99488 c -0.35355,0.353553 -0.35355,1.06066 0,0.707107 l 3.99488,-3.99488 c 0.35356,-0.353553 0.35356,0.353553 0,0.707107 l -3.99488,3.99488 c -0.35355,0.353553 -0.35355,1.06066 0,0.707107 l 3.99488,-3.99488 c 0.35356,-0.353553 0.35356,0.353553 0,0.707107 l -3.99488,3.99488 c -0.35355,0.353553 -0.35355,1.06066 0,0.707107 l 3.99488,-3.99488 c 0.35356,-0.353553 0.35356,0.353553 0,0.707107 l -3.99488,3.99488 c -0.35355,0.353553 -0.35355,1.06066 0,0.707107 l 3.99488,-3.99488 c 0.35356,-0.353553 0.35356,0.353553 0,0.707107 l -3.99488,3.99488 c -0.35355,0.353553 -0.35355,1.06066 0,0.707107 l 3.99488,-3.99488 c 0.35356,-0.353553 0.35356,0.353553 0,0.707107 l -3.99488,3.99488 c -0.35355,0.353553 -0.35355,1.06066 0,0.707107 l 3.99488,-3.99488 c 0.35356,-0.353553 0.35356,0.353553 0,0.707107 l -4.00079,4.000798 c -0.35356,0.353553 -0.3775,1.0846 -0.0239,0.731047 l 4.02473,-4.024738 c 0.35356,-0.353553 0.35356,0.353553 0,0.707107 l -4.07967,4.079674 c -0.35355,0.353553 -0.53294,1.240051 -0.17939,0.886497 l 4.25906,-4.259064 c 0.35356,-0.353553 0.35356,0.353553 0,0.707107 l -6.53894,6.538942 c -0.35355,0.35355 -1.06066,0.35355 -0.7071,0 l 0.34837,-0.34837 c 0.35355,-0.35356 -0.50819,-0.19892 -0.86174,0.15463 l -0.19374,0.19374 c -0.35355,0.35355 -1.06066,0.35355 -0.70711,0 l 0.38734,-0.38733 c 0.0753,-0.0753 -0.63182,-0.0753 -0.70711,0 l -0.0565,0.0565 m 2.93951,0.59602 6.09699,-6.097001 c 0.35356,-0.353553 0.35481,0.352307 0.001,0.70586 l -5.12597,5.125981 c -0.35356,0.35355 0.35355,0.35355 0.7071,0 l 4.42914,-4.429141 c 0.35355,-0.353553 0.38037,0.326732 0.0268,0.680285 l -3.74885,3.748856 c -0.35355,0.35355 0.35355,0.35355 0.70711,0 l 3.10437,-3.104375 c 0.35355,-0.353553 0.42684,0.28026 0.0733,0.633814 l -2.47056,2.470561 c -0.35355,0.35355 0.35356,0.35355 0.70711,0 l 1.91023,-1.910236 c 0.35355,-0.353553 0.60975,0.09735 0.2562,0.450916 l -1.45932,1.45932 c -0.35355,0.35355 0.35355,0.35355 0.70711,0 l 1.10051,-1.10051 c 0.35355,-0.35356 0.76802,-0.0609 0.41446,0.29263 l -0.80787,0.80788 c -0.35355,0.35355 0.35355,0.35355 0.70711,0 l 0.57386,-0.57386 c 0.35355,-0.35356 0.87039,-0.16329 0.51684,0.19026 l -0.38359,0.3836 c -0.35356,0.35355 0.35355,0.35355 0.7071,0 l 0.2479,-0.2479 c 0.35355,-0.35356 0.99612,-0.28901 0.64257,0.0645 l -0.18336,0.18336 c -0.35355,0.35355 0.35355,0.35355 0.70711,0 l 0.17864,-0.17864 c 0.35355,-0.35356 0.88371,-0.17661 0.53016,0.17694 l -0.26686,0.26686"
           id="path107096" />
        <path
           d="m 221.50367,84.293577 h 15.51117 v -9.552908 q 0,-2.560573 -0.32007,-3.373063 -0.24621,-0.615523 -1.03408,-1.058699 -1.0587,-0.590901 -2.2405,-0.590901 h -1.18181 v -0.910974 h 14.28013 v 0.910974 h -1.18181 q -1.1818,0 -2.2405,0.56628 -0.78787,0.393935 -1.08332,1.206424 -0.27083,0.787869 -0.27083,3.249959 v 21.543286 q 0,2.535952 0.32007,3.348442 0.24621,0.615523 1.00946,1.058703 1.08332,0.5909 2.26512,0.5909 h 1.18181 v 0.91097 H 232.23838 V 101.282 h 1.18181 q 2.04353,0 2.97913,-1.20643 0.61552,-0.787866 0.61552,-3.791615 V 86.115524 h -15.51117 v 10.168431 q 0,2.535952 0.32007,3.348442 0.24621,0.615523 1.03408,1.058703 1.0587,0.5909 2.2405,0.5909 h 1.20643 v 0.91097 H 212.00001 V 101.282 h 1.1818 q 2.06816,0 3.00375,-1.20643 0.5909,-0.787866 0.5909,-3.791615 V 74.740669 q 0,-2.560573 -0.32007,-3.373063 -0.24621,-0.615523 -1.00946,-1.058699 -1.08332,-0.590901 -2.26512,-0.590901 h -1.1818 v -0.910974 h 14.30474 v 0.910974 h -1.20643 q -1.1818,0 -2.2405,0.56628 -0.76325,0.393935 -1.0587,1.206424 -0.29545,0.787869 -0.29545,3.249959 z"
           id="path105916"
           style="font-size:50.4236px;line-height:1.25;font-family:'Times New Roman';-inkscape-font-specification:'Times New Roman, ';display:inline;fill:none;stroke:#000000;stroke-width:0.264584;stroke-opacity:1" />
      </g>
    </g>
    <text
       xml:space="preserve"
       style="font-style:normal;font-variant:normal;font-weight:normal;font-stretch:normal;font-size:69.4947px;line-height:1.25;font-family:'Times New Roman';-inkscape-font-specification:'Times New Roman, ';display:none;opacity:0.97;fill:#faf5f7;fill-opacity:1;stroke:none;stroke-width:0.264582"
       x="160.57481"
       y="109.03532"
       id="text105811"><tspan
         sodipodi:role="line"
         id="tspan105809"
         style="font-style:normal;font-variant:normal;font-weight:normal;font-stretch:normal;font-size:69.4947px;font-family:'Times New Roman';-inkscape-font-specification:'Times New Roman, ';fill:#faf5f7;fill-opacity:1;stroke-width:0.264582"
         x="160.57481"
         y="109.03532">J</tspan></text>
    <text
       xml:space="preserve"
       style="font-style:normal;font-variant:normal;font-weight:normal;font-stretch:normal;font-size:41.2122px;line-height:1.25;font-family:'Times New Roman';-inkscape-font-specification:'Times New Roman, ';display:none;opacity:0.97;fill:#faf5f7;fill-opacity:1;stroke:none;stroke-width:0.264582"
       x="185.70308"
       y="97.00174"
       id="text105815"><tspan
         sodipodi:role="line"
         id="tspan105813"
         style="font-style:normal;font-variant:normal;font-weight:normal;font-stretch:normal;font-size:41.2122px;font-family:'Times New Roman';-inkscape-font-specification:'Times New Roman, ';fill:#faf5f7;fill-opacity:1;stroke-width:0.264582"
         x="185.70308"
         y="97.00174">&amp;</tspan></text>
    <text
       xml:space="preserve"
       style="font-style:normal;font-variant:normal;font-weight:normal;font-stretch:normal;font-size:64.1449px;line-height:1.25;font-family:'Times New Roman';-inkscape-font-specification:'Times New Roman, ';display:none;opacity:0.97;fill:#faf5f7;fill-opacity:1;stroke:none;stroke-width:0.264584"
       x="213.01674"
       y="105.493"
       id="text105819"><tspan
         sodipodi:role="line"
         id="tspan105817"
         style="font-style:normal;font-variant:normal;font-weight:normal;font-stretch:normal;font-size:64.1449px;font-family:'Times New Roman';-inkscape-font-specification:'Times New Roman, ';fill:#faf5f7;fill-opacity:1;stroke-width:0.264584"
         x="213.01674"
         y="105.493">H</tspan></text>
  </g>
  <plotdata
     application="axidraw"
     model="2"
     layer="-2"
     node="0"
     last_path="0"
     node_after_path="0"
     last_known_x="0"
     last_known_y="0"
     paused_x="0"
     paused_y="0"
     randseed="0"
     row="0"
     id="1729952005" />
</svg>
