<?xml version="1.0" encoding="UTF-8" standalone="no"?>
<!-- Created with Inkscape (http://www.inkscape.org/) -->

<svg
   sodipodi:docname="maze-4.svg"
   inkscape:version="1.2.1 (9c6d41e, 2022-07-14)"
   id="svg74140"
   version="1.1"
   viewBox="0 0 297 420"
   height="420mm"
   width="297mm"
   xmlns:inkscape="http://www.inkscape.org/namespaces/inkscape"
   xmlns:sodipodi="http://sodipodi.sourceforge.net/DTD/sodipodi-0.dtd"
   xmlns="http://www.w3.org/2000/svg"
   xmlns:svg="http://www.w3.org/2000/svg">
  <sodipodi:namedview
     id="namedview74142"
     pagecolor="#ffffff"
     bordercolor="#666666"
     borderopacity="1.0"
     inkscape:showpageshadow="2"
     inkscape:pageopacity="0.0"
     inkscape:pagecheckerboard="0"
     inkscape:deskcolor="#d1d1d1"
     inkscape:document-units="mm"
     showgrid="true"
     showguides="true"
     inkscape:zoom="5.0906322"
     inkscape:cx="543.84208"
     inkscape:cy="212.1544"
     inkscape:window-width="1512"
     inkscape:window-height="858"
     inkscape:window-x="586"
     inkscape:window-y="1478"
     inkscape:window-maximized="1"
     inkscape:current-layer="layer7">
    <inkscape:grid
       type="xygrid"
       id="grid74261"
       units="mm"
       spacingx="2.5"
       spacingy="2.5" />
  </sodipodi:namedview>
  <defs
     id="defs74137" />
  <g
     inkscape:label="1 maze"
     inkscape:groupmode="layer"
     id="layer1">
    <path
       id="rect82198-7"
       style="display:inline;fill:none;fill-opacity:1;stroke:#ff0002;stroke-width:0.264583;stroke-linecap:square;stroke-dasharray:none;stroke-opacity:1;stop-color:#000000"
       d="m 106.49996,25.664583 v 25.835633 h 19.5001 v 9.999906 h 11.50007 21.49998 V 41.000081 h -38.00026 v 8.000029 h 7.50032 v 9.999906 h 0.49971 V 47.499943 43.500187 h -0.49971 v 3.999756 0.999939 h -2.0004 v -0.999939 -6.000151 h 4.49999 v 6.000151 13.499951 h -4.49999 v -9.999906 h -7.4998 V 39.000203 h 42.00002 v 22.499919 h 0.50023 V 39.000203 h 66.99953 17.50022 V 63.5 h -7.4998 v 10.500134 h 0.49971 v -9.999906 h 7.00009 v 19.499585 h -7.00009 v -4.999695 h -0.49971 v 4.999695 h -4.49998 V 62.500061 61.500122 h 1.99988 v 0.999939 18.999874 h 0.49971 V 76.50024 h 4.49998 v 4.999695 h 3.00033 V 66.000106 h -3.00033 v 9.999906 h -4.49998 v -14.49989 h 7.50031 v -0.500228 h -10.50013 v 14.000179 8.49974 h -3.50005 -0.99993 v -1.999878 h 0.99993 1.50017 V 75.000073 59.000016 h 12.50001 v -0.500228 h -7.50031 V 47.499943 46.500004 h 2.00039 v 0.999939 8.999967 h 5.49992 v -0.499711 h -5.00021 V 45.999776 h -2.99981 v 12.500012 h -5.00022 v 21.49998 1.000456 h -1.99987 V 79.999768 56.49991 h 5.00021 V 43.999898 h 6.99957 v 9.999907 h 3.00033 V 41.000081 h -15.50034 v 12.999724 h 3.00033 V 43.500187 h -0.50023 v 8.999968 0.999939 h -1.99987 V 52.500155 41.499792 h 4.49998 9.99991 v 11.000363 0.999939 h -1.99988 v -0.999939 -8.999968 h -8.00003 v 12.500012 h -5.00021 v 82.499871 h -49.99953 v 0.49971 h 12.50001 v 7.50032 h 9.9999 v 17 h -36.00038 -8.49974 v -15.00012 h -2.99982 v 20.50004 h 56.49991 0.99994 v 1.99988 h -0.99994 -58.5003 v -24.4998 h 7.00009 v 15.00012 h 6.49986 34.00051 v -13.00024 h -10.00043 v -7.4998 h -12.50001 v -4.49998 h 50.00005 V 56.000199 53.999805 41.000081 H 163.5001 v 20.500041 47.499948 h 35.50016 v -8.00003 H 171.50013 V 88.500024 h -0.50023 v 12.999726 h 27.50013 v 7.00009 H 163.99981 V 41.499792 h 36.00039 25.99996 v 2.500106 0.999939 3.500045 H 170.9999 v 37.500037 h -2.50011 v 17.999931 h 26.50019 0.99994 v 2.0004 h -0.99994 -28.50007 V 85.999919 84.99998 47.499943 46.500004 h 1.99988 v 0.999939 36.500098 h 0.50023 V 46.500004 h 54.99974 v -0.500228 h -56.49991 -0.99994 v -1.999878 h 0.99994 56.49991 v -0.499711 h -23.99956 -34 v 62.999773 h 30.49995 v -2.99982 H 169.00002 V 86.500146 h 2.50011 V 49.00011 h 54.50003 v 63.5 23.49986 h -50.00005 v 5.49992 h 12.50001 v 7.50032 h 9.99991 v 11.99978 h -39.49992 v -15.00012 h -8.00002 v 25.50026 h 60.49966 v -15.50035 h -0.49971 v 12.50001 H 153.9999 v -18.49964 -0.99994 h 1.99988 v 0.99994 16.49976 h 53.00038 V 153.9999 h 2.49959 v -0.49971 h -2.49959 V 144 h 14.9996 v -0.50023 h -18.99987 -0.99994 v -1.99988 h 0.99994 21.00027 V 144 h 0.49971 v -2.99982 h -33.00005 v 0.49971 h 10.00042 v 24.50031 h -36.00039 -0.99994 v -2.00039 h 0.99994 34 v -20.50004 h -9.99991 v -4.49999 h 36.99981 v 7.00009 h -17.49971 v 5.49993 h 0.49971 v -0.49971 -0.99994 -3.50005 h 17.50023 V 84.000041 H 246.5002 V 39.000203 h 11.99978 v 44.999838 0.999939 18.50016 h -2.5001 v 27.49962 h -7.4998 v 20.50004 h 8.00003 v -17.99994 h -5.49993 v 0.50023 h 4.9997 v 17 h -4.49999 v -13.49996 -0.99993 h 1.99988 v 0.99993 11.50008 H 254 v -13.00024 h -2.99982 v 14.00018 0.99994 h -2.00039 v -0.99994 -14.00018 -1.99988 -2.50011 h 7.50032 v -26.50019 -0.99994 h 1.99987 v 0.99994 48.5004 H 246.5002 V 128.99988 H 254 v -27.50013 h 2.50011 V 85.999919 h -0.50023 v 15.000121 h -2.50011 v 27.50013 h -7.4998 v 25.49973 h 12.50001 v 69.50015 h -19.5001 v -2.5001 -1.99988 -8.00003 h -40.49985 v 6.49986 0.99994 h -1.99988 v -0.99994 -3.99975 h -8.00003 v 6.49986 0.99994 h -1.99988 v -0.99994 -8.50026 h 9.99991 v -2.49959 h 44.49961 v 9.99991 h 0.50023 V 208.49993 H 207.5 206.50006 v -1.99987 H 207.5 243.49987 v 14.49989 h -2.50011 v 0.50022 h 15.50035 v -65.50039 h -12.50002 v -29.50001 h 7.4998 V 99.000159 H 254 V 84.000041 h 2.50011 v -42.99996 h -8.00003 v 44.999838 h -17.50023 v 62.500061 h -17.4997 v 0.50023 h 17.99993 V 86.500146 h 17 v 36.999814 h -7.50032 v 38.00026 h 7.50032 v 42.00002 h -26.99991 v -5.00021 h -34.99993 v -2.50011 -1.99988 -2.5001 h 23.49986 0.99994 v 1.99988 h -0.99994 -21.49998 v 0.50022 h 11.50008 0.99993 v 1.99988 h -0.99993 -11.50008 v 0.50023 h 34.99993 v 4.9997 H 246.5002 V 163.5001 h -3.00033 v 8.99997 0.99993 h -1.99988 v -0.99993 -8.99997 h -0.50023 v 10.50013 h 2.50011 v 24.4998 h -17.49971 v 0.50023 h 18.99987 0.99994 v 1.99987 h -0.99994 -21.00027 v -4.49998 h 17.50023 v -20.50004 h -0.50023 v 19.99981 h -25.99996 -3.50005 v -4.99969 h -32.99953 v 0.49971 h 7.4998 v 16.99999 h -2.50011 v 10.50014 h 0.50023 v -9.99991 h 2.5001 v -9.9999 h 34.49971 v 4.49998 h -12.50002 v 0.49971 h 40.49986 v -45.50006 h -7.4998 v -34.49971 h 7.4998 V 96.500053 h 2.5001 V 83.499813 82.499874 44.999837 43.999898 h 1.99988 v 0.999939 36.500098 H 254 V 43.500187 h -2.99982 v 51.499699 0.999939 h -2.00039 V 94.999886 41.499792 h 7.00009 v 42.000021 h -2.50011 v 15.000118 h -2.49959 v 27.500129 h -7.50031 v 30.49995 h 7.50031 v 47.49994 0.99994 6.49986 h 4.9997 v 9.5002 h -11.99979 v -14.49989 h 3.50005 0.99994 v 1.99987 h -0.99994 -1.50017 v 10.50014 H 254 v -5.49992 h -2.99982 v 2.99981 h 0.49971 v -1.50016 -0.99994 h 1.99988 v 0.99994 3.50004 h -4.49998 v -4.99969 -0.99994 -1.00046 -5.49992 h -42.49973 v -4.49998 h 12.50001 v -0.49972 h -27.99984 v 8.00003 h 3.99975 0.99994 v 1.99988 h -0.99994 -6.00015 v -9.99991 h -0.49971 v 9.99991 h -2.5001 v 9.99991 h -4.49999 v -14.49989 h 2.50011 v -13.00024 h -5.49992 v 28.00035 h 0.49971 v -27.50013 h 4.49998 v 10.99985 0.99994 h -1.99988 v -0.99994 -8.99997 h -0.50023 v 25.50025 h 15.50035 v -1.50016 -0.99994 h 1.99988 v 0.99994 3.50004 h -22.00021 v -30.00023 -1.99988 -2.50011 h 37.00033 v 5.00021 h 0.49971 v -5.49992 h -37.99975 v 21.49998 13.99966 h 23.00015 v -12.50001 h 39.49991 v 12.50001 h 32.83521 V 25.664583 Z M 173.5,50.999988 v 48.000171 h 27.50013 V 110.99994 H 161.50022 V 63.5 h -24.00009 -11.50007 v 10.500134 h 25.00003 v 14.49989 h -25.00003 v 10.500135 h 0.49971 v -7.500318 h 27.50013 v -20.50004 h -24.00008 -0.99994 v -1.999878 h 0.99994 25.99996 v 24.500313 h -27.49961 v 5.499923 h 29.99972 v 17.499711 h 25.00002 v 16.99999 H 173.5 V 144 h 12.50002 v 7.4998 h 9.9999 v 7.00009 h -34.4997 v -19.99982 h -23.00015 v 87.9998 h 29.99972 v 7.50032 h 55.49997 v -19.00039 -0.99994 h 2.0004 v 0.99994 19.00039 h 2.49959 v 2.49959 h 3.00033 v -7.4998 h 4.49999 v 9.9999 h 20.50004 v -10.50013 h -17.99994 v 8.00003 H 254 v -5.49993 h -14.00018 -0.99994 v -1.99987 h 0.99994 16.00006 v 9.50019 h -19.5001 v -10.00042 h -2.49959 v -12.4995 h -5.50044 v 15.49983 h 0.50023 v -15.00012 h 4.49998 v 10.99985 0.99994 h -1.99988 v -0.99994 -8.99997 h -0.50023 v 15.00012 h -4.49998 v -19.5001 h 9.5002 v 12.50001 h 22.49991 v 14.49989 h -22.49991 -74.49985 v -7.4998 h -33.00005 v 2.50011 h -5.00021 v 2.99981 h 35.50015 v -2.99981 h -0.50022 v 2.5001 h -33.49977 -0.99994 v -2.00039 h 0.99994 31.49989 v -2.49959 h 4.49998 v 6.99957 h -39.49991 v -4.99969 -0.99994 -0.99994 -30.00024 h 4.49998 v 7.4998 h 0.49971 v -7.4998 h 7.00009 v 26.9999 h -7.00009 v -2.5001 -0.99994 -12.50001 -0.99994 h 2.0004 v 0.99994 11.50007 h 0.49971 V 207.5 206.50006 h 1.99988 V 207.5 228.49975 h -2.49959 v 0.50023 h 2.99981 v -23.00015 h -2.99981 v 7.50032 h -2.50011 v 18.99987 0.99994 h -1.99988 v -0.99994 -18.99987 -2.0004 -5.49992 h -0.50022 v 28.00036 h 2.99981 v -2.50011 h 37.00033 v 7.4998 h 70.50009 v -8.00003 h -0.50023 v 7.50032 h -5.00021 -64.49994 v -7.50032 H 134.00009 V 203.50024 H 121.50008 V 101.49975 h 34.4997 v 17.50022 h 25.00002 v 11.99979 h -9.9999 v 15.50034 h 12.50001 v 7.4998 h 8.99997 0.99994 v 1.99988 h -0.99994 -10.99985 v -7.4998 h -12.50001 v -19.5001 h 2.50011 v -5.49992 H 151.4998 v -17.49971 h -25.49974 v 62.99977 h 5.49992 v -37.50004 h 10.99985 0.99994 v 1.99988 h -0.99994 -8.99997 v 37.50004 h -9.49968 v -67.00005 h 29.50001 v 17.50023 H 173.5 v 7.4998 h 5.49993 v -8.00003 H 153.9999 v -17.49971 h -30.49994 v 97.99971 h 12.50001 v 27.50013 h 30.00023 v 7.4998 h 60.49967 v -0.49971 h -0.49971 -59.50025 v -7.50032 H 136.5002 v -49.99953 h -0.50023 v 11.49955 1.00046 h -1.99988 v -1.00046 -13.49995 h 2.50011 v -0.49971 h -8.00003 v 20.50004 h 0.49971 v -20.00033 h 4.49998 v 13.49995 1.00046 h -1.99988 v -1.00046 -11.49955 h -0.50022 v 19.99981 h -4.49999 v -24.4998 H 136.5002 V 136.5002 h 26.9999 v 19.99981 h 15.49983 v -5.49992 h -12.50002 v -20.00033 h -20.50004 v 5.00021 h -9.9999 V 173.5 h -9.99991 v 25.50026 h 8.00003 v -3.00034 h -0.50023 v 1.50017 0.99994 h -1.99988 v -0.99994 -3.50005 h 3.50005 0.99994 v 0.99994 6.00015 h -11.99979 v -29.5 h 9.99991 V 134.00009 H 144 v -3.00033 h -13.00024 v 37.50003 h -4.49999 v -61.99983 h 24.50032 v 17.50022 h 19.99981 v 4.49999 H 128.99988 V 110 109.00007 h 1.99988 V 110 126.49977 h 38.00026 v -0.49971 h -19.99981 v -17.50022 h -0.50023 v 17.50022 h -17 v -17.50022 h -2.99981 v 58.00007 h 0.49971 v -37.50003 h 16.00005 23.49986 v 20.00033 h 12.50001 v 7.4998 h 13.00024 v -2.99982 h -9.9999 v -7.50032 h -12.50001 v -14.49989 h 9.9999 v -13.00024 h -25.00002 v -17.4997 H 124.00018 V 86.500146 h 25.00003 V 76.000012 H 124.00018 V 63.5 62.500061 61.500122 56.000199 h -0.50022 V 76.50024 h 25.00002 v 9.499679 h -25.00002 v 14.000181 0.99994 h -1.99988 V 100.0001 84.000041 h 7.4998 v -0.500228 h -6.49986 -0.99994 v -1.999878 h 0.99994 8.49974 v 2.500106 h 15.50034 v -5.499923 h -15.50034 v 2.500106 h -9.99991 v 158.999596 0.99994 h -1.99988 V 239.99982 81.000224 79.999768 78.999829 54.999744 53.999805 h 1.99988 v 0.999939 24.000085 h 8.00003 v -0.499711 h -7.4998 V 53.999805 h 2.5001 V 53.500094 H 106.49996 V 254 h 164.83542 v -27.99984 h -34.8356 v -12.50001 h -35.49965 v 12.50001 h -26.9999 V 210.0001 186.50024 h 42.00002 v 7.4998 h 22.99963 v -17.99993 -1.99988 -10.50013 -0.99994 -41.00008 h 7.50032 V 88.500024 h -13.00024 v 60.500186 h 0.50023 V 89.000252 h 11.99978 V 110 v 0.99994 h -1.99988 V 110 93.500236 h -5.49992 v 25.499734 h 5.49992 v -0.50023 h -5.00021 V 97.499992 96.500053 h 1.99988 v 0.999939 18.999878 h 3.00033 v -2.99982 h -2.5001 V 95.999825 h -1.50017 -0.99994 v -1.999878 h 0.99994 3.50005 v 17.500223 h 2.5001 v 9.49968 h -7.4998 v 32.50034 h -22.49992 v 10.49962 h 0.49971 v -9.99991 h 22.00021 v 39.49992 h -22.00021 v -7.4998 H 173.5 v 32.49982 h -19.5001 v -19.49958 h 7.50032 V 176.00011 H 146.5001 v -34.50022 h 12.50001 v -0.49971 h -17.99993 v 82.99958 h 29.99972 v 7.50032 h 38.00026 v -9.99991 h 7.00009 v 8.49974 0.99994 h -2.00039 v -0.99994 -6.49986 h -2.99982 v 8.00003 h 5.49992 v -10.50013 h -8.00003 v 8.99996 0.99994 h -1.99987 v -0.99994 -10.99984 h 11.99978 v 12.50001 h 3.00033 v -15.49983 h -17.99993 v 12.4995 h -15.00012 v 0.50023 h 15.49983 v -12.50002 h 17 v 13.49995 0.99994 h -1.99988 v -0.99994 -11.50007 h -13.00024 v 12.50001 h -19.49959 v -2.5001 h -15.00011 v -7.4998 H 151.4998 v -24.4998 h 7.50031 v -0.50023 H 144 v -52.50015 h -0.50023 v 53.00038 h 7.50032 v 26.9999 h -9.5002 v -24.49979 h 7.00009 v 21.99969 H 144 v -8.49974 -1.00046 h 1.99987 v 1.00046 6.49986 h 0.50023 v -17.99994 h -3.00033 v 20.50004 h 5.50044 v -23.00014 h -7.50032 v -57.00014 h 4.49998 v 52.50015 h 15.00012 v 4.49999 h -7.4998 v 20.50004 H 173.5 v 7.4998 h 27.99985 v -12.50001 h 22.0002 v 19.5001 h -54.50003 v -7.4998 h -30.00024 v -87.00038 h 22.00021 v 4.49999 h -12.50001 v 30.50046 h 15.00012 v 26.9999 h -7.50032 v 15.49983 h 15.50035 v -32.49982 h 46.99971 3.00033 v -5.00021 h 6.99958 v 7.00009 h -4.49999 v -3.50005 -0.99994 h 2.0004 v 0.99994 1.50017 h 0.49971 v -3.00034 h -2.99982 v 5.00022 h -5.00021 v 5.49992 h 17.99994 v -35.50016 h -17.99994 v 10.00042 h -4.49998 v -14.5004 h 22.49992 v -30.49995 -0.99994 -0.99994 -27.500129 h 7.50031 V 91.00013 h -8.00002 v 59.99996 h -2.50011 -19.99981 v 20.50004 h 0.49971 v -5.00022 h 4.49998 v 5.00022 h 0.50023 v -15.00012 h 13.49995 0.99994 v 1.99988 h -0.99994 -11.50007 V 173.5 h -4.49999 v -5.00021 h -0.49971 V 173.5 h -2.5001 -15.00012 v 0.50023 h 33.00005 v -13.00024 h -8.99997 -0.99994 v -1.99988 h 0.99994 10.99985 v 15.00012 5.99964 0.99993 h -1.99988 v -0.99993 -3.99976 H 196.50015 V 173.5 H 173.5 v 8.00003 h 45.50007 v -5.00021 h 11.99978 v 5.00021 h 3.00034 v -24.00008 -0.99994 h 1.99988 v 0.99994 25.99996 h -5.00022 v 0.50023 h 5.00022 v 7.00009 h -4.49999 v -3.50005 -0.99994 h 1.99988 v 0.99994 1.49965 h 0.50023 v -2.99981 h -5.00021 v -2.50011 -0.99994 -0.99994 -2.99981 h -8.00003 v 4.99969 H 171.50013 V 173.5 h -5.49993 v 30.00024 h -7.50031 v 0.49971 h 8.00002 v -29.99972 h 4.49999 v 40.99957 1.00045 h -1.99988 v -1.00045 -38.99969 h -0.50023 v 29.99972 h -11.99978 v -4.49998 h 7.4998 V 173.5 h -14.9996 V 144 h 11.99978 v 15.00011 h 35.50016 v -8.00002 h -9.99991 v -7.50032 h -12.50001 v -9.49968 h 9.99991 v -8.00003 -1.99988 -8.00003 h -25.00003 v -2.5001 -1.99988 -45.500064 h -30.49994 v 5.499922 h 25.00002 V 91.00013 h -25.99996 -1.00046 v -1.999878 h 1.00046 23.99957 V 73.499906 h -25.00003 v -9.499678 h 34.50022 v 47.499942 h 27.50013 v 10.99985 0.99994 h -1.99988 v -0.99994 -8.99997 h -25.50025 v 0.49971 h 25.00003 v 10.00042 h 15.49983 V 98.499931 h -22.49992 v -9.499679 h 27.50013 v -8.000028 h -8.00003 v 6.499861 0.999939 h -1.99988 v -0.999939 -8.500256 h 11.99978 v 10.000423 2.499589 h 7.50032 v 34.500219 h -6.00015 -0.99994 v -1.99988 h 0.99994 3.99976 V 93.500236 h -5.49993 v 34.999934 h -19.99981 v 0.49971 h 20.50004 v -2.50011 h 7.4998 V 91.00013 h -7.4998 V 78.500118 h -13.00024 v 8.999967 0.999939 h -1.99988 V 87.500085 76.50024 h 17 v 12.500012 h 7.4998 v 39.499918 h -7.4998 v 0.49971 h 8.00003 V 88.500024 h -7.50032 V 76.000012 h -10.49962 -1.99987 -5.50044 v 12.500012 h -17 V 61.500122 h 17.50022 v -5.499923 h -15.49982 v 2.999817 h 12.99972 V 57.499849 56.49991 h 1.99988 v 0.999939 3.500045 h -17 v -7.000089 h 19.5001 v 7.500317 h 0.50023 v -8.000028 h -20.50004 v 42.999959 h 0.49971 v -6.499862 -0.999939 h 2.0004 v 0.999939 8.49974 h -4.49999 V 51.500216 h 23.49986 25.99996 v 81.999644 h -35.99987 -0.99994 v -1.99988 h 0.99994 33.99999 V 53.500094 H 198.50003 V 63.5 h -19.99981 v 23.000146 h 12.99972 V 74.000134 h 7.50032 V 66.000106 H 180.9998 v 0.499711 h 17.50023 v 7.000089 h -4.49999 v -2.500105 h -0.50022 v 1.500166 0.999939 h -1.99988 v -0.999939 -3.500044 h 4.49998 v 2.500105 h 0.50023 v -2.999816 h -17.50022 v -4.499984 h 22.0002 v 9.999906 h 12.50002 v 12.500012 h 5.49992 V 56.000199 h -18.99987 -0.99994 v -2.000394 h 0.99994 20.99975 v 32.500341 44.499614 h -34.49971 v -4.49999 h 17.49971 V 93.500236 h -0.49971 v 1.49965 0.999939 h -2.00039 v -0.999939 -3.500045 h 4.49998 v 34.999929 h 0.50023 V 93.500236 91.499841 91.00013 H 180.9998 v 5.499923 h 22.50044 v 29.500007 h -17.50022 v 8.00003 h 37.99974 V 112.50011 50.999988 Z m -40.00014,57.499852 v 15.50034 h 13.00024 v -15.50034 z" />
  </g>
  <g
     inkscape:groupmode="layer"
     id="layer6"
     inkscape:label="hidden">
    <rect
       style="display:none;fill:none;fill-opacity:1;stroke:#ff0002;stroke-width:0.264583;stroke-linecap:square;stroke-dasharray:none;stroke-opacity:1;stop-color:#000000"
       id="rect82198-7-6"
       width="139.43541"
       height="202.93542"
       x="119.2"
       y="38.364578" />
    <rect
       style="display:inline;fill:none;fill-opacity:1;stroke:#ff0002;stroke-width:0.264583;stroke-linecap:square;stroke-dasharray:none;stroke-opacity:1;stop-color:#000000"
       id="rect82198"
       width="215.89999"
       height="279.39999"
       x="80.967712"
       y="0.1322915" />
  </g>
  <g
     inkscape:groupmode="layer"
     id="layer5"
     inkscape:label="2 fills">
    <rect
       style="display:none;fill:#235d00;fill-opacity:1;stroke:#376402;stroke-width:2;stroke-linecap:square;stroke-dasharray:none;stroke-opacity:1;stop-color:#000000"
       id="rect87098"
       width="2.5"
       height="27.499996"
       x="210"
       y="95" />
    <rect
       style="display:none;fill:#235d00;fill-opacity:1;stroke:#376402;stroke-width:2;stroke-linecap:square;stroke-dasharray:none;stroke-opacity:1;stop-color:#000000"
       id="rect87096"
       width="10"
       height="10"
       x="190"
       y="112.49999"
       inkscape:label="rect87096" />
    <rect
       style="display:none;fill:#235d00;fill-opacity:1;stroke:#376402;stroke-width:2;stroke-linecap:square;stroke-dasharray:none;stroke-opacity:1;stop-color:#000000"
       id="rect87094"
       width="5"
       height="5"
       x="200"
       y="82.5"
       inkscape:label="rect87094" />
    <g
       id="g88506">
      <path
         style="color:#000000;display:none;fill:#376402;stroke-linecap:square;-inkscape-stroke:none"
         d="m 181.5,91.5 c 0,1.5 0,3 0,4.5 H 201 v -4.5 z"
         id="rect86936"
         sodipodi:nodetypes="ccccc" />
      <path
         style="stroke:#000000;fill:none;stroke-width:1.0"
         d="M 183.291669,91.800000 l -1.491669,1.491669 M 181.800000,95.412989 l 3.612989,-3.612989 M 187.534309,91.800000 l -3.900000,3.900000 M 185.755629,95.700000 l 3.900000,-3.900000 M 191.776949,91.800000 l -3.900000,3.900000 M 189.998269,95.700000 l 3.900000,-3.900000 M 196.019589,91.800000 l -3.900000,3.900000 M 194.240909,95.700000 l 3.900000,-3.900000 M 200.262229,91.800000 l -3.900000,3.900000 M 198.483549,95.700000 l 2.216451,-2.216451"
         id="path88504" />
    </g>
  </g>
  <g
     inkscape:groupmode="layer"
     id="layer7"
     inkscape:label="3 fills">
    <g
       id="g89159"
       style="display:none">
      <path
         style="display:inline;fill:none;fill-opacity:1;stroke:#376402;stroke-width:0.3;stroke-linecap:square;stroke-dasharray:none;stroke-opacity:1;stop-color:#000000"
         d="m 180,69.999999 v 14.999999 h 10 V 69.999999 Z"
         id="path89121" />
      <path
         style="fill:none;stroke:#376402;stroke-width:0.3"
         d="m 181.02424,70.000999 -1.02324,1.023243 m 0,1.272792 2.29603,-2.296035 m 1.2728,0 -3.56883,3.568827 m 0,1.272793 4.84162,-4.84162 m 1.27279,0 -6.11441,6.114412 m 0,1.272792 7.3872,-7.387204 m 1.2728,0 -8.66,8.659996 m 0,1.272792 9.93279,-9.932788 m 0.0652,1.20758 -9.998,9.998 m 0,1.272792 9.998,-9.998 m 0,1.272792 -9.998,9.998 m 0.026,1.246835 9.97204,-9.972043 m 0,1.272792 -8.69925,8.699251 m 1.27279,0 7.42646,-7.426459 m 0,1.272792 -6.15367,6.153667 m 1.27279,0 4.88088,-4.880875 m 0,1.272792 -3.60808,3.608083 m 1.27279,0 2.33529,-2.335291 m 0,1.272792 -1.0625,1.062499"
         id="path89157" />
    </g>
    <g
       id="g89211"
       style="display:inline">
      <g
         id="g89405">
        <path
           style="display:inline;fill:none;fill-opacity:1;stroke:#376402;stroke-width:0.3;stroke-linecap:square;stroke-dasharray:none;stroke-opacity:1;stop-color:#000000"
           d="M 118.99997,53.999804 106.49996,53.500093 V 254 h 164.8354 v -27.99984 l -12.83538,0.49971 v 14.49989 H 118.99997 Z"
           id="path89167" />
        <path
           style="stroke:#376402;fill:none;stroke-width:0.3"
           d="M 107.919303,53.757994 l -1.218343,1.218343 M 106.700960,56.249129 l 2.442209,-2.442209 M 110.367034,53.855847 l -3.666074,3.666074 M 106.700960,58.794713 l 4.889940,-4.889940 M 112.814766,53.953700 l -6.113806,6.113806 M 106.700960,61.340297 l 7.337672,-7.337672 M 115.262497,54.051552 l -8.561537,8.561537 M 106.700960,63.885882 l 9.785403,-9.785403 M 117.710229,54.149405 l -11.009269,11.009269 M 106.700960,66.431466 l 12.098010,-12.098010 M 118.798970,55.606248 l -12.098010,12.098010 M 106.700960,68.977050 l 12.098010,-12.098010 M 118.798970,58.151832 l -12.098010,12.098010 M 106.700960,71.522634 l 12.098010,-12.098010 M 118.798970,60.697416 l -12.098010,12.098010 M 106.700960,74.068218 l 12.098010,-12.098010 M 118.798970,63.243000 l -12.098010,12.098010 M 106.700960,76.613802 l 12.098010,-12.098010 M 118.798970,65.788584 l -12.098010,12.098010 M 106.700960,79.159386 l 12.098010,-12.098010 M 118.798970,68.334168 l -12.098010,12.098010 M 106.700960,81.704970 l 12.098010,-12.098010 M 118.798970,70.879752 l -12.098010,12.098010 M 106.700960,84.250554 l 12.098010,-12.098010 M 118.798970,73.425337 l -12.098010,12.098010 M 106.700960,86.796139 l 12.098010,-12.098010 M 118.798970,75.970921 l -12.098010,12.098010 M 106.700960,89.341723 l 12.098010,-12.098010 M 118.798970,78.516505 l -12.098010,12.098010 M 106.700960,91.887307 l 12.098010,-12.098010 M 118.798970,81.062089 l -12.098010,12.098010 M 106.700960,94.432891 l 12.098010,-12.098010 M 118.798970,83.607673 l -12.098010,12.098010 M 106.700960,96.978475 l 12.098010,-12.098010 M 118.798970,86.153257 l -12.098010,12.098010 M 106.700960,99.524059 l 12.098010,-12.098010 M 118.798970,88.698841 l -12.098010,12.098010 M 106.700960,102.069643 l 12.098010,-12.098010 M 118.798970,91.244425 l -12.098010,12.098010 M 106.700960,104.615227 l 12.098010,-12.098010 M 118.798970,93.790009 l -12.098010,12.098010 M 106.700960,107.160812 l 12.098010,-12.098010 M 118.798970,96.335594 l -12.098010,12.098010 M 106.700960,109.706396 l 12.098010,-12.098010 M 118.798970,98.881178 l -12.098010,12.098010 M 106.700960,112.251980 l 12.098010,-12.098010 M 118.798970,101.426762 l -12.098010,12.098010 M 106.700960,114.797564 l 12.098010,-12.098010 M 118.798970,103.972346 l -12.098010,12.098010 M 106.700960,117.343148 l 12.098010,-12.098010 M 118.798970,106.517930 l -12.098010,12.098010 M 106.700960,119.888732 l 12.098010,-12.098010 M 118.798970,109.063514 l -12.098010,12.098010 M 106.700960,122.434316 l 12.098010,-12.098010 M 118.798970,111.609098 l -12.098010,12.098010 M 106.700960,124.979900 l 12.098010,-12.098010 M 118.798970,114.154682 l -12.098010,12.098010 M 106.700960,127.525484 l 12.098010,-12.098010 M 118.798970,116.700266 l -12.098010,12.098010 M 106.700960,130.071069 l 12.098010,-12.098010 M 118.798970,119.245851 l -12.098010,12.098010 M 106.700960,132.616653 l 12.098010,-12.098010 M 118.798970,121.791435 l -12.098010,12.098010 M 106.700960,135.162237 l 12.098010,-12.098010 M 118.798970,124.337019 l -12.098010,12.098010 M 106.700960,137.707821 l 12.098010,-12.098010 M 118.798970,126.882603 l -12.098010,12.098010 M 106.700960,140.253405 l 12.098010,-12.098010 M 118.798970,129.428187 l -12.098010,12.098010 M 106.700960,142.798989 l 12.098010,-12.098010 M 118.798970,131.973771 l -12.098010,12.098010 M 106.700960,145.344573 l 12.098010,-12.098010 M 118.798970,134.519355 l -12.098010,12.098010 M 106.700960,147.890157 l 12.098010,-12.098010 M 118.798970,137.064939 l -12.098010,12.098010 M 106.700960,150.435741 l 12.098010,-12.098010 M 118.798970,139.610523 l -12.098010,12.098010 M 106.700960,152.981326 l 12.098010,-12.098010 M 118.798970,142.156108 l -12.098010,12.098010 M 106.700960,155.526910 l 12.098010,-12.098010 M 118.798970,144.701692 l -12.098010,12.098010 M 106.700960,158.072494 l 12.098010,-12.098010 M 118.798970,147.247276 l -12.098010,12.098010 M 106.700960,160.618078 l 12.098010,-12.098010 M 118.798970,149.792860 l -12.098010,12.098010 M 106.700960,163.163662 l 12.098010,-12.098010 M 118.798970,152.338444 l -12.098010,12.098010 M 106.700960,165.709246 l 12.098010,-12.098010 M 118.798970,154.884028 l -12.098010,12.098010 M 106.700960,168.254830 l 12.098010,-12.098010 M 118.798970,157.429612 l -12.098010,12.098010 M 106.700960,170.800414 l 12.098010,-12.098010 M 118.798970,159.975196 l -12.098010,12.098010 M 106.700960,173.345999 l 12.098010,-12.098010 M 118.798970,162.520781 l -12.098010,12.098010 M 106.700960,175.891583 l 12.098010,-12.098010 M 118.798970,165.066365 l -12.098010,12.098010 M 106.700960,178.437167 l 12.098010,-12.098010 M 118.798970,167.611949 l -12.098010,12.098010 M 106.700960,180.982751 l 12.098010,-12.098010 M 118.798970,170.157533 l -12.098010,12.098010 M 106.700960,183.528335 l 12.098010,-12.098010 M 118.798970,172.703117 l -12.098010,12.098010 M 106.700960,186.073919 l 12.098010,-12.098010 M 118.798970,175.248701 l -12.098010,12.098010 M 106.700960,188.619503 l 12.098010,-12.098010 M 118.798970,177.794285 l -12.098010,12.098010 M 106.700960,191.165087 l 12.098010,-12.098010 M 118.798970,180.339869 l -12.098010,12.098010 M 106.700960,193.710671 l 12.098010,-12.098010 M 118.798970,182.885453 l -12.098010,12.098010 M 106.700960,196.256256 l 12.098010,-12.098010 M 118.798970,185.431038 l -12.098010,12.098010 M 106.700960,198.801840 l 12.098010,-12.098010 M 118.798970,187.976622 l -12.098010,12.098010 M 106.700960,201.347424 l 12.098010,-12.098010 M 118.798970,190.522206 l -12.098010,12.098010 M 106.700960,203.893008 l 12.098010,-12.098010 M 118.798970,193.067790 l -12.098010,12.098010 M 106.700960,206.438592 l 12.098010,-12.098010 M 118.798970,195.613374 l -12.098010,12.098010 M 106.700960,208.984176 l 12.098010,-12.098010 M 118.798970,198.158958 l -12.098010,12.098010 M 106.700960,211.529760 l 12.098010,-12.098010 M 118.798970,200.704542 l -12.098010,12.098010 M 106.700960,214.075344 l 12.098010,-12.098010 M 118.798970,203.250126 l -12.098010,12.098010 M 106.700960,216.620928 l 12.098010,-12.098010 M 118.798970,205.795710 l -12.098010,12.098010 M 106.700960,219.166513 l 12.098010,-12.098010 M 118.798970,208.341295 l -12.098010,12.098010 M 106.700960,221.712097 l 12.098010,-12.098010 M 118.798970,210.886879 l -12.098010,12.098010 M 106.700960,224.257681 l 12.098010,-12.098010 M 118.798970,213.432463 l -12.098010,12.098010 M 106.700960,226.803265 l 12.098010,-12.098010 M 118.798970,215.978047 l -12.098010,12.098010 M 106.700960,229.348849 l 12.098010,-12.098010 M 118.798970,218.523631 l -12.098010,12.098010 M 106.700960,231.894433 l 12.098010,-12.098010 M 118.798970,221.069215 l -12.098010,12.098010 M 106.700960,234.440017 l 12.098010,-12.098010 M 118.798970,223.614799 l -12.098010,12.098010 M 106.700960,236.985601 l 12.098010,-12.098010 M 118.798970,226.160383 l -12.098010,12.098010 M 106.700960,239.531186 l 12.098010,-12.098010 M 118.798970,228.705968 l -12.098010,12.098010 M 106.700960,242.076770 l 12.098010,-12.098010 M 118.798970,231.251552 l -12.098010,12.098010 M 106.700960,244.622354 l 12.098010,-12.098010 M 118.798970,233.797136 l -12.098010,12.098010 M 106.700960,247.167938 l 12.098010,-12.098010 M 118.798970,236.342720 l -12.098010,12.098010 M 106.700960,249.713522 l 12.098010,-12.098010 M 118.798970,238.888304 l -12.098010,12.098010 M 106.700960,252.259106 l 12.098010,-12.098010 M 119.032098,241.200760 l -12.331138,12.331138 M 107.706650,253.799000 l 12.598240,-12.598240 M 121.577682,241.200760 l -12.598240,12.598240 M 110.252234,253.799000 l 12.598240,-12.598240 M 124.123266,241.200760 l -12.598240,12.598240 M 112.797818,253.799000 l 12.598240,-12.598240 M 126.668851,241.200760 l -12.598240,12.598240 M 115.343403,253.799000 l 12.598240,-12.598240 M 129.214435,241.200760 l -12.598240,12.598240 M 117.888987,253.799000 l 12.598240,-12.598240 M 131.760019,241.200760 l -12.598240,12.598240 M 120.434571,253.799000 l 12.598240,-12.598240 M 134.305603,241.200760 l -12.598240,12.598240 M 122.980155,253.799000 l 12.598240,-12.598240 M 136.851187,241.200760 l -12.598240,12.598240 M 125.525739,253.799000 l 12.598240,-12.598240 M 139.396771,241.200760 l -12.598240,12.598240 M 128.071323,253.799000 l 12.598240,-12.598240 M 141.942355,241.200760 l -12.598240,12.598240 M 130.616907,253.799000 l 12.598240,-12.598240 M 144.487939,241.200760 l -12.598240,12.598240 M 133.162491,253.799000 l 12.598240,-12.598240 M 147.033523,241.200760 l -12.598240,12.598240 M 135.708075,253.799000 l 12.598240,-12.598240 M 149.579108,241.200760 l -12.598240,12.598240 M 138.253660,253.799000 l 12.598240,-12.598240 M 152.124692,241.200760 l -12.598240,12.598240 M 140.799244,253.799000 l 12.598240,-12.598240 M 154.670276,241.200760 l -12.598240,12.598240 M 143.344828,253.799000 l 12.598240,-12.598240 M 157.215860,241.200760 l -12.598240,12.598240 M 145.890412,253.799000 l 12.598240,-12.598240 M 159.761444,241.200760 l -12.598240,12.598240 M 148.435996,253.799000 l 12.598240,-12.598240 M 162.307028,241.200760 l -12.598240,12.598240 M 150.981580,253.799000 l 12.598240,-12.598240 M 164.852612,241.200760 l -12.598240,12.598240 M 153.527164,253.799000 l 12.598240,-12.598240 M 167.398196,241.200760 l -12.598240,12.598240 M 156.072748,253.799000 l 12.598240,-12.598240 M 169.943780,241.200760 l -12.598240,12.598240 M 158.618332,253.799000 l 12.598240,-12.598240 M 172.489365,241.200760 l -12.598240,12.598240 M 161.163917,253.799000 l 12.598240,-12.598240 M 175.034949,241.200760 l -12.598240,12.598240 M 163.709501,253.799000 l 12.598240,-12.598240 M 177.580533,241.200760 l -12.598240,12.598240 M 166.255085,253.799000 l 12.598240,-12.598240 M 180.126117,241.200760 l -12.598240,12.598240 M 168.800669,253.799000 l 12.598240,-12.598240 M 182.671701,241.200760 l -12.598240,12.598240 M 171.346253,253.799000 l 12.598240,-12.598240 M 185.217285,241.200760 l -12.598240,12.598240 M 173.891837,253.799000 l 12.598240,-12.598240 M 187.762869,241.200760 l -12.598240,12.598240 M 176.437421,253.799000 l 12.598240,-12.598240 M 190.308453,241.200760 l -12.598240,12.598240 M 178.983005,253.799000 l 12.598240,-12.598240 M 192.854038,241.200760 l -12.598240,12.598240 M 181.528590,253.799000 l 12.598240,-12.598240 M 195.399622,241.200760 l -12.598240,12.598240 M 184.074174,253.799000 l 12.598240,-12.598240 M 197.945206,241.200760 l -12.598240,12.598240 M 186.619758,253.799000 l 12.598240,-12.598240 M 200.490790,241.200760 l -12.598240,12.598240 M 189.165342,253.799000 l 12.598240,-12.598240 M 203.036374,241.200760 l -12.598240,12.598240 M 191.710926,253.799000 l 12.598240,-12.598240 M 205.581958,241.200760 l -12.598240,12.598240 M 194.256510,253.799000 l 12.598240,-12.598240 M 208.127542,241.200760 l -12.598240,12.598240 M 196.802094,253.799000 l 12.598240,-12.598240 M 210.673126,241.200760 l -12.598240,12.598240 M 199.347678,253.799000 l 12.598240,-12.598240 M 213.218710,241.200760 l -12.598240,12.598240 M 201.893262,253.799000 l 12.598240,-12.598240 M 215.764295,241.200760 l -12.598240,12.598240 M 204.438847,253.799000 l 12.598240,-12.598240 M 218.309879,241.200760 l -12.598240,12.598240 M 206.984431,253.799000 l 12.598240,-12.598240 M 220.855463,241.200760 l -12.598240,12.598240 M 209.530015,253.799000 l 12.598240,-12.598240 M 223.401047,241.200760 l -12.598240,12.598240 M 212.075599,253.799000 l 12.598240,-12.598240 M 225.946631,241.200760 l -12.598240,12.598240 M 214.621183,253.799000 l 12.598240,-12.598240 M 228.492215,241.200760 l -12.598240,12.598240 M 217.166767,253.799000 l 12.598240,-12.598240 M 231.037799,241.200760 l -12.598240,12.598240 M 219.712351,253.799000 l 12.598240,-12.598240 M 233.583383,241.200760 l -12.598240,12.598240 M 222.257935,253.799000 l 12.598240,-12.598240 M 236.128967,241.200760 l -12.598240,12.598240 M 224.803519,253.799000 l 12.598240,-12.598240 M 238.674552,241.200760 l -12.598240,12.598240 M 227.349104,253.799000 l 12.598240,-12.598240 M 241.220136,241.200760 l -12.598240,12.598240 M 229.894688,253.799000 l 12.598240,-12.598240 M 243.765720,241.200760 l -12.598240,12.598240 M 258.700980,227.538292 l 0.879329,-0.879329 M 245.038512,241.200760 l -12.598240,12.598240 M 258.700980,228.811084 l 2.203681,-2.203681 M 246.311304,241.200760 l -12.598240,12.598240 M 258.700980,230.083876 l 3.528033,-3.528033 M 247.584096,241.200760 l -12.598240,12.598240 M 258.700980,231.356668 l 4.852385,-4.852385 M 248.856888,241.200760 l -12.598240,12.598240 M 258.700980,232.629460 l 6.176737,-6.176737 M 250.129680,241.200760 l -12.598240,12.598240 M 258.700980,233.902252 l 7.501089,-7.501089 M 251.402472,241.200760 l -12.598240,12.598240 M 258.700980,235.175044 l 8.825441,-8.825441 M 252.675264,241.200760 l -12.598240,12.598240 M 258.700980,236.447836 l 10.149794,-10.149794 M 253.948056,241.200760 l -12.598240,12.598240 M 258.700980,237.720628 l 11.474146,-11.474146 M 255.220848,241.200760 l -12.598240,12.598240 M 258.700980,238.993420 l 12.433380,-12.433380 M 256.493640,241.200760 l -12.598240,12.598240 M 258.700980,240.266212 l 12.433380,-12.433380 M 257.766432,241.200760 l -12.598240,12.598240 M 246.440984,253.799000 l 24.693376,-24.693376 M 271.134360,230.378417 l -23.420584,23.420584 M 248.986569,253.799000 l 22.147791,-22.147791 M 271.134360,232.924001 l -20.874999,20.874999 M 251.532153,253.799000 l 19.602207,-19.602207 M 271.134360,235.469585 l -18.329415,18.329415 M 254.077737,253.799000 l 17.056623,-17.056623 M 271.134360,238.015169 l -15.783831,15.783831 M 256.623321,253.799000 l 14.511039,-14.511039 M 271.134360,240.560753 l -13.238247,13.238247 M 259.168905,253.799000 l 11.965455,-11.965455 M 271.134360,243.106337 l -10.692663,10.692663 M 261.714489,253.799000 l 9.419871,-9.419871 M 271.134360,245.651921 l -8.147079,8.147079 M 264.260073,253.799000 l 6.874287,-6.874287 M 271.134360,248.197505 l -5.601495,5.601495 M 266.805657,253.799000 l 4.328703,-4.328703 M 271.134360,250.743089 l -3.055911,3.055911 M 269.351241,253.799000 l 1.783119,-1.783119 M 271.134360,253.288674 l -0.510326,0.510326"
           id="path89403" />
      </g>
    </g>
    <path
       style="fill:none;fill-opacity:1;stroke:#376402;stroke-width:2;stroke-linecap:square;stroke-dasharray:none;stroke-opacity:1;stop-color:#000000"
       d="m 132.5,42.499999 h 25"
       id="path89487" />
  </g>
  <plotdata
     application="axidraw"
     model="2"
     layer="-2"
     node="0"
     last_path="0"
     node_after_path="0"
     last_known_x="0"
     last_known_y="0"
     paused_x="0"
     paused_y="0"
     randseed="0"
     row="0"
     id="1729134343" />
</svg>
