<?xml version="1.0" encoding="UTF-8" standalone="no"?>
<!-- Created with Inkscape (http://www.inkscape.org/) -->

<svg
   width="210mm"
   height="297mm"
   viewBox="0 0 210 297"
   version="1.1"
   id="svg26378"
   inkscape:version="1.2.1 (9c6d41e, 2022-07-14)"
   sodipodi:docname="maze-1.svg"
   xmlns:inkscape="http://www.inkscape.org/namespaces/inkscape"
   xmlns:sodipodi="http://sodipodi.sourceforge.net/DTD/sodipodi-0.dtd"
   xmlns="http://www.w3.org/2000/svg"
   xmlns:svg="http://www.w3.org/2000/svg">
  <sodipodi:namedview
     id="namedview26380"
     pagecolor="#ffffff"
     bordercolor="#666666"
     borderopacity="1.0"
     inkscape:showpageshadow="2"
     inkscape:pageopacity="0.0"
     inkscape:pagecheckerboard="0"
     inkscape:deskcolor="#d1d1d1"
     inkscape:document-units="mm"
     showgrid="true"
     inkscape:zoom="0.4204826"
     inkscape:cx="217.6071"
     inkscape:cy="561.25984"
     inkscape:window-width="1512"
     inkscape:window-height="858"
     inkscape:window-x="586"
     inkscape:window-y="1478"
     inkscape:window-maximized="0"
     inkscape:current-layer="layer1">
    <inkscape:grid
       type="xygrid"
       id="grid26499"
       units="mm"
       spacingx="3.7"
       spacingy="3.7"
       empspacing="8"
       originx="1.5"
       originy="1.5" />
  </sodipodi:namedview>
  <defs
     id="defs26375" />
  <g
     inkscape:label="Layer 1"
     inkscape:groupmode="layer"
     id="layer1">
    <path
       style="display:none;fill:#00ff00;fill-opacity:1;stroke:#020000;stroke-width:0.264583;stroke-linecap:square;stroke-dasharray:none;stroke-opacity:1;stop-color:#000000"
       d="m 153.90017,65.099386 h 6.69933 v 44.400394 h 0.70125 V 65.099386 h 6.69933 v 42.201554 1.49965 h -3.00033 v -1.49965 -39.201221 h -0.69918 v 44.400391 h -6.70089 V 68.099719 h -0.69918 v 45.099571 h 2.19935 1.49965 v 2.99982 h -1.49965 -5.19968 z"
       id="path41929" />
    <path
       style="display:none;fill:#00ff00;fill-opacity:1;stroke:#020000;stroke-width:0.264583;stroke-linecap:square;stroke-dasharray:none;stroke-opacity:1;stop-color:#000000"
       d="m 150.1991,65.099386 h 3.00033 v 1.500166 50.300808 h 2.2009 1.50017 v 2.99981 h -1.50017 -5.20123 V 66.599552 Z"
       id="path41927" />
    <path
       style="display:inline;fill:#00ff00;fill-opacity:1;stroke:#020000;stroke-width:0.264583;stroke-linecap:square;stroke-dasharray:none;stroke-opacity:1;stop-color:#000000"
       d="M 1.0541992,12.599748 V 259.00021 H 209.56292 v -9.59993 H 28.099577 v -8.90023 -57.69932 H 5.1991659 v 70.9998 H 35.500159 v -3.70107 H 208.69941 v 6.7014 H 40.699325 39.199158 v -3.00033 H 40.699325 205.69907 V 253.0998 H 38.499976 v 3.70106 H 2.199349 V 179.80091 H 28.099577 V 38.499976 35.500159 24.400578 h 65.90037 v 3.698999 2.999817 7.400582 H 82.900366 v 11.09958 H 71.800785 v 4.400249 3.000333 3.698999 H 60.699137 V 235.30088 H 91.00013 V 55.499972 53.999805 h 2.999817 v 1.500167 179.800908 h 4.400248 V 45.900557 h -8.099247 v 4.400249 H 91.00013 V 46.59974 h 6.699333 v 186.49973 1.50016 H 94.699129 V 233.09947 49.599556 h -0.699182 v 3.701067 H 87.300614 V 42.900224 H 98.400195 V 19.999813 16.999996 16.300814 H 5.1991659 v 0.699182 H 97.699463 v 3.698999 3.000334 18.499646 H 86.599365 V 53.300623 H 75.499784 v 11.09958 H 64.400203 V 231.59982 H 87.300614 V 57.000138 H 79.1993 V 68.099719 H 68.099719 v 0.701249 h 11.80083 V 57.69932 h 6.698816 v 171.70115 1.50016 H 83.599548 V 229.40047 60.699137 h -0.699182 v 11.101648 h -17.80098 v -6.701399 h 11.09958 V 53.999805 H 90.300948 V 234.59963 H 61.400387 V 61.400387 h 11.09958 V 50.300806 H 83.599548 V 39.199158 H 94.699129 V 23.699329 H 5.1991659 V 176.09985 H 24.400578 V 25.900228 24.400578 h 2.999817 v 1.49965 153.199432 H 2.199349 V 20.698995 h 92.49978 V 19.999813 H 2.199349 v -6.698816 h 96.200846 v -0.701249 z"
       id="path41925" />
    <path
       style="display:inline;fill:#00ff00;fill-opacity:1;stroke:#020000;stroke-width:0.264583;stroke-linecap:square;stroke-dasharray:none;stroke-opacity:1;stop-color:#000000"
       d="M 1.0541992,1.0541992 V 9.5994141 H 101.40053 v 3.7015829 2.999817 0.699182 h 0.69918 V 8.9002319 H 2.199349 V 2.199349 H 149.49992 v 3.701066 h 0.69918 V 2.199349 h 6.7014 v 3.701066 h 0.69918 V 2.199349 h 6.70089 V 12.599748 H 142.80059 V 8.9002319 h -34 v 0.6991822 h 33.29926 v 3.7015829 h 22.8999 V 2.199349 h 42.19949 1.50017 v 2.9998169 h -1.50017 -39.19916 V 16.300814 h -25.90023 -1.50016 -1.50017 -30.29893 v 0.699182 h 62.89849 v 6.699333 h -66.59955 v 45.101639 h 0.70125 v -44.40039 h 33.29874 3.00033 4.40025 2.99982 22.90041 v -8.099764 h -3.70107 V 5.900415 h 40.00015 V 60.699137 H 153.90017 V 31.800643 h 23.69933 2.20141 V 13.300997 h 21.49998 V 53.300623 H 161.30075 V 39.199158 h 32.59956 v 6.701399 h -25.90023 v 0.699183 h 26.59941 v -8.099764 h -8.09925 -3.00033 -22.90041 v 15.499829 h 41.40057 V 12.599748 h -22.90041 v 18.499646 h -25.90023 v 30.300993 h 22.90042 2.99981 0.70125 2.99982 0.69918 3.00033 0.69919 2.99981 0.70125 2.99982 0.69918 3.00034 0.70073 3.00033 0.69918 2.99982 3.69952 v 62.900553 1.49965 1.50017 0.69918 1.50017 1.49965 114.69945 h -88.10005 v -105.09952 -1.50017 h 3.00033 v 1.50017 102.09971 h 82.09938 V 130.99976 h -52.49964 v 44.40039 h -10.39884 v -73.99962 h -28.10113 -1.50017 v -3.000335 h 1.50017 31.10146 v 74.000135 h 4.39818 v -44.40039 h 55.49997 v -0.69918 -1.50017 -1.49965 -59.900737 h -0.69918 v 61.400387 1.50017 h -2.99982 v -1.50017 -61.400387 h -0.69918 v 62.900557 h -48.10146 -1.50016 -1.50017 v -1.50017 -1.49965 -2.20142 -1.50016 h 3.00033 v 1.50016 2.20142 h 45.10113 V 64.400203 h -0.70073 v 59.199487 h -42.1995 -1.50016 v -3.00033 h 1.50016 39.19916 V 64.400203 h -0.69918 v 55.499967 h -34.80046 -1.50017 v -2.99981 h 1.50017 31.80064 V 64.400203 h -0.70125 v 51.798907 h -27.39832 -1.50017 v -2.99982 h 1.50017 24.39851 V 64.400203 h -0.69919 v 48.099907 h -20.00033 -1.50016 v -3.00033 h 1.50016 17 V 64.400203 h -0.69918 v 44.400387 h -12.6013 -1.50017 v -2.99981 h 1.50017 9.60148 V 64.400203 h -0.70125 v 40.699327 h -3.69951 -1.49965 -1.50017 v -1.50017 -1.49965 -33.999991 h -0.70125 v 35.499641 1.50017 h -2.99982 v -1.50017 -38.499974 h 6.70089 v 37.000324 h 0.6997 V 64.400203 H 150.1991 V 28.099577 h 25.90075 V 12.599748 h -2.19935 -1.50017 V 9.5994141 h 1.50017 2.19935 1.49965 1.50016 25.90023 V 57.000138 H 157.59968 V 35.500159 h 25.90023 V 24.400578 h 10.4004 v 6.698816 h -3.70107 v 0.701249 h 4.40025 v -11.80083 h -8.09925 v 0.699182 h 5.8999 1.50017 v 3.000334 h -1.50017 -8.90023 v -6.699333 h 14.09992 v 17.800981 h -10.4004 v -6.7014 h 3.70106 v -0.699182 h -4.40025 v 8.099764 h 11.09959 v 14.099397 h -32.60008 v -6.699332 h 25.90074 v -0.701249 h -26.59992 v 8.101831 h 33.99999 V 16.300814 h -15.49983 v 18.500163 h -5.20123 -20.699 V 57.69932 h 48.79857 V 8.9002319 h -33.99999 v 4.4007651 h 3.70107 v 14.099398 h -25.90023 v 142.799035 1.49965 H 146.5001 V 170.19943 27.400395 h -4.40025 v 0.699182 2.999817 25.900744 H 116.90036 V 35.500159 h 17.79891 v 14.099397 h -3.69951 -2.99982 -3.699 v -7.400581 h -0.70125 v 8.101831 h 11.80083 V 34.800977 H 116.19911 V 57.69932 h 26.60148 V 29.599744 28.099577 h 3.00033 v 1.500167 31.099393 H 113.19929 V 31.800643 h 25.20105 v 21.49998 H 120.59936 V 39.199158 h 6.7014 v 7.400582 h 0.69918 v -5.900415 -1.500167 h 2.99982 v 1.500167 5.900415 h 0.69969 v -8.099764 h -11.79928 v 15.499829 h 19.19935 V 31.099394 h -26.59941 v 30.300993 h 33.30081 V 97.699463 H 113.19929 V 68.800968 h 25.20105 v 21.49998 H 120.59936 V 76.198966 h 10.4004 v 6.7014 h -3.699 v 0.699182 h 4.39869 V 75.499784 H 119.90017 V 91.00013 h 19.19935 V 68.099719 h -26.59941 v 33.300811 h -10.4004 V 72.499967 h 6.70088 v 23.699329 1.500167 h -2.99981 V 96.199296 75.499784 h -0.70125 v 22.900411 h 4.40025 V 65.099386 h 32.60007 v 28.900561 h -25.19949 v -21.49998 h 17.79891 v 14.099398 h -10.39833 v -6.698816 h 3.699 V 79.1993 h -4.40025 v 8.101314 h 11.80083 V 71.800785 h -19.20141 v 22.898344 h 26.60148 V 64.400203 H 109.49978 V 28.099577 h 29.59974 v -0.699182 h -30.29893 v 44.40039 h -6.70088 v -51.10179 h 66.59955 v -0.699182 h -62.89848 v -6.698816 h 33.29874 V 12.599748 H 105.80078 V 5.900415 h 40.00014 v 3.6989991 h 15.49983 V 5.1991659 h -0.70125 v 3.701066 h -6.69933 v -3.701066 h -0.70074 v 3.701066 H 146.5001 V 5.1991659 H 5.1991659 V 5.900415 H 105.09953 v 14.099398 h -3.699 V 42.900224 45.900557 238.3007 H 93.999947 91.00013 57.69932 V 57.69932 h 11.101648 v -0.699182 h -11.80083 v 7.400065 H 46.59974 V 57.000138 53.999805 42.900224 h 14.099397 v 3.699516 h 7.400582 v 6.700883 H 50.300806 V 46.59974 h 5.199166 1.500166 v 2.999816 h -1.500166 -2.199349 v 0.70125 h 11.798763 v -0.70125 H 57.69932 v -3.698999 h -8.099764 v 8.099248 h 3.701067 v 5.199166 1.500166 h -2.999817 v -1.500166 -2.198833 h -0.70125 v 4.400249 h 4.400249 V 53.999805 H 68.800968 V 46.59974 H 79.900549 V 38.499976 H 64.400203 v 4.400248 H 76.198966 V 42.198975 H 66.599552 65.099386 V 39.199158 H 66.599552 79.1993 v 6.701399 H 61.400387 V 35.500159 h 18.500162 1.49965 1.500167 8.099764 V 31.099394 H 34.800977 v 0.701249 h 53.999804 1.500167 v 3.000334 H 88.800781 31.800643 v -6.7014 H 91.00013 V 27.400395 H 31.099394 v 8.099764 h 29.599743 v 6.698816 H 45.900557 V 82.900366 H 31.800643 V 42.900224 H 42.198975 V 79.1993 H 35.500159 V 48.09939 46.59974 h 2.999817 v 1.49965 28.099576 h 0.699182 V 45.900557 h -4.398181 v 33.999992 h 8.099247 V 42.198975 H 33.30081 31.800643 v -2.999817 h 1.500167 9.599414 3.000333 11.798763 V 38.499976 H 31.099394 v 141.300934 2.99982 57.69932 5.90041 H 209.56292 V 1.0541992 Z"
       id="rect32988" />
    <path
       style="fill:#00ff00;stroke:#020000;stroke-width:0.264583;stroke-linecap:square;stop-color:#000000"
       d="M -0.22246897,0 32.369236,-3.7819726"
       id="path43008" />
    <path
       style="fill:#00ff00;stroke:#020000;stroke-width:0.264583;stroke-linecap:square;stop-color:#000000"
       d="M 13.236904,-8.3425865 -6.7853038,-3.0033312"
       id="path43010" />
    <path
       style="fill:none;stroke:#ff0000;stroke-width:0.264583;stroke-linecap:square;stroke-opacity:1;stop-color:#000000"
       d="M 5.1999999,5.1999999 H 105.1 V 20 h -3.7 l 0,218.3 H 57 L 57,57"
       id="path43738"
       sodipodi:nodetypes="ccccccc" />
  </g>
</svg>
