<?xml version="1.0" encoding="UTF-8" standalone="no"?>
<!-- Created with Inkscape (http://www.inkscape.org/) -->

<svg
   sodipodi:docname="TA-monogram-1.svg"
   inkscape:version="1.2.1 (9c6d41e, 2022-07-14)"
   id="svg14033"
   version="1.1"
   viewBox="0 0 210 297"
   height="297mm"
   width="210mm"
   xmlns:inkscape="http://www.inkscape.org/namespaces/inkscape"
   xmlns:sodipodi="http://sodipodi.sourceforge.net/DTD/sodipodi-0.dtd"
   xmlns="http://www.w3.org/2000/svg"
   xmlns:svg="http://www.w3.org/2000/svg">
  <sodipodi:namedview
     id="namedview14035"
     pagecolor="#ffffff"
     bordercolor="#666666"
     borderopacity="1.0"
     inkscape:showpageshadow="2"
     inkscape:pageopacity="0.0"
     inkscape:pagecheckerboard="0"
     inkscape:deskcolor="#d1d1d1"
     inkscape:document-units="mm"
     showgrid="false"
     inkscape:zoom="0.5946522"
     inkscape:cx="625.57576"
     inkscape:cy="615.48582"
     inkscape:window-width="1512"
     inkscape:window-height="916"
     inkscape:window-x="586"
     inkscape:window-y="1478"
     inkscape:window-maximized="0"
     inkscape:current-layer="layer1" />
  <defs
     id="defs14030" />
  <g
     inkscape:label="Layer 1"
     inkscape:groupmode="layer"
     id="layer1">
    <text
       xml:space="preserve"
       style="font-style:normal;font-variant:normal;font-weight:normal;font-stretch:normal;font-size:10.5833px;line-height:1.25;font-family:'Times New Roman';-inkscape-font-specification:'Times New Roman, Normal';font-variant-ligatures:normal;font-variant-caps:normal;font-variant-numeric:normal;font-variant-east-asian:normal;fill:#000000;fill-opacity:1;stroke:none;stroke-width:0.264583"
       x="-16.989407"
       y="-94.700218"
       id="text14156"><tspan
         sodipodi:role="line"
         id="tspan14154"
         style="font-style:normal;font-variant:normal;font-weight:normal;font-stretch:normal;font-size:10.5833px;font-family:'Times New Roman';-inkscape-font-specification:'Times New Roman, Normal';font-variant-ligatures:normal;font-variant-caps:normal;font-variant-numeric:normal;font-variant-east-asian:normal;stroke-width:0.264583"
         x="-16.989407"
         y="-94.700218">T</tspan></text>
    <text
       xml:space="preserve"
       style="font-style:normal;font-variant:normal;font-weight:normal;font-stretch:normal;font-size:10.5833px;line-height:1.25;font-family:'Times New Roman';-inkscape-font-specification:'Times New Roman, Normal';font-variant-ligatures:normal;font-variant-caps:normal;font-variant-numeric:normal;font-variant-east-asian:normal;fill:#000000;fill-opacity:1;stroke:none;stroke-width:0.264583"
       x="-8.0737915"
       y="-94.885727"
       id="text14156-4"><tspan
         sodipodi:role="line"
         id="tspan14154-0"
         style="font-style:normal;font-variant:normal;font-weight:normal;font-stretch:normal;font-size:10.5833px;font-family:'Times New Roman';-inkscape-font-specification:'Times New Roman, Normal';font-variant-ligatures:normal;font-variant-caps:normal;font-variant-numeric:normal;font-variant-east-asian:normal;stroke-width:0.264583"
         x="-8.0737915"
         y="-94.885727">A</tspan></text>
    <text
       xml:space="preserve"
       style="font-style:normal;font-weight:normal;font-size:10.5833px;line-height:1.25;font-family:sans-serif;fill:#000000;fill-opacity:1;stroke:none;stroke-width:0.264583"
       x="-4.090044"
       y="-33.978813"
       id="text14160"><tspan
         sodipodi:role="line"
         id="tspan14158"
         style="stroke-width:0.264583"
         x="-4.090044"
         y="-33.978813" /></text>
    <text
       xml:space="preserve"
       style="font-style:normal;font-variant:normal;font-weight:normal;font-stretch:normal;font-size:87.8391px;line-height:1.25;font-family:'Times New Roman';-inkscape-font-specification:'Times New Roman, Normal';font-variant-ligatures:normal;font-variant-caps:normal;font-variant-numeric:normal;font-variant-east-asian:normal;fill:#000000;fill-opacity:1;stroke:none;stroke-width:0.264583"
       x="14.719648"
       y="-22.303398"
       id="text14156-4-7"><tspan
         sodipodi:role="line"
         id="tspan14154-0-6"
         style="font-style:normal;font-variant:normal;font-weight:normal;font-stretch:normal;font-size:87.8391px;font-family:'Times New Roman';-inkscape-font-specification:'Times New Roman, Normal';font-variant-ligatures:normal;font-variant-caps:normal;font-variant-numeric:normal;font-variant-east-asian:normal;stroke-width:0.264583"
         x="14.719648"
         y="-22.303398">A</tspan></text>
    <rect
       style="fill:#ffffff;fill-opacity:1;stroke-width:3;stop-color:#000000"
       id="rect14278"
       width="17.352581"
       height="24.471588"
       x="11.943293"
       y="-43.768227"
       ry="6.036325"
       rx="0" />
    <text
       xml:space="preserve"
       style="font-style:normal;font-variant:normal;font-weight:normal;font-stretch:normal;font-size:87.8391px;line-height:1.25;font-family:'Times New Roman';-inkscape-font-specification:'Times New Roman, Normal';font-variant-ligatures:normal;font-variant-caps:normal;font-variant-numeric:normal;font-variant-east-asian:normal;fill:#000000;fill-opacity:1;stroke:none;stroke-width:0.264583"
       x="5.0341778"
       y="-22.046761"
       id="text14156-0"><tspan
         sodipodi:role="line"
         id="tspan14154-4"
         style="font-style:normal;font-variant:normal;font-weight:normal;font-stretch:normal;font-size:87.8391px;font-family:'Times New Roman';-inkscape-font-specification:'Times New Roman, Normal';font-variant-ligatures:normal;font-variant-caps:normal;font-variant-numeric:normal;font-variant-east-asian:normal;fill:#000000;fill-opacity:1;stroke-width:0.264583"
         x="5.0341778"
         y="-22.046761">T</tspan></text>
    <rect
       style="fill:#ffffff;fill-opacity:1;stroke:none;stroke-width:0.264654;stroke-dasharray:none;stroke-opacity:1;stop-color:#000000"
       id="rect14278-0"
       width="13.484753"
       height="20.873932"
       x="74.396927"
       y="-57.992695"
       ry="5.1489034"
       rx="0"
       transform="matrix(0.91353535,-0.40675934,0.37665737,0.92635265,0,0)"
       inkscape:label="rect14278-0" />
    <g
       aria-label="A"
       id="text14156-4-7-0"
       style="font-size:87.8391px;line-height:1.25;font-family:'Times New Roman';-inkscape-font-specification:'Times New Roman, Normal';font-variation-settings:normal;opacity:1;vector-effect:none;fill:#000000;fill-opacity:1;stroke-width:0.264583;stroke-linecap:butt;stroke-linejoin:miter;stroke-miterlimit:4;stroke-dasharray:none;stroke-dashoffset:0;stroke-opacity:1;-inkscape-stroke:none;stop-color:#000000;stop-opacity:1"
       transform="translate(-28.630297,-111.375)">
      <path
         d="M 82.554919,163.50544 H 60.037571 l -3.945897,9.1785 q -1.458267,3.38832 -1.458267,5.06104 0,1.3296 1.243816,2.35896 1.286705,0.98648 5.489944,1.28671 v 1.58693 h -18.31411 v -1.58693 q 3.645666,-0.64335 4.71792,-1.67272 2.1874,-2.05873 4.846591,-8.36359 l 20.45862,-47.86545 h 1.501156 l 20.244169,48.38014 q 2.44474,5.83306 4.417689,7.59156 2.015838,1.71561 5.575728,1.93006 v 1.58693 H 81.868676 v -1.58693 q 3.474105,-0.17156 4.675031,-1.15804 1.243815,-0.98647 1.243815,-2.40185 0,-1.88717 -1.715607,-5.96173 z m -1.200925,-3.17387 -9.864743,-23.50383 -10.122084,23.50383 z"
         id="path22624"
         style="font-variation-settings:normal;vector-effect:none;fill:#000000;fill-opacity:1;stroke-width:0.264583;stroke-linecap:butt;stroke-linejoin:miter;stroke-miterlimit:4;stroke-dasharray:none;stroke-dashoffset:0;stroke-opacity:1;-inkscape-stroke:none;stop-color:#000000;stop-opacity:1" />
    </g>
    <rect
       style="fill:#ffffff;fill-opacity:1;stroke-width:3;stop-color:#000000"
       id="rect14278-6"
       width="17.352581"
       height="24.471588"
       x="10.960157"
       y="50.137756"
       ry="6.036325"
       rx="0" />
    <g
       aria-label="T"
       id="text14156-0-3"
       style="font-size:87.8391px;line-height:1.25;font-family:'Times New Roman';-inkscape-font-specification:'Times New Roman, Normal';fill:#ffffff;fill-opacity:1;stroke:#000000;stroke-width:0.264583;stroke-opacity:1"
       transform="translate(-28.630297,-111.375)">
      <g
         id="g22203"
         style="fill:#ffffff;fill-opacity:1;stroke:#000000;stroke-opacity:1">
        <path
           d="m 83.506211,125.07513 0.643353,13.63908 h -1.629827 q -0.471792,-3.60278 -1.286706,-5.14682 -1.329595,-2.48764 -3.559885,-3.64567 -2.1874,-1.20093 -5.790175,-1.20093 h -8.192026 v 44.43424 q 0,5.36127 1.158035,6.69087 1.629827,1.80139 5.018152,1.80139 h 2.015839 v 1.58693 H 47.221113 v -1.58693 h 2.058729 q 3.688556,0 5.232603,-2.23029 0.943584,-1.37249 0.943584,-6.26197 v -44.43424 h -6.991101 q -4.074568,0 -5.790175,0.60047 -2.23029,0.81491 -3.817227,3.13098 -1.586937,2.31607 -1.887168,6.26197 h -1.629827 l 0.686243,-13.63908 z"
           id="path18548"
           style="fill:#ffffff;fill-opacity:1;stroke:#000000;stroke-opacity:1" />
        <path
           style="fill:#ffffff;fill-opacity:1;stroke:#000000;stroke-width:0.529167;stroke-dasharray:none;stroke-opacity:1"
           d="m 36.975076,125.07513 -0.998543,0.99854 m -0.0974,1.93588 2.934423,-2.93442 m 1.838478,0 -4.870303,4.8703 m -0.0974,1.93588 6.806183,-6.80618 m 1.838477,0 -8.742064,8.74206 m 5.524968,-3.68649 5.055574,-5.05557 m -7.146899,7.1469 -3.531045,3.53104 m 8.602313,-6.76383 3.914108,-3.91411 m -10.536033,10.53603 -2.07779,2.07779 m 10.744456,-8.90598 3.707845,-3.70784 m -12.791481,12.79148 -0.8476,0.8476 m 11.827771,-9.98929 3.649787,-3.64979 m 1.838477,0 -3.64566,3.64566 m 1.838478,0 3.64566,-3.64566 m 1.838477,0 -3.64566,3.64566 m 1.838478,0 3.64566,-3.64566 m 1.838477,0 -5.419253,5.41925 m 0,1.83848 7.257731,-7.25773 m 1.838477,0 -9.096208,9.09621 m 0,1.83847 10.934685,-10.93468 m 1.838478,0 -3.64566,3.64566 m -9.127503,9.1275 8.234916,-8.23491 m 6.376724,-4.53825 -3.64566,3.64566 m -10.96598,10.96598 8.234916,-8.23492 m 8.215202,-6.37672 -3.64566,3.64566 m -12.804458,12.80446 8.234916,-8.23492 m 10.053679,-8.2152 -3.64566,3.64566 m -14.642935,14.64293 8.234916,-8.23491 m 11.892156,-10.05368 -3.646228,3.64623 m -16.480844,16.48084 8.234916,-8.23491 m 13.730634,-11.89216 -3.730726,3.73073 m -18.234824,18.23482 8.234916,-8.23492 m 15.569111,-13.73063 -3.979222,3.97922 m -19.824805,19.82481 8.234916,-8.23492 m 17.407589,-15.56911 -4.399395,4.39939 m -21.24311,21.24311 8.234916,-8.23491 m 19.246066,-17.40759 -4.993737,4.99374 m -22.487245,22.48724 8.234916,-8.23491 m 19.872441,-18.03397 -4.532028,4.53203 m -23.575329,23.57533 8.234916,-8.23492 M 83.6462,128.0429 l -3.680706,3.6807 m -24.509465,24.50947 8.234916,-8.23492 m 20.038069,-18.19959 -2.969971,2.96997 m -25.303014,25.30301 8.234916,-8.23491 m 20.120884,-18.28241 -2.396247,2.39625 m -25.959553,25.95955 8.234916,-8.23491 m 20.203698,-18.36523 -2.014522,2.01453 m -26.424092,26.42409 8.234916,-8.23492 m 20.286512,-18.44803 -1.757751,1.75775 m -26.763677,26.76368 8.234916,-8.23492 m 20.369327,-18.53085 -1.584354,1.58435 m -27.019889,27.01989 8.234916,-8.23491 m 20.452141,-18.61367 -0.137335,0.13734 m -28.549722,28.54972 8.234916,-8.23491 m 0,1.83847 -8.234916,8.23492 m 0,1.83848 8.234916,-8.23492 m 0,1.83848 -8.234916,8.23491 m -0.02565,1.86413 8.260566,-8.26057 m -15.264365,15.26437 -1.205467,1.20547 m 8.069658,-6.23118 8.400174,-8.40018 m -13.375797,13.3758 -1.63702,1.63702 m 6.05667,-4.21819 8.956147,-8.95615 m -10.810993,10.81099 -2.363347,2.36335 m 1.838477,0 11.335863,-11.33586 m 0.004,1.83448 -9.501379,9.50138 m 1.838477,0 7.726963,-7.72696 m 0.169513,1.66896 -6.057999,6.058 m 1.838478,0 4.550451,-4.55045 m 0.632178,1.2063 -3.344152,3.34415 m 1.838478,0 2.519797,-2.5198 m 1.270916,0.56756 -1.952236,1.95224 m 1.838478,0 1.645714,-1.64571 m 1.779693,0.0588 -1.58693,1.58693 m 1.838478,0 1.143114,-1.14311"
           id="path22201" />
      </g>
    </g>
    <rect
       style="fill:#ffffff;fill-opacity:1;stroke:none;stroke-width:0.264654;stroke-dasharray:none;stroke-opacity:1;stop-color:#000000"
       id="rect14278-0-4"
       width="13.484753"
       height="20.873932"
       x="38.09639"
       y="27.439554"
       ry="5.1489034"
       rx="0"
       transform="matrix(0.91353535,-0.40675934,0.37665737,0.92635265,0,0)"
       inkscape:label="rect14278-0" />
    <text
       xml:space="preserve"
       style="font-style:normal;font-variant:normal;font-weight:normal;font-stretch:normal;font-size:87.8391px;line-height:1.25;font-family:'Times New Roman';-inkscape-font-specification:'Times New Roman, Normal';font-variant-ligatures:normal;font-variant-caps:normal;font-variant-numeric:normal;font-variant-east-asian:normal;fill:#000000;fill-opacity:1;stroke:none;stroke-width:0.264583"
       x="94.479927"
       y="-30.510674"
       id="text14156-4-7-7"><tspan
         sodipodi:role="line"
         id="tspan14154-0-6-3"
         style="font-style:normal;font-variant:normal;font-weight:normal;font-stretch:normal;font-size:87.8391px;font-family:'Times New Roman';-inkscape-font-specification:'Times New Roman, Normal';font-variant-ligatures:normal;font-variant-caps:normal;font-variant-numeric:normal;font-variant-east-asian:normal;stroke-width:0.264583"
         x="94.479927"
         y="-30.510674">A</tspan></text>
    <rect
       style="fill:#ffffff;fill-opacity:1;stroke-width:3;stop-color:#000000"
       id="rect14278-2"
       width="25.806406"
       height="43.826385"
       x="91.716408"
       y="-71.330307"
       ry="12.903203"
       rx="0" />
    <text
       xml:space="preserve"
       style="font-style:normal;font-variant:normal;font-weight:normal;font-stretch:normal;font-size:87.8391px;line-height:1.25;font-family:'Times New Roman';-inkscape-font-specification:'Times New Roman, Normal';font-variant-ligatures:normal;font-variant-caps:normal;font-variant-numeric:normal;font-variant-east-asian:normal;fill:#000000;fill-opacity:1;stroke:none;stroke-width:0.264583"
       x="93.261108"
       y="-30.254036"
       id="text14156-0-1"><tspan
         sodipodi:role="line"
         id="tspan14154-4-3"
         style="font-style:normal;font-variant:normal;font-weight:normal;font-stretch:normal;font-size:87.8391px;font-family:'Times New Roman';-inkscape-font-specification:'Times New Roman, Normal';font-variant-ligatures:normal;font-variant-caps:normal;font-variant-numeric:normal;font-variant-east-asian:normal;fill:#000000;fill-opacity:1;stroke-width:0.264583"
         x="93.261108"
         y="-30.254036">T</tspan></text>
    <rect
       style="fill:#ffffff;fill-opacity:1;stroke:none;stroke-width:0.266118;stroke-dasharray:none;stroke-opacity:1;stop-color:#000000"
       id="rect14278-0-2"
       width="19.630434"
       height="29.366629"
       x="153.15079"
       y="-60.655678"
       ry="6.6688623"
       rx="0"
       transform="matrix(0.97052122,-0.2410157,0.38503671,0.92290126,0,0)"
       inkscape:label="rect14278-0" />
    <rect
       style="fill:#ffffff;fill-opacity:1;stroke:none;stroke-width:0.529167;stroke-dasharray:none;stroke-opacity:1;stop-color:#000000"
       id="rect22622"
       width="22.024429"
       height="12.9032"
       x="114.41727"
       y="-101.3639"
       ry="6.4516001" />
    <text
       xml:space="preserve"
       style="font-style:normal;font-variant:normal;font-weight:normal;font-stretch:normal;font-size:87.8391px;line-height:1.25;font-family:'Times New Roman';-inkscape-font-specification:'Times New Roman, Normal';font-variant-ligatures:normal;font-variant-caps:normal;font-variant-numeric:normal;font-variant-east-asian:normal;fill:#000000;fill-opacity:1;stroke:none;stroke-width:0.264583"
       x="101.28271"
       y="71.210281"
       id="text14156-4-7-3"><tspan
         sodipodi:role="line"
         id="tspan14154-0-6-6"
         style="font-style:normal;font-variant:normal;font-weight:normal;font-stretch:normal;font-size:87.8391px;font-family:'Times New Roman';-inkscape-font-specification:'Times New Roman, Normal';font-variant-ligatures:normal;font-variant-caps:normal;font-variant-numeric:normal;font-variant-east-asian:normal;stroke-width:0.264583"
         x="101.28271"
         y="71.210281">A</tspan></text>
    <rect
       style="font-variation-settings:normal;fill:#f6f6f6;fill-opacity:1;stroke:none;stroke-width:0.265;stroke-linecap:butt;stroke-linejoin:miter;stroke-miterlimit:4;stroke-dasharray:none;stroke-dashoffset:0;stroke-opacity:1;stop-color:#000000"
       id="rect22789-6"
       width="15.101694"
       height="25.169491"
       x="82.940559"
       y="153.5918"
       ry="0"
       transform="rotate(-25.016894)" />
    <rect
       style="font-variation-settings:normal;opacity:1;fill:#f6f6f6;fill-opacity:1;stroke:none;stroke-width:0.265;stroke-linecap:butt;stroke-linejoin:miter;stroke-miterlimit:4;stroke-dasharray:none;stroke-dashoffset:0;stroke-opacity:1;stop-color:#000000;stop-opacity:1"
       id="rect22789"
       width="21.079447"
       height="4.7192774"
       x="119.55508"
       y="47.192795"
       ry="0" />
    <text
       xml:space="preserve"
       style="font-style:normal;font-variant:normal;font-weight:normal;font-stretch:normal;font-size:87.8391px;line-height:1.25;font-family:'Times New Roman';-inkscape-font-specification:'Times New Roman, Normal';font-variant-ligatures:normal;font-variant-caps:normal;font-variant-numeric:normal;font-variant-east-asian:normal;display:inline;fill:#ffffff;fill-opacity:1;stroke:none;stroke-width:0.264583"
       x="84.088089"
       y="98.346252"
       id="text14156-0-0-3"><tspan
         sodipodi:role="line"
         id="tspan14154-4-2-9"
         style="font-style:normal;font-variant:normal;font-weight:normal;font-stretch:normal;font-size:87.8391px;font-family:'Times New Roman';-inkscape-font-specification:'Times New Roman, Normal';font-variant-ligatures:normal;font-variant-caps:normal;font-variant-numeric:normal;font-variant-east-asian:normal;fill:#ffffff;fill-opacity:1;stroke-width:0.264583"
         x="84.088089"
         y="98.346252">T</tspan></text>
    <text
       xml:space="preserve"
       style="font-style:normal;font-variant:normal;font-weight:normal;font-stretch:normal;font-size:87.8391px;line-height:1.25;font-family:'Times New Roman';-inkscape-font-specification:'Times New Roman, Normal';font-variant-ligatures:normal;font-variant-caps:normal;font-variant-numeric:normal;font-variant-east-asian:normal;fill:#000000;fill-opacity:1;stroke:none;stroke-width:0.264583"
       x="82.500587"
       y="99.933731"
       id="text14156-0-0"><tspan
         sodipodi:role="line"
         id="tspan14154-4-2"
         style="font-style:normal;font-variant:normal;font-weight:normal;font-stretch:normal;font-size:87.8391px;font-family:'Times New Roman';-inkscape-font-specification:'Times New Roman, Normal';font-variant-ligatures:normal;font-variant-caps:normal;font-variant-numeric:normal;font-variant-east-asian:normal;fill:#000000;fill-opacity:1;stroke-width:0.264583"
         x="82.500587"
         y="99.933731">T</tspan></text>
    <g
       id="g25262">
      <path
         id="path25125"
         style="font-size:87.8391px;line-height:1.25;font-family:'Times New Roman';-inkscape-font-specification:'Times New Roman, Normal';stroke-width:0.264583"
         d="M 159.87345 153.63868 L 158.3154 157.28446 L 161.17311 157.28446 C 161.47334 157.28446 161.76612 157.29055 162.05161 157.30306 C 162.1552 157.3076 162.25278 157.31754 162.35443 157.32373 L 163.94141 153.63868 L 159.87345 153.63868 z " />
      <path
         id="path25253"
         style="font-size:87.8391px;line-height:1.25;font-family:'Times New Roman';-inkscape-font-specification:'Times New Roman, Normal';stroke-width:0.264583"
         d="M 144.7462 185.27655 L 144.7462 182.95369 C 143.96144 183.231 142.96462 183.47604 141.75465 183.68956 L 141.75465 185.27655 L 144.7462 185.27655 z " />
      <path
         id="path25251"
         style="font-size:87.8391px;line-height:1.25;font-family:'Times New Roman';-inkscape-font-specification:'Times New Roman, Normal';stroke-width:0.264583"
         d="M 152.98136 185.27655 L 152.98136 169.7638 L 151.31893 173.65348 C 149.54614 177.85672 147.93098 180.64431 146.47271 182.0168 C 146.11375 182.3614 145.53778 182.67398 144.7462 182.95369 L 144.7462 185.27655 L 152.98136 185.27655 z " />
      <path
         id="path25249"
         style="font-size:87.8391px;line-height:1.25;font-family:'Times New Roman';-inkscape-font-specification:'Times New Roman, Normal';stroke-width:0.264583"
         d="m 160.06878,162.6309 2.28565,-5.30717 c -0.10165,-0.006 -0.19923,-0.0161 -0.30282,-0.0207 -0.28549,-0.0125 -0.57827,-0.0186 -0.8785,-0.0186 h -2.85771 l -5.33404,12.47934 v 15.51275 h 7.08742 v -1.58699 c -2.80215,-0.20015 -4.6323,-0.62909 -5.4901,-1.28674 -0.82921,-0.68624 -1.24385,-1.47211 -1.24385,-2.35851 0,-1.11515 0.48613,-2.80231 1.45831,-5.06119 l 3.94601,-9.17877 z"
         sodipodi:nodetypes="ccssccccccsccc" />
      <path
         id="path25245"
         style="font-size:87.8391px;line-height:1.25;font-family:'Times New Roman';-inkscape-font-specification:'Times New Roman, Normal';stroke-width:0.264583"
         d="m 171.77763,125.78819 -11.90418,27.85049 h 4.06796 l 6.24924,-14.51177 9.86503,23.50399 1.20096,3.17345 3.51658,8.36383 c 1.14374,2.71637 1.71566,4.7038 1.71566,5.96191 0,0.94359 -0.41465,1.74376 -1.24386,2.4014 -0.80062,0.65766 -2.35858,1.0437 -4.67465,1.15807 v 1.58699 h 22.94589 v -1.58699 c -2.37326,-0.14296 -4.23148,-0.78637 -5.57537,-1.93011 -1.3153,-1.17233 -2.78799,-3.70257 -4.41782,-7.59127 l -20.24424,-48.37999 z"
         sodipodi:nodetypes="cccccccsccccccccc" />
    </g>
    <g
       id="g25285">
      <path
         id="path25122-0"
         style="font-size:87.8391px;line-height:1.25;font-family:'Times New Roman';-inkscape-font-specification:'Times New Roman, Normal';display:inline;fill:#a60000;fill-opacity:1;stroke-width:0.264583"
         d="m 170.7534,162.6309 h 2.46755 l -0.42426,-8.99222 h -8.85528 l -1.58543,3.68143 c 1.86039,0.11297 3.39712,0.50079 4.60747,1.16531 1.48686,0.77202 2.6736,1.98735 3.55999,3.64577 0.0794,0.15042 0.15546,0.31998 0.22996,0.49971 z" />
      <path
         id="path25275"
         style="font-size:87.8391px;line-height:1.25;font-family:'Times New Roman';-inkscape-font-specification:'Times New Roman, Normal';display:inline;fill:#a60000;fill-opacity:1;stroke-width:0.264583"
         d="m 171.58591,165.80435 c 0.0799,0.4602 0.15539,0.94726 0.22427,1.47329 h 1.62988 l -0.0692,-1.47329 z" />
      <path
         id="path25273"
         style="font-size:87.8391px;line-height:1.25;font-family:'Times New Roman';-inkscape-font-specification:'Times New Roman, Normal';display:inline;fill:#a60000;fill-opacity:1;stroke-width:0.264583"
         d="m 171.58591,165.80435 h 1.7849 l -0.14986,-3.17345 h -2.46755 c 0.32369,0.78083 0.60102,1.83945 0.83251,3.17345 z" />
      <path
         id="path25271"
         style="font-size:87.8391px;line-height:1.25;font-family:'Times New Roman';-inkscape-font-specification:'Times New Roman, Normal';display:inline;fill:#a60000;fill-opacity:1;stroke-width:0.264583"
         d="M 152.98136 185.27655 L 144.7462 185.27655 L 144.7462 201.71844 C 144.7462 204.97809 144.43164 207.0656 143.80259 207.98059 C 142.77323 209.46745 141.02939 210.21094 138.57035 210.21094 L 136.51156 210.21094 L 136.51156 211.79792 L 161.17311 211.79792 L 161.17311 210.21094 L 159.15721 210.21094 C 156.89833 210.21094 155.22598 209.61043 154.13943 208.4095 C 153.36741 207.52311 152.98136 205.29262 152.98136 201.71844 L 152.98136 185.27655 z " />
      <path
         id="path25269"
         style="font-size:87.8391px;line-height:1.25;font-family:'Times New Roman';-inkscape-font-specification:'Times New Roman, Normal';display:inline;fill:#a60000;fill-opacity:1;stroke-width:0.264583"
         d="M 152.98136 169.7638 L 151.31893 173.65348 C 151.09733 174.17889 150.87829 174.68229 150.6616 175.16347 C 150.44492 175.64464 150.23052 176.1037 150.01875 176.54065 C 149.91287 176.75912 149.80766 176.97195 149.70301 177.17937 C 149.59835 177.38678 149.49431 177.58866 149.39088 177.78501 C 149.28745 177.98137 149.18457 178.17229 149.08237 178.35759 C 148.98017 178.54289 148.87897 178.72233 148.778 178.89657 C 148.67703 179.07082 148.57647 179.23982 148.47673 179.403 C 148.37698 179.56619 148.2781 179.72372 148.17959 179.87584 C 148.08107 180.02797 147.98283 180.17454 147.88555 180.31561 C 147.78826 180.45668 147.6917 180.59229 147.59564 180.7223 C 147.49959 180.85231 147.40418 180.97697 147.30935 181.09592 C 147.21453 181.21488 147.12028 181.32806 147.02668 181.43595 C 146.93309 181.54385 146.84 181.64607 146.74763 181.74291 C 146.65526 181.83975 146.56385 181.93102 146.47271 182.0168 C 146.42804 182.05969 146.37991 182.10255 146.32854 182.14444 C 146.27716 182.18632 146.22229 182.22758 146.1642 182.26846 C 146.10612 182.30934 146.0445 182.34951 145.97972 182.38938 C 145.91494 182.42926 145.84708 182.46885 145.7756 182.50772 C 145.70411 182.54659 145.62899 182.58458 145.55081 182.62244 C 145.47262 182.66031 145.39126 182.69772 145.30638 182.73458 C 145.1366 182.8083 144.95364 182.88038 144.75706 182.95007 C 144.75366 182.95128 144.74961 182.95249 144.7462 182.95369 L 144.7462 185.27655 L 152.98136 185.27655 L 152.98136 169.7638 z " />
      <path
         id="path25267"
         style="font-size:87.8391px;line-height:1.25;font-family:'Times New Roman';-inkscape-font-specification:'Times New Roman, Normal';display:inline;fill:#a60000;fill-opacity:1;stroke-width:0.264583"
         d="M 159.87345 153.63868 L 125.3169 153.63868 L 124.63064 167.27764 L 126.26051 167.27764 C 126.46066 164.64705 127.08977 162.56006 128.14773 161.01601 C 129.20569 159.47197 130.47821 158.42822 131.96507 157.88494 C 133.10881 157.48463 135.03904 157.28446 137.75542 157.28446 L 144.7462 157.28446 L 144.7462 182.95369 C 144.74961 182.95249 144.75366 182.95128 144.75706 182.95007 C 144.95364 182.88038 145.1366 182.8083 145.30638 182.73458 C 145.39126 182.69772 145.47262 182.66031 145.55081 182.62244 C 145.62899 182.58458 145.70411 182.54659 145.7756 182.50772 C 145.84708 182.46885 145.91494 182.42926 145.97972 182.38938 C 146.0445 182.34951 146.10612 182.30934 146.1642 182.26846 C 146.22229 182.22758 146.27716 182.18632 146.32854 182.14444 C 146.37991 182.10255 146.42804 182.05969 146.47271 182.0168 C 146.56385 181.93102 146.65526 181.83975 146.74763 181.74291 C 146.84 181.64607 146.93309 181.54385 147.02668 181.43595 C 147.12028 181.32806 147.21453 181.21488 147.30935 181.09592 C 147.40418 180.97697 147.49959 180.85231 147.59564 180.7223 C 147.6917 180.59229 147.78826 180.45668 147.88555 180.31561 C 147.98283 180.17454 148.08107 180.02797 148.17959 179.87584 C 148.2781 179.72372 148.37698 179.56619 148.47673 179.403 C 148.57647 179.23982 148.67703 179.07082 148.778 178.89657 C 148.87897 178.72233 148.98017 178.54289 149.08237 178.35759 C 149.18457 178.17229 149.28745 177.98137 149.39088 177.78501 C 149.49431 177.58866 149.59835 177.38678 149.70301 177.17937 C 149.80766 176.97195 149.91287 176.75912 150.01875 176.54065 C 150.23052 176.1037 150.44492 175.64464 150.6616 175.16347 C 150.87829 174.68229 151.09733 174.17889 151.31893 173.65348 L 152.98136 169.7638 L 152.98136 157.28446 L 158.3154 157.28446 L 159.87345 153.63868 z " />
      <path
         id="path25265"
         style="font-size:87.8391px;line-height:1.25;font-family:'Times New Roman';-inkscape-font-specification:'Times New Roman, Normal';display:none;fill:#a60000;fill-opacity:1;stroke-width:0.264583"
         d="m 159.87345,153.63868 -1.55805,3.64578 h 2.85771 c 0.40832,0 0.80182,0.0125 1.18287,0.0357 l 1.58543,-3.68143 z" />
    </g>
    <path
       id="path25125-8"
       style="font-size:87.8391px;line-height:1.25;font-family:'Times New Roman';-inkscape-font-specification:'Times New Roman, Normal';display:inline;stroke-width:0.264583"
       d="m 174.76659,206.17295 -11.90418,27.85101 h 4.06745 l 6.24975,-14.51229 9.86451,23.50399 h -6.83472 l 0.14986,3.17396 h 7.88582 l 3.5171,8.36383 c 1.14374,2.71638 1.71566,4.70329 1.71566,5.9614 0,0.94358 -0.41465,1.74427 -1.24385,2.40192 -0.80062,0.65765 -2.3591,1.04369 -4.67517,1.15807 v 1.58698 h 22.9464 v -1.58698 c -2.37325,-0.14297 -4.23199,-0.78638 -5.57588,-1.93012 -1.3153,-1.17233 -2.78748,-3.70256 -4.4173,-7.59127 l -20.24425,-48.3805 z m 1.59267,40.01667 h -1.7849 c 0.0798,0.46018 0.15539,0.9473 0.22427,1.4733 h 1.62988 z m -1.7849,0 c -0.23148,-1.33396 -0.50833,-2.39313 -0.83199,-3.17396 h -10.68462 l 2.2872,-5.31079 c -0.38105,-0.0231 -0.77456,-0.0357 -1.18288,-0.0357 h -2.8577 l -5.33405,12.47986 v 15.51275 h 7.08743 v -1.58698 c -2.80216,-0.20016 -4.6323,-0.62909 -5.49011,-1.28675 -0.8292,-0.68624 -1.24385,-1.47263 -1.24385,-2.35903 0,-1.11514 0.48614,-2.80231 1.45831,-5.06118 l 3.94601,-9.17826 z m -18.60404,19.4722 h -8.23515 v 16.44189 c 0,3.25966 -0.31456,5.34717 -0.94361,6.26215 -1.02937,1.48686 -2.77372,2.22984 -5.23276,2.22984 h -2.05879 v 1.58698 h 24.66206 v -1.58698 h -2.01589 c -2.25888,0 -3.93175,-0.6 -5.0183,-1.80092 -0.77202,-0.8864 -1.15756,-3.11689 -1.15756,-6.69107 z m -8.23515,0 v -2.32389 c -0.78486,0.27739 -1.78128,0.52333 -2.99155,0.73691 v 1.58698 z m 0,-2.32389 c 0.79128,-0.27966 1.36712,-0.59134 1.72599,-0.93586 1.45827,-1.37248 3.07394,-4.16008 4.84673,-8.36331 l 1.66243,-3.88969 v -12.47986 h 5.33405 l 1.55804,-3.64525 h -34.55655 l -0.68626,13.63896 h 1.62988 c 0.20015,-2.63059 0.82926,-4.71811 1.88722,-6.26215 1.05795,-1.54405 2.33048,-2.5878 3.81734,-3.13108 1.14374,-0.4003 3.07345,-0.60048 5.78982,-0.60048 h 6.99131 z m 17.60978,-25.63306 c 1.86039,0.11297 3.39711,0.50079 4.60747,1.1653 1.48686,0.77202 2.67359,1.98736 3.55999,3.64578 0.0794,0.15045 0.15544,0.31993 0.22996,0.49971 h 2.46703 l -0.42426,-8.9917 h -8.85528 z" />
    <rect
       style="font-variation-settings:normal;opacity:1;fill:#fafbf9;fill-opacity:1;stroke:none;stroke-width:0.264999;stroke-linecap:butt;stroke-linejoin:miter;stroke-miterlimit:4;stroke-dasharray:none;stroke-dashoffset:0;stroke-opacity:1;stop-color:#000000;stop-opacity:1"
       id="rect24241"
       width="12.584745"
       height="34.922668"
       x="92.497871"
       y="48.765884" />
    <rect
       style="font-variation-settings:normal;fill:#fafbf9;fill-opacity:1;stroke:none;stroke-width:0.264999;stroke-linecap:butt;stroke-linejoin:miter;stroke-miterlimit:4;stroke-dasharray:none;stroke-dashoffset:0;stroke-opacity:1;stop-color:#000000"
       id="rect24241-2"
       width="12.584745"
       height="15.73093"
       x="113.57732"
       y="63.710281" />
    <rect
       style="font-variation-settings:normal;fill:#fafbf9;fill-opacity:1;stroke:none;stroke-width:0.264999;stroke-linecap:butt;stroke-linejoin:miter;stroke-miterlimit:4;stroke-dasharray:none;stroke-dashoffset:0;stroke-opacity:1;stop-color:#000000"
       id="rect24241-2-0"
       width="12.584745"
       height="15.73093"
       x="149.75845"
       y="0.62924194" />
    <circle
       style="font-variation-settings:normal;opacity:1;fill:#000000;fill-opacity:1;stroke:none;stroke-width:0.264999;stroke-linecap:butt;stroke-linejoin:miter;stroke-miterlimit:4;stroke-dasharray:none;stroke-dashoffset:0;stroke-opacity:1;stop-color:#000000;stop-opacity:1"
       id="path23823"
       cx="138.31958"
       cy="85.155624"
       r="3.618114" />
    <circle
       style="font-variation-settings:normal;fill:#000000;fill-opacity:1;stroke:none;stroke-width:0.264999;stroke-linecap:butt;stroke-linejoin:miter;stroke-miterlimit:4;stroke-dasharray:none;stroke-dashoffset:0;stroke-opacity:1;stop-color:#000000"
       id="path23823-2"
       cx="102.5119"
       cy="23.755814"
       r="3.618114" />
    <text
       xml:space="preserve"
       style="font-style:normal;font-variant:normal;font-weight:normal;font-stretch:normal;font-size:87.8391px;line-height:1.25;font-family:Helvetica;-inkscape-font-specification:'Helvetica, Normal';font-variant-ligatures:normal;font-variant-caps:normal;font-variant-numeric:normal;font-variant-east-asian:normal;fill:#000000;fill-opacity:1;stroke:none;stroke-width:0.264583"
       x="45.06979"
       y="175.12933"
       id="text14156-4-7-3-3"><tspan
         sodipodi:role="line"
         id="tspan14154-0-6-6-0"
         style="font-style:normal;font-variant:normal;font-weight:normal;font-stretch:normal;font-size:87.8391px;font-family:Helvetica;-inkscape-font-specification:'Helvetica, Normal';font-variant-ligatures:normal;font-variant-caps:normal;font-variant-numeric:normal;font-variant-east-asian:normal;stroke-width:0.264583"
         x="45.06979"
         y="175.12933">A</tspan></text>
    <rect
       style="font-variation-settings:normal;fill:#f6f6f6;fill-opacity:1;stroke:none;stroke-width:0.265;stroke-linecap:butt;stroke-linejoin:miter;stroke-miterlimit:4;stroke-dasharray:none;stroke-dashoffset:0;stroke-opacity:1;stop-color:#000000"
       id="rect22789-6-3"
       width="15.101694"
       height="25.169491"
       x="-19.680271"
       y="208.57536"
       ry="0"
       transform="rotate(-25.016894)" />
    <rect
       style="font-variation-settings:normal;fill:#f6f6f6;fill-opacity:1;stroke:none;stroke-width:0.265;stroke-linecap:butt;stroke-linejoin:miter;stroke-miterlimit:4;stroke-dasharray:none;stroke-dashoffset:0;stroke-opacity:1;stop-color:#000000"
       id="rect22789-2"
       width="22.337921"
       height="6.921608"
       x="62.712917"
       y="149.22414"
       ry="0" />
    <text
       xml:space="preserve"
       style="font-style:normal;font-variant:normal;font-weight:normal;font-stretch:normal;font-size:87.8391px;line-height:1.25;font-family:Helvetica;-inkscape-font-specification:'Helvetica, Normal';font-variant-ligatures:normal;font-variant-caps:normal;font-variant-numeric:normal;font-variant-east-asian:normal;fill:#000000;fill-opacity:1;stroke:none;stroke-width:0.264583"
       x="27.393463"
       y="202.33368"
       id="text14156-0-0-6"><tspan
         sodipodi:role="line"
         id="tspan14154-4-2-2"
         style="font-style:normal;font-variant:normal;font-weight:normal;font-stretch:normal;font-size:87.8391px;font-family:Helvetica;-inkscape-font-specification:'Helvetica, Normal';font-variant-ligatures:normal;font-variant-caps:normal;font-variant-numeric:normal;font-variant-east-asian:normal;fill:#000000;fill-opacity:1;stroke-width:0.264583"
         x="27.393463"
         y="202.33368">T</tspan></text>
    <rect
       style="font-variation-settings:normal;fill:#fafbf9;fill-opacity:1;stroke:none;stroke-width:0.264999;stroke-linecap:butt;stroke-linejoin:miter;stroke-miterlimit:4;stroke-dasharray:none;stroke-dashoffset:0;stroke-opacity:1;stop-color:#000000"
       id="rect24241-6"
       width="12.584745"
       height="34.922668"
       x="34.39724"
       y="167.78664" />
    <rect
       style="font-variation-settings:normal;fill:#fafbf9;fill-opacity:1;stroke:none;stroke-width:0.264999;stroke-linecap:butt;stroke-linejoin:miter;stroke-miterlimit:4;stroke-dasharray:none;stroke-dashoffset:0;stroke-opacity:1;stop-color:#000000"
       id="rect24241-2-2"
       width="12.584745"
       height="15.73093"
       x="86.623932"
       y="195.00116" />
    <rect
       style="font-variation-settings:normal;fill:#fafbf9;fill-opacity:1;stroke:none;stroke-width:0.264999;stroke-linecap:butt;stroke-linejoin:miter;stroke-miterlimit:4;stroke-dasharray:none;stroke-dashoffset:0;stroke-opacity:1;stop-color:#000000"
       id="rect24241-2-0-4"
       width="12.584745"
       height="15.73093"
       x="101.72562"
       y="173.76442" />
    <circle
       style="font-variation-settings:normal;fill:#000000;fill-opacity:1;stroke:none;stroke-width:0.264999;stroke-linecap:butt;stroke-linejoin:miter;stroke-miterlimit:4;stroke-dasharray:none;stroke-dashoffset:0;stroke-opacity:1;stop-color:#000000"
       id="path23823-26"
       cx="78.331238"
       cy="185.9285"
       r="3.618114" />
    <circle
       style="font-variation-settings:normal;fill:#000000;fill-opacity:1;stroke:none;stroke-width:0.264999;stroke-linecap:butt;stroke-linejoin:miter;stroke-miterlimit:4;stroke-dasharray:none;stroke-dashoffset:0;stroke-opacity:1;stop-color:#000000"
       id="path23823-2-0"
       cx="42.52356"
       cy="124.52869"
       r="3.618114" />
  </g>
</svg>
