<?xml version="1.0" encoding="UTF-8" standalone="no"?>
<!-- Created with Inkscape (http://www.inkscape.org/) -->

<svg
   width="297mm"
   height="420mm"
   viewBox="0 0 297 420"
   version="1.1"
   id="svg2051"
   inkscape:version="1.2.1 (9c6d41e, 2022-07-14)"
   sodipodi:docname="thank-you-card-maze.svg"
   xmlns:inkscape="http://www.inkscape.org/namespaces/inkscape"
   xmlns:sodipodi="http://sodipodi.sourceforge.net/DTD/sodipodi-0.dtd"
   xmlns="http://www.w3.org/2000/svg"
   xmlns:svg="http://www.w3.org/2000/svg">
  <sodipodi:namedview
     id="namedview2053"
     pagecolor="#ffffff"
     bordercolor="#666666"
     borderopacity="1.0"
     inkscape:showpageshadow="2"
     inkscape:pageopacity="0.0"
     inkscape:pagecheckerboard="0"
     inkscape:deskcolor="#d1d1d1"
     inkscape:document-units="mm"
     showgrid="true"
     inkscape:zoom="2.8284271"
     inkscape:cx="669.09979"
     inkscape:cy="481.89327"
     inkscape:window-width="1457"
     inkscape:window-height="916"
     inkscape:window-x="28"
     inkscape:window-y="38"
     inkscape:window-maximized="0"
     inkscape:current-layer="layer1"
     showguides="true">
    <inkscape:grid
       type="xygrid"
       id="grid3609"
       units="mm"
       spacingx="5"
       spacingy="5"
       empspacing="1"
       dotted="false"
       empcolor="#c6ffff"
       empopacity="0.79215686" />
  </sodipodi:namedview>
  <defs
     id="defs2048">
    <rect
       x="699.2126"
       y="566.92913"
       width="170.07874"
       height="94.488189"
       id="rect11073" />
    <rect
       x="699.2126"
       y="510.23622"
       width="285.39165"
       height="170.78586"
       id="rect11017" />
  </defs>
  <g
     inkscape:label="0 reference"
     inkscape:groupmode="layer"
     id="layer1">
    <rect
       style="fill:none;stroke:#df0f16;stroke-width:0.264583;stop-color:#000000"
       id="rect2235"
       width="123.56042"
       height="88.635422"
       x="148.68031"
       y="10.132292" />
    <rect
       style="fill:none;stroke:#df0f16;stroke-width:0.264583;stop-color:#000000"
       id="rect2235-4"
       width="123.56042"
       height="88.635422"
       x="144.52394"
       y="104.79237" />
    <path
       id="rect2235-4-0"
       style="stroke-width:0.264583;stop-color:#000000"
       inkscape:label="rect2235-4-0"
       d="M 146.11149 106.38007 L 146.11149 108.49984 L 220.00001 108.49984 L 220.00001 111.50017 L 146.11149 111.50017 L 146.11149 113.50005 L 221.50017 113.50005 L 221.50017 118.49974 L 233.49996 118.49974 L 233.49996 116.49987 L 223.50005 116.49987 L 223.50005 108.49984 L 241.49999 108.49984 L 241.49999 118.49974 L 246.5002 118.49974 L 246.5002 173.5 L 248.50008 173.5 L 248.50008 116.49987 L 243.49987 116.49987 L 243.49987 108.49984 L 256.50011 108.49984 L 256.50011 113.50005 L 258.49998 113.50005 L 258.49998 108.49984 L 266.49691 108.49984 L 266.49691 106.38007 L 146.11149 106.38007 z M 226.49987 111.50017 L 226.49987 113.50005 L 236.49978 113.50005 L 236.49978 121.50008 L 218.49984 121.50008 L 218.49984 116.49987 L 146.11149 116.49987 L 146.11149 118.49974 L 216.49996 118.49974 L 216.49996 123.49996 L 241.49999 123.49996 L 241.49999 171.50013 L 163.5001 171.50013 L 163.5001 151.4998 L 156.50001 151.4998 L 156.50001 178.50022 L 253.49977 178.50022 L 253.49977 118.49974 L 266.49691 118.49974 L 266.49691 116.49987 L 263.5002 116.49987 L 263.5002 111.50017 L 261.4998 111.50017 L 261.4998 116.49987 L 253.49977 116.49987 L 253.49977 111.50017 L 246.5002 111.50017 L 246.5002 113.50005 L 251.49989 113.50005 L 251.49989 176.49982 L 246.5002 176.49982 L 158.49989 176.49982 L 158.49989 154.99984 L 161.50022 154.99984 L 161.50022 173.5 L 243.49987 173.5 L 243.49987 121.50008 L 238.50017 121.50008 L 238.50017 111.50017 L 226.49987 111.50017 z M 146.11149 121.50008 L 146.11149 123.49996 L 176.49982 123.49996 L 176.49982 166.49991 L 168.49979 166.49991 L 168.49979 131.49998 L 166.49991 131.49998 L 166.49991 146.5001 L 158.49989 146.5001 L 158.49989 131.49998 L 151.4998 131.49998 L 151.4998 133.49986 L 156.50001 133.49986 L 156.50001 140.00024 L 156.50001 146.5001 L 151.4998 146.5001 L 151.4998 183.49991 L 256.50011 183.49991 L 256.50011 188.50012 L 258.49998 188.50012 L 258.49998 123.49996 L 266.49691 123.49996 L 266.49691 121.50008 L 256.50011 121.50008 L 256.50011 181.50003 L 153.50019 181.50003 L 153.50019 148.49998 L 166.49991 148.49998 L 166.49991 168.49979 L 238.50017 168.49979 L 238.50017 126.49977 L 213.50015 126.49977 L 213.50015 121.50008 L 146.11149 121.50008 z M 179.99987 123.49996 L 211.49975 123.49996 L 211.49975 128.50017 L 236.49978 128.50017 L 236.49978 166.49991 L 178.50022 166.49991 L 178.50022 129.99982 L 178.50022 128.50017 L 208.49993 128.50017 L 208.49993 126.49977 L 179.99987 126.49977 L 179.99987 123.49996 z M 146.11149 126.49977 L 146.11149 191.84049 L 266.49691 191.84049 L 266.49691 186.50024 L 263.5002 186.50024 L 263.5002 126.49977 L 261.4998 126.49977 L 261.4998 191.49994 L 254.99994 191.49994 L 150.00015 191.49994 L 150.00015 188.50012 L 253.49977 188.50012 L 253.49977 186.50024 L 148.49998 186.50024 L 148.49998 143.49977 L 153.50019 143.49977 L 153.50019 141.49989 L 150.00015 141.49989 L 150.00015 138.50007 L 153.50019 138.50007 L 153.50019 136.5002 L 148.49998 136.5002 L 148.49998 128.50017 L 161.50022 128.50017 L 161.50022 143.49977 L 163.5001 143.49977 L 163.5001 128.50017 L 171.50013 128.50017 L 171.50013 163.5001 L 173.5 163.5001 L 173.5 126.49977 L 146.11149 126.49977 z M 181.50003 131.49998 L 181.50003 163.5001 L 233.49996 163.5001 L 233.49996 131.49998 L 181.50003 131.49998 z M 183.86888 134.61917 L 191.05397 134.61917 C 191.26343 134.61917 191.41777 134.66603 191.51699 134.75973 C 191.61621 134.84793 191.66858 134.994 191.67409 135.19795 L 191.76504 137.92646 C 191.76504 138.02568 191.7678 138.11939 191.77331 138.20758 C 191.77881 138.29578 191.78158 138.33712 191.78158 138.33161 C 191.78158 138.53005 191.72921 138.67887 191.62448 138.77809 C 191.51975 138.8718 191.36265 138.91865 191.15319 138.91865 C 190.93271 138.91865 190.78112 138.86353 190.69844 138.75329 C 190.61576 138.63753 190.5689 138.37295 190.55788 137.95954 L 190.4752 135.8098 L 188.10221 135.8098 L 188.10221 143.25947 L 189.37552 143.25947 L 189.69798 143.25947 C 189.92949 143.25947 190.09761 143.30633 190.20234 143.40003 C 190.30708 143.48823 190.35944 143.63154 190.35944 143.82998 C 190.35944 144.0229 190.30983 144.17173 190.21061 144.27646 C 190.11139 144.37568 189.96808 144.42529 189.78066 144.42529 L 185.14219 144.42529 C 184.95478 144.42529 184.81146 144.37568 184.71224 144.27646 C 184.61302 144.17173 184.56341 144.0229 184.56341 143.82998 C 184.56341 143.62603 184.61578 143.47996 184.72051 143.39176 C 184.83075 143.30357 185.01541 143.25947 185.27448 143.25947 L 185.54733 143.25947 L 186.82064 143.25947 L 186.82064 135.8098 L 184.44766 135.8098 L 184.36497 137.95954 C 184.35395 138.37295 184.30434 138.63753 184.21615 138.75329 C 184.13346 138.86353 183.9681 138.91865 183.72005 138.91865 C 183.52713 138.91865 183.38105 138.86904 183.28184 138.76982 C 183.18813 138.66509 183.14128 138.51351 183.14128 138.31507 L 183.14954 138.19105 C 183.15505 138.10285 183.15781 138.01466 183.15781 137.92646 L 183.24049 135.19795 C 183.25152 134.994 183.30664 134.84793 183.40586 134.75973 C 183.50508 134.66603 183.65942 134.61917 183.86888 134.61917 z M 193.98092 134.61917 L 194.33646 134.61917 L 196.06452 134.61917 C 196.50549 134.61917 196.78385 134.66327 196.89961 134.75146 C 197.02088 134.83415 197.08151 134.98849 197.08151 135.21449 C 197.08151 135.43497 197.0071 135.58931 196.85827 135.67751 C 196.70945 135.7657 196.42832 135.8098 196.01491 135.8098 L 195.64284 135.8098 L 195.64284 138.68714 L 199.60332 138.68714 L 199.60332 135.8098 L 199.04108 135.8098 C 198.72689 135.8098 198.50089 135.76294 198.36309 135.66924 C 198.2308 135.57553 198.16465 135.42395 198.16465 135.21449 C 198.16465 134.98849 198.22529 134.83415 198.34655 134.75146 C 198.47333 134.66327 198.77926 134.61917 199.26432 134.61917 L 200.9097 134.61917 L 201.28177 134.61917 C 201.48021 134.61917 201.62904 134.66878 201.72826 134.768 C 201.83299 134.86722 201.88535 135.01605 201.88535 135.21449 C 201.88535 135.42946 201.82747 135.5838 201.71172 135.67751 C 201.59597 135.7657 201.38926 135.8098 201.0916 135.8098 L 200.89316 135.8098 L 200.89316 143.25947 L 201.02546 143.25947 C 201.35618 143.25947 201.58219 143.30357 201.70345 143.39176 C 201.82472 143.47445 201.88535 143.62052 201.88535 143.82998 C 201.88535 144.05598 201.82747 144.21308 201.71172 144.30127 C 201.59597 144.38395 201.32863 144.42529 200.9097 144.42529 L 199.19818 144.42529 C 198.7517 144.42529 198.46782 144.38395 198.34655 144.30127 C 198.22529 144.21308 198.16465 144.05598 198.16465 143.82998 C 198.16465 143.61501 198.23631 143.46618 198.37962 143.3835 C 198.52294 143.30081 198.79579 143.25947 199.19818 143.25947 L 199.60332 143.25947 L 199.60332 139.81989 L 195.64284 139.81989 L 195.64284 143.25947 L 196.19681 143.25947 C 196.52203 143.25947 196.75079 143.30357 196.88307 143.39176 C 197.01536 143.47996 197.08151 143.62603 197.08151 143.82998 C 197.08151 144.05598 197.02363 144.21308 196.90788 144.30127 C 196.79212 144.38395 196.53856 144.42529 196.1472 144.42529 L 194.33646 144.42529 L 193.96439 144.42529 C 193.76044 144.42529 193.6061 144.37568 193.50137 144.27646 C 193.40215 144.17725 193.35254 144.02842 193.35254 143.82998 C 193.35254 143.61501 193.41042 143.46618 193.52617 143.3835 C 193.64744 143.30081 193.87344 143.25947 194.20417 143.25947 L 194.35299 143.25947 L 194.35299 135.8098 L 194.2207 135.8098 C 193.88998 135.8098 193.66122 135.7657 193.53444 135.67751 C 193.41317 135.58931 193.35254 135.43497 193.35254 135.21449 C 193.35254 135.01054 193.40215 134.86171 193.50137 134.768 C 193.6061 134.66878 193.76596 134.61917 193.98092 134.61917 z M 205.53164 134.61917 L 207.88809 134.61917 C 208.19125 134.61917 208.3952 134.66051 208.49993 134.7432 C 208.61017 134.82036 208.7094 134.96644 208.79759 135.18141 L 212.03047 143.25947 L 212.17103 143.25947 C 212.46868 143.25947 212.67263 143.30081 212.78288 143.3835 C 212.89312 143.46618 212.94824 143.61501 212.94824 143.82998 C 212.94824 144.05598 212.89587 144.21308 212.79115 144.30127 C 212.68641 144.38395 212.49073 144.42529 212.2041 144.42529 L 209.95514 144.42529 C 209.53622 144.42529 209.26612 144.38395 209.14486 144.30127 C 209.0291 144.21308 208.97122 144.05598 208.97122 143.82998 C 208.97122 143.62052 209.03461 143.47445 209.16139 143.39176 C 209.29368 143.30357 209.53898 143.25947 209.89727 143.25947 L 210.66621 143.25947 L 209.86419 141.29163 L 205.66393 141.29163 L 204.95286 143.25947 L 205.75488 143.25947 C 206.11868 143.25947 206.36673 143.30357 206.49902 143.39176 C 206.63131 143.47445 206.69746 143.62052 206.69746 143.82998 C 206.69746 144.05598 206.63682 144.21308 206.51556 144.30127 C 206.3998 144.38395 206.14073 144.42529 205.73835 144.42529 L 203.5638 144.42529 C 203.21103 144.42529 202.97676 144.38395 202.861 144.30127 C 202.74525 144.21308 202.68737 144.05598 202.68737 143.82998 C 202.68737 143.61501 202.74525 143.46618 202.861 143.3835 C 202.97676 143.30081 203.20001 143.25947 203.53073 143.25947 L 203.68783 143.25947 L 206.49902 135.8098 L 205.29186 135.8098 C 204.95562 135.8098 204.7186 135.7657 204.58079 135.67751 C 204.44851 135.5838 204.38236 135.42946 204.38236 135.21449 C 204.38236 134.98849 204.44024 134.83415 204.55599 134.75146 C 204.67726 134.66327 205.00248 134.61917 205.53164 134.61917 z M 214.52747 134.61917 L 215.30469 134.61917 C 215.55824 134.61917 215.73464 134.64949 215.83385 134.71012 C 215.93858 134.76524 216.05985 134.91132 216.19766 135.14834 L 220.36484 142.3417 L 220.36484 135.8098 L 220.04238 135.8098 L 219.45534 135.8098 C 219.15768 135.8098 218.93995 135.76294 218.80215 135.66924 C 218.66986 135.57002 218.60371 135.41843 218.60371 135.21449 C 218.60371 134.98849 218.66159 134.83415 218.77734 134.75146 C 218.8931 134.66327 219.13563 134.61917 219.50495 134.61917 L 221.48105 134.61917 L 221.87793 134.61917 C 222.07636 134.61917 222.22244 134.66878 222.31615 134.768 C 222.41536 134.86722 222.46497 135.01605 222.46497 135.21449 C 222.46497 135.43497 222.40434 135.58931 222.28307 135.67751 C 222.16732 135.7657 221.95234 135.8098 221.63815 135.8098 L 221.53893 135.8098 L 221.53893 144.1359 C 221.53893 144.29576 221.50035 144.406 221.42318 144.46663 C 221.35152 144.52727 221.18064 144.55758 220.91055 144.55758 C 220.64045 144.55758 220.47233 144.54105 220.40618 144.50798 C 220.34555 144.48041 220.24082 144.33985 220.09199 144.0863 L 215.69329 136.50433 L 215.69329 143.25947 L 216.11497 143.25947 L 216.72682 143.25947 C 217.02447 143.25947 217.2367 143.30357 217.36348 143.39176 C 217.49025 143.47996 217.55365 143.62603 217.55365 143.82998 C 217.55365 144.05598 217.49301 144.21308 217.37174 144.30127 C 217.25599 144.38395 216.99691 144.42529 216.59453 144.42529 L 214.52747 144.42529 L 214.13887 144.42529 C 213.94043 144.42529 213.7916 144.37568 213.69238 144.27646 C 213.59316 144.17725 213.54355 144.02842 213.54355 143.82998 C 213.54355 143.6095 213.59868 143.46066 213.70892 143.3835 C 213.82467 143.30081 214.04516 143.25947 214.37038 143.25947 L 214.52747 143.25947 L 214.52747 135.8098 L 214.32077 135.8098 C 213.85775 135.8098 213.54355 135.7657 213.37819 135.67751 C 213.21834 135.58931 213.13841 135.43497 213.13841 135.21449 C 213.13841 135.01054 213.20731 134.86446 213.34512 134.77627 C 213.48843 134.68256 213.71719 134.63571 214.03138 134.63571 L 214.19674 134.62744 C 214.30698 134.62194 214.41723 134.61917 214.52747 134.61917 z M 224.19303 134.61917 L 227.02077 134.61917 C 227.34598 134.61917 227.56647 134.66327 227.68223 134.75146 C 227.79798 134.83966 227.85586 134.994 227.85586 135.21449 C 227.85586 135.43497 227.78145 135.58931 227.63262 135.67751 C 227.48379 135.7657 227.20266 135.8098 226.78926 135.8098 L 226.41719 135.8098 L 226.41719 139.17497 L 229.86504 135.8098 L 229.76582 135.8098 L 229.58392 135.8098 C 229.31382 135.8098 229.11814 135.76294 228.99687 135.66924 C 228.87561 135.57553 228.81497 135.42395 228.81497 135.21449 C 228.81497 134.99951 228.86183 134.84793 228.95553 134.75973 C 229.04924 134.66603 229.20082 134.61917 229.41029 134.61917 L 231.84941 134.61917 C 232.03683 134.61917 232.18014 134.67154 232.27936 134.77627 C 232.37858 134.87549 232.42819 135.02156 232.42819 135.21449 C 232.42819 135.42946 232.36204 135.5838 232.22975 135.67751 C 232.10297 135.7657 231.87421 135.8098 231.54349 135.8098 L 231.42773 135.8098 L 228.22793 138.90212 C 228.70748 139.00133 229.17051 139.31002 229.61699 139.82816 C 230.06347 140.3463 230.75801 141.49008 231.70059 143.25947 L 231.84941 143.25947 C 232.19116 143.25947 232.41992 143.30081 232.53568 143.3835 C 232.65143 143.46618 232.70931 143.61501 232.70931 143.82998 C 232.70931 144.0229 232.6597 144.17173 232.56048 144.27646 C 232.46677 144.37568 232.32621 144.42529 232.1388 144.42529 L 231.34505 144.42529 C 231.16866 144.42529 231.03913 144.406 230.95645 144.36742 C 230.87927 144.32883 230.79935 144.24063 230.71667 144.10283 C 230.66706 144.02566 230.36113 143.46617 229.79889 142.42438 L 229.47643 141.8208 C 229.12917 141.17588 228.7819 140.69356 228.43464 140.37386 C 228.08737 140.04864 227.71805 139.85847 227.32669 139.80335 L 226.41719 140.66325 L 226.41719 143.25947 L 226.97116 143.25947 C 227.29637 143.25947 227.52513 143.30357 227.65742 143.39176 C 227.78971 143.47996 227.85586 143.62603 227.85586 143.82998 C 227.85586 144.05047 227.79798 144.20481 227.68223 144.293 C 227.56647 144.38119 227.34598 144.42529 227.02077 144.42529 L 224.19303 144.42529 C 224.00562 144.42529 223.8623 144.37568 223.76309 144.27646 C 223.66938 144.17173 223.62253 144.0229 223.62253 143.82998 C 223.62253 143.62603 223.67489 143.47996 223.77962 143.39176 C 223.88986 143.30357 224.07452 143.25947 224.33359 143.25947 L 224.59818 143.25947 L 225.12734 143.25947 L 225.12734 135.8098 L 224.59818 135.8098 C 224.17925 135.8098 223.91191 135.76846 223.79616 135.68577 C 223.6804 135.59758 223.62253 135.44048 223.62253 135.21449 C 223.62253 135.02156 223.66938 134.87549 223.76309 134.77627 C 223.8623 134.67154 224.00562 134.61917 224.19303 134.61917 z M 207.68138 135.8098 L 206.07734 140.19196 L 209.45905 140.19196 L 207.68138 135.8098 z M 217.43066 149.44256 C 218.73703 149.44256 219.80916 149.92763 220.647 150.89777 C 221.48484 151.8679 221.90377 153.10539 221.90377 154.6102 C 221.90377 156.12053 221.48484 157.36077 220.647 158.3309 C 219.80916 159.29553 218.73703 159.77784 217.43066 159.77784 C 216.1353 159.77784 215.06594 159.29277 214.22258 158.32264 C 213.38474 157.3525 212.96581 156.11501 212.96581 154.6102 C 212.96581 153.08885 213.38198 151.84861 214.21431 150.8895 C 215.04665 149.92487 216.11877 149.44256 217.43066 149.44256 z M 203.44908 149.71541 L 203.82115 149.71541 L 205.71458 149.71541 C 206.03979 149.71541 206.25752 149.75951 206.36777 149.8477 C 206.48352 149.93589 206.5414 150.09024 206.5414 150.31072 C 206.5414 150.53121 206.4725 150.68555 206.33469 150.77374 C 206.2024 150.86194 205.95711 150.90603 205.59882 150.90603 L 205.32597 150.90603 L 207.32688 154.49445 L 209.40221 150.90603 L 209.06321 150.90603 C 208.76555 150.90603 208.55885 150.86194 208.44309 150.77374 C 208.32734 150.68555 208.26946 150.53121 208.26946 150.31072 C 208.26946 150.07921 208.31907 149.92211 208.41829 149.83943 C 208.5175 149.75675 208.76831 149.71541 209.17069 149.71541 L 209.38567 149.71541 L 210.69205 149.71541 C 211.11097 149.71541 211.37831 149.75951 211.49407 149.8477 C 211.61533 149.93038 211.67597 150.08472 211.67597 150.31072 C 211.67597 150.53121 211.61533 150.68555 211.49407 150.77374 C 211.37831 150.86194 211.15507 150.90603 210.82434 150.90603 L 210.69205 150.90603 L 207.88085 155.72641 L 207.88085 158.35571 L 209.08801 158.35571 C 209.51245 158.35571 209.78254 158.39705 209.8983 158.47973 C 210.01957 158.5569 210.0802 158.70573 210.0802 158.92622 C 210.0802 159.15222 210.01957 159.30931 209.8983 159.39751 C 209.78254 159.48019 209.54552 159.52153 209.18723 159.52153 L 205.25982 159.52153 C 204.90153 159.52153 204.66451 159.48019 204.54875 159.39751 C 204.433 159.30931 204.37512 159.15222 204.37512 158.92622 C 204.37512 158.70573 204.43851 158.5569 204.56529 158.47973 C 204.69758 158.39705 204.96768 158.35571 205.37558 158.35571 L 206.57447 158.35571 L 206.57447 155.61066 L 203.82115 150.90603 L 203.68059 150.90603 C 203.34986 150.90603 203.12386 150.86194 203.0026 150.77374 C 202.88133 150.68555 202.82069 150.53121 202.82069 150.31072 C 202.82069 150.10677 202.8703 149.95794 202.96952 149.86424 C 203.07425 149.76502 203.23411 149.71541 203.44908 149.71541 z M 223.64836 149.71541 L 224.02043 149.71541 L 225.71542 149.71541 C 226.16191 149.71541 226.44578 149.75951 226.56705 149.8477 C 226.68832 149.93038 226.74895 150.08472 226.74895 150.31072 C 226.74895 150.53121 226.67729 150.68555 226.53398 150.77374 C 226.39066 150.86194 226.11781 150.90603 225.71542 150.90603 L 225.35989 150.90603 L 225.35989 155.43702 C 225.35989 156.04887 225.38745 156.49536 225.44257 156.77648 C 225.5032 157.05209 225.59967 157.30564 225.73196 157.53715 C 225.92488 157.87339 226.19222 158.13522 226.53398 158.32264 C 226.88124 158.51005 227.26434 158.60376 227.68326 158.60376 C 228.4715 158.60376 229.04476 158.36673 229.40305 157.89269 C 229.76685 157.41865 229.94875 156.65245 229.94875 155.59412 L 229.94875 150.90603 L 229.51054 150.90603 C 229.08059 150.90603 228.7912 150.86469 228.64237 150.78201 C 228.49906 150.69382 228.4274 150.53672 228.4274 150.31072 C 228.4274 150.08472 228.48528 149.93038 228.60103 149.8477 C 228.71679 149.75951 228.95657 149.71541 229.32037 149.71541 L 231.14765 149.71541 L 231.54452 149.71541 C 231.74296 149.71541 231.89179 149.76502 231.99101 149.86424 C 232.09574 149.96346 232.1481 150.11228 232.1481 150.31072 C 232.1481 150.53121 232.08747 150.68555 231.9662 150.77374 C 231.84494 150.86194 231.62445 150.90603 231.30474 150.90603 L 231.18899 150.90603 L 231.18899 155.77602 C 231.18899 157.11547 230.88858 158.12144 230.28775 158.79392 C 229.69244 159.46089 228.79396 159.79438 227.59231 159.79438 C 226.50642 159.79438 225.63825 159.46089 224.98782 158.79392 C 224.3429 158.12144 224.02043 157.21745 224.02043 156.08195 L 224.02043 150.90603 L 223.88814 150.90603 C 223.55741 150.90603 223.32866 150.86194 223.20188 150.77374 C 223.08061 150.68555 223.01998 150.53121 223.01998 150.31072 C 223.01998 150.10677 223.07235 149.95794 223.17708 149.86424 C 223.28181 149.76502 223.4389 149.71541 223.64836 149.71541 z M 217.43066 150.61665 C 216.49911 150.61665 215.76874 150.96943 215.23958 151.67498 C 214.71592 152.37502 214.45409 153.35343 214.45409 154.6102 C 214.45409 155.85594 214.71868 156.83436 215.24784 157.54542 C 215.78252 158.25098 216.51013 158.60376 217.43066 158.60376 C 218.3567 158.60376 219.0843 158.25098 219.61347 157.54542 C 220.14815 156.83436 220.41549 155.85594 220.41549 154.6102 C 220.41549 153.36446 220.14815 152.3888 219.61347 151.68325 C 219.0843 150.97218 218.3567 150.61665 217.43066 150.61665 z " />
    <g
       id="rect2235-4-3"
       style="display:inline" />
    <rect
       style="display:inline;fill:none;fill-opacity:1;stroke:#f60000;stroke-width:0.299999;stroke-dasharray:none;stroke-opacity:1;stop-color:#000000"
       id="rect4912"
       width="215.59999"
       height="279.10001"
       x="81.250008"
       y="0.1499995" />
    <g
       id="rect10961"
       style="display:inline" />
    <g
       aria-label="THANK"
       transform="matrix(0.26458333,0,0,0.26458333,-2.6192414,-5.4576706)"
       id="text11015"
       style="font-size:64px;line-height:1.25;font-family:Courier;-inkscape-font-specification:'Courier, Normal';white-space:pre;shape-inside:url(#rect11017)" />
    <g
       aria-label="YOU"
       transform="matrix(0.26458333,0,0,0.26458333,17.192409,-5.3613729)"
       id="text11071"
       style="font-size:64px;line-height:1.25;font-family:Courier;-inkscape-font-specification:'Courier, Normal';white-space:pre;shape-inside:url(#rect11073);fill:#b60000" />
  </g>
  <plotdata
     application="axidraw"
     model="2"
     layer="-2"
     node="0"
     last_path="0"
     node_after_path="0"
     last_known_x="0"
     last_known_y="0"
     paused_x="0"
     paused_y="0"
     randseed="0"
     row="0"
     id="1704569886" />
</svg>
