<?xml version="1.0" encoding="UTF-8" standalone="no"?>
<!-- Created with Inkscape (http://www.inkscape.org/) -->

<svg
   width="297mm"
   height="420mm"
   viewBox="0 0 297 420"
   version="1.1"
   id="svg2051"
   inkscape:version="1.2.1 (9c6d41e, 2022-07-14)"
   sodipodi:docname="thank-you-card-maze.svg"
   xmlns:inkscape="http://www.inkscape.org/namespaces/inkscape"
   xmlns:sodipodi="http://sodipodi.sourceforge.net/DTD/sodipodi-0.dtd"
   xmlns="http://www.w3.org/2000/svg"
   xmlns:svg="http://www.w3.org/2000/svg">
  <sodipodi:namedview
     id="namedview2053"
     pagecolor="#ffffff"
     bordercolor="#666666"
     borderopacity="1.0"
     inkscape:showpageshadow="2"
     inkscape:pageopacity="0.0"
     inkscape:pagecheckerboard="0"
     inkscape:deskcolor="#d1d1d1"
     inkscape:document-units="mm"
     showgrid="true"
     inkscape:zoom="0.5"
     inkscape:cx="791"
     inkscape:cy="572"
     inkscape:window-width="1457"
     inkscape:window-height="916"
     inkscape:window-x="28"
     inkscape:window-y="38"
     inkscape:window-maximized="0"
     inkscape:current-layer="layer1"
     showguides="true">
    <sodipodi:guide
       position="181.86534,264.99999"
       orientation="0,-1"
       id="guide2973"
       inkscape:locked="false" />
    <sodipodi:guide
       position="209.57815,287"
       orientation="1,0"
       id="guide2975"
       inkscape:locked="false" />
    <inkscape:grid
       type="xygrid"
       id="grid3609"
       units="mm"
       spacingx="5"
       spacingy="5"
       empspacing="1"
       dotted="false" />
    <sodipodi:guide
       position="170,229.99999"
       orientation="1,0"
       id="guide3857"
       inkscape:locked="false" />
  </sodipodi:namedview>
  <defs
     id="defs2048" />
  <g
     inkscape:label="0 reference"
     inkscape:groupmode="layer"
     id="layer1">
    <rect
       style="fill:none;stroke:#df0f16;stroke-width:0.264583;stop-color:#000000"
       id="rect2235"
       width="123.56042"
       height="88.635422"
       x="148.68031"
       y="10.132292" />
    <rect
       style="fill:none;stroke:#df0f16;stroke-width:0.264583;stop-color:#000000"
       id="rect2235-4"
       width="123.56042"
       height="88.635422"
       x="148.22806"
       y="110.61319" />
    <g
       id="rect2235-4-3" />
    <path
       id="path5436"
       style="color:#000000;display:inline;fill:#000000;stroke-width:0.264583;-inkscape-stroke:none"
       d="M 149.81566 112.2009 L 149.81566 123.49996 L 168.49979 123.49996 L 168.49979 121.50008 L 153.50019 121.50008 L 153.50019 113.50005 L 196.50015 113.50005 L 221.50017 113.50005 L 235.00013 113.50005 L 235.00013 116.49987 L 221.50017 116.49987 L 221.50017 118.49974 L 236.08223 118.49974 L 238.50017 125.75408 L 238.50017 113.50005 L 256.50011 113.50005 L 256.50011 121.37915 L 263.93944 113.9393 L 266.06076 116.06062 L 253.49977 128.62109 L 253.49977 116.49987 L 241.49999 116.49987 L 241.49999 135.00003 L 238.57614 135.47442 L 233.91802 121.50008 L 220.00001 121.50008 L 200.0002 121.50008 L 200.0002 118.49974 L 218.49984 118.49974 L 218.49984 116.49987 L 196.50015 116.49987 L 196.50015 135.00003 L 193.49982 135.00003 L 193.49982 121.50008 L 175.00017 121.50008 L 175.00017 118.49974 L 193.49982 118.49974 L 193.49982 116.49987 L 156.50001 116.49987 L 156.50001 118.49974 L 171.50013 118.49974 L 171.50013 123.49996 L 181.50003 123.49996 L 181.50003 131.49998 L 176.49982 131.49998 L 176.49982 158.49989 L 178.50022 158.49989 L 178.50022 135.00003 L 181.50003 135.00003 L 181.50003 161.50022 L 173.5 161.50022 L 173.5 131.49998 L 171.50013 131.49998 L 171.50013 161.50022 L 163.5001 161.50022 L 163.5001 131.49998 L 161.50022 131.49998 L 161.50022 160.00005 L 158.49989 160.00005 L 158.49989 131.49998 L 156.50001 131.49998 L 156.50001 163.5001 L 183.49991 163.5001 L 183.49991 123.49996 L 191.49994 123.49996 L 191.49994 138.50007 L 201.49985 138.50007 L 201.49985 158.49989 L 203.50024 158.49989 L 203.50024 136.5002 L 198.50003 136.5002 L 198.50003 123.49996 L 211.07807 123.49996 L 211.07807 138.50007 L 216.49996 138.50007 L 216.49996 143.49977 L 220.00001 143.49977 L 220.00001 146.5001 L 213.50015 146.5001 L 213.50015 141.49989 L 211.07807 141.49989 L 211.07807 163.5001 L 213.50015 163.5001 L 213.50015 148.49998 L 221.50017 148.49998 L 221.50017 163.5001 L 223.50005 163.5001 L 223.50005 144.99993 L 223.50005 141.49989 L 218.49984 141.49989 L 218.49984 136.5002 L 213.50015 136.5002 L 213.50015 129.99982 L 213.50015 123.49996 L 231.03913 123.49996 L 243.49987 156.72842 L 243.49987 123.49996 L 251.49989 123.49996 L 251.49989 136.37876 L 266.50001 121.37915 L 266.50001 135.62118 L 251.98049 150.14071 L 268.00018 171.50013 L 266.50001 171.50013 L 266.50001 175.00017 L 266.50001 196.50015 L 258.49998 196.50015 L 258.49998 176.49982 L 256.50011 176.49982 L 256.50011 194.99998 L 253.49977 194.99998 L 253.49977 173.5 L 261.4998 173.5 L 261.4998 193.49982 L 263.5002 193.49982 L 263.5002 175.00017 L 263.5002 171.50013 L 254.37879 171.50013 L 251.49989 168.62123 L 251.49989 171.50013 L 241.49999 171.50013 L 241.49999 185.00008 L 238.50017 185.00008 L 238.50017 171.50013 L 238.50017 165.28914 L 231.50008 147.78891 L 231.50008 168.49979 L 236.49978 168.49979 L 236.49978 188.50012 L 243.49987 188.50012 L 243.49987 173.5 L 251.49989 173.5 L 251.49989 196.50015 L 228.49975 196.50015 L 228.49975 176.49982 L 223.50005 176.49982 L 223.50005 171.50013 L 211.07807 171.50013 L 211.07807 173.5 L 221.50017 173.5 L 221.50017 193.49982 L 223.50005 193.49982 L 223.50005 179.99987 L 226.49987 179.99987 L 226.49987 196.50015 L 221.50017 196.50015 L 204.99989 196.50015 L 193.49982 196.50015 L 193.49982 188.50012 L 198.50003 188.50012 L 198.50003 186.50024 L 193.49982 186.50024 L 193.49982 179.37872 L 198.93928 173.93925 L 201.0606 176.06057 L 196.50015 180.62102 L 196.50015 183.49991 L 201.49985 183.49991 L 201.49985 191.49994 L 196.50015 191.49994 L 196.50015 193.49982 L 203.50024 193.49982 L 203.50024 171.50013 L 200.0002 171.50013 L 195.92758 171.50013 L 189.99977 183.35367 L 184.07249 171.50013 L 182.42556 171.50013 L 191.82447 190.29691 L 185.62123 196.50015 L 179.99987 196.50015 L 169.99996 196.50015 L 149.81566 196.50015 L 149.81566 197.66132 L 270.20108 197.66132 L 270.20108 112.2009 L 149.81566 112.2009 z M 149.81566 126.49977 L 149.81566 193.49982 L 169.99996 193.49982 L 179.99987 193.49982 L 182.34959 193.49982 L 169.1504 171.50013 L 156.50001 171.50013 L 156.50001 188.50012 L 172.19724 188.50012 L 164.19721 176.49982 L 161.50022 176.49982 L 161.50022 183.49991 L 163.5001 183.49991 L 163.5001 179.99987 L 166.49991 179.99987 L 166.49991 186.50024 L 158.49989 186.50024 L 158.49989 173.5 L 165.8028 173.5 L 177.80258 191.49994 L 153.50019 191.49994 L 153.50019 168.49979 L 170.84952 168.49979 L 185.29825 192.58049 L 188.17559 189.70315 L 177.57211 168.49979 L 185.92767 168.49979 L 189.99977 176.64658 L 194.07239 168.49979 L 200.0002 168.49979 L 206.50006 168.49979 L 206.50006 193.49982 L 218.49984 193.49982 L 218.49984 176.49982 L 211.07807 176.49982 L 211.07807 188.50012 L 213.50015 188.50012 L 213.50015 179.99987 L 216.49996 179.99987 L 216.49996 191.49994 L 208.07826 191.49994 L 208.07826 176.49982 L 208.07826 168.49979 L 226.49987 168.49979 L 226.49987 173.5 L 231.50008 173.5 L 231.50008 193.49982 L 248.50008 193.49982 L 248.50008 176.49982 L 246.5002 176.49982 L 246.5002 191.49994 L 233.49996 191.49994 L 233.49996 171.50013 L 228.49975 171.50013 L 228.49975 140.00024 L 231.39259 139.44317 L 241.49999 164.71088 L 241.49999 168.49979 L 248.50008 168.49979 L 248.50008 161.37878 L 255.62109 168.49979 L 262.00003 168.49979 L 248.01949 149.85959 L 263.5002 134.37888 L 263.5002 128.62109 L 248.50008 143.62121 L 248.50008 126.49977 L 246.5002 126.49977 L 246.5002 164.99975 L 243.59547 165.52736 L 228.9607 126.49977 L 216.49996 126.49977 L 216.49996 128.50017 L 226.49987 128.50017 L 226.49987 133.49986 L 229.99991 133.49986 L 229.99991 136.5002 L 223.50005 136.5002 L 223.50005 131.49998 L 216.49996 131.49998 L 216.49996 133.49986 L 221.50017 133.49986 L 221.50017 138.50007 L 226.49987 138.50007 L 226.49987 144.99993 L 226.49987 166.49991 L 218.49984 166.49991 L 218.49984 151.4998 L 216.49996 151.4998 L 216.49996 166.49991 L 208.07826 166.49991 L 208.07826 126.49977 L 201.49985 126.49977 L 201.49985 133.49986 L 206.50006 133.49986 L 206.50006 161.50022 L 198.50003 161.50022 L 198.50003 141.49989 L 191.49994 141.49989 L 191.49994 163.64634 L 193.49982 159.64659 L 193.49982 144.99993 L 196.50015 144.99993 L 196.50015 160.35352 L 191.34181 170.66969 L 188.50012 169.99996 L 188.50012 141.49989 L 188.50012 126.49977 L 186.50024 126.49977 L 186.50024 166.49991 L 153.50019 166.49991 L 153.50019 128.50017 L 166.49991 128.50017 L 166.49991 158.49989 L 168.49979 158.49989 L 168.49979 128.50017 L 178.50022 128.50017 L 178.50022 126.49977 L 149.81566 126.49977 z " />
    <rect
       style="display:inline;fill:none;fill-opacity:1;stroke:#f60000;stroke-width:0.299999;stroke-dasharray:none;stroke-opacity:1;stop-color:#000000"
       id="rect4912"
       width="215.59999"
       height="279.10001"
       x="81.250008"
       y="0.1499995" />
  </g>
  <plotdata
     application="axidraw"
     model="2"
     layer="-2"
     node="0"
     last_path="0"
     node_after_path="0"
     last_known_x="0"
     last_known_y="0"
     paused_x="0"
     paused_y="0"
     randseed="0"
     row="0"
     id="1704569886" />
</svg>
