<?xml version="1.0" encoding="UTF-8" standalone="no"?>
<!-- Created with Inkscape (http://www.inkscape.org/) -->

<svg
   width="297mm"
   height="420mm"
   viewBox="0 0 297 420"
   version="1.1"
   id="svg2051"
   inkscape:version="1.2.1 (9c6d41e, 2022-07-14)"
   sodipodi:docname="thank-you-card-shadow.svg"
   xmlns:inkscape="http://www.inkscape.org/namespaces/inkscape"
   xmlns:sodipodi="http://sodipodi.sourceforge.net/DTD/sodipodi-0.dtd"
   xmlns="http://www.w3.org/2000/svg"
   xmlns:svg="http://www.w3.org/2000/svg">
  <sodipodi:namedview
     id="namedview2053"
     pagecolor="#ffffff"
     bordercolor="#666666"
     borderopacity="1.0"
     inkscape:showpageshadow="2"
     inkscape:pageopacity="0.0"
     inkscape:pagecheckerboard="0"
     inkscape:deskcolor="#d1d1d1"
     inkscape:document-units="mm"
     showgrid="false"
     inkscape:zoom="0.53138534"
     inkscape:cx="540.0977"
     inkscape:cy="210.76984"
     inkscape:window-width="1512"
     inkscape:window-height="916"
     inkscape:window-x="0"
     inkscape:window-y="38"
     inkscape:window-maximized="1"
     inkscape:current-layer="layer4" />
  <defs
     id="defs2048" />
  <g
     inkscape:label="0 reference"
     inkscape:groupmode="layer"
     id="layer1">
    <rect
       style="fill:none;stroke:#df0f16;stroke-width:0.264583;stop-color:#000000"
       id="rect2235"
       width="123.56042"
       height="88.635422"
       x="160.13229"
       y="10.132292" />
    <rect
       style="fill:none;stroke:#df0f16;stroke-width:0.264583;stop-color:#000000"
       id="rect2235-4"
       width="123.56042"
       height="88.635422"
       x="160.13229"
       y="84.269356" />
    <rect
       style="display:inline;fill:none;fill-opacity:1;stroke:#f60000;stroke-width:0.299999;stroke-dasharray:none;stroke-opacity:1;stop-color:#000000"
       id="rect4912"
       width="215.59999"
       height="279.10001"
       x="81.250008"
       y="0.1499995" />
  </g>
  <g
     inkscape:groupmode="layer"
     id="layer2"
     inkscape:label="1 shadow"
     style="display:none">
    <g
       id="g4826"
       transform="translate(0,55.033344)">
      <path
         id="path2279"
         style="fill:none;stroke:#f60000;stroke-width:0.264583;stroke-opacity:1"
         d="m 189.06546,34.895544 -12.66434,1.135332 0.0734,0.06305 2.47685,0.0067 0.001,2.503723 0.0233,-5.17e-4 0.002,-0.0062 v 0.0062 l 0.0139,-5.17e-4 -0.007,0.512631 0.0248,2.027783 0.0434,-0.0047 -0.0341,0.06511 -0.0326,1.312065 -0.12196,0.01137 -0.0191,1.142049 0.12764,-5.17e-4 0.0331,2.514575 0.0486,0.0016 -0.003,0.07906 2.42207,-0.03772 -0.0222,1.205094 0.0465,-0.0041 0.0227,-1.362191 0.0233,0.104387 0.90072,0.0124 0.0801,-0.0083 1.5074,-0.02842 -0.004,0.857829 0.0713,1.656229 -2.62309,0.03876 0.0202,-1.208711 -0.046,0.0047 -0.0227,1.219047 -2.28513,0.06976 -0.076,-1.049032 -0.0739,0.0072 -0.0403,1.012858 h -0.01 l 0.11317,2.454114 4.91392,-0.481108 0.006,-1.973006 -0.10542,0.0021 0.10542,-0.06563 v 0.06356 l 2.46496,-0.04651 0.093,1.768885 0.004,-5.17e-4 v 0.0078 l -0.004,5.17e-4 0.0367,0.700216 0.0636,-0.0031 -0.12764,1.780253 -0.003,0.154513 -0.008,10e-4 -0.047,0.654741 0.0512,-0.001 0.24081,2.561601 -1.32343,-0.0072 1.03715,0.02325 0.0305,1.763716 0.10387,-0.01033 v 0.0021 l -0.10387,0.0093 0.0109,0.614432 0.10593,-5.16e-4 0.007,2.554883 -0.0171,-5.17e-4 -0.001,0.0615 5.06481,-0.516248 -0.0997,-2.057239 0.10749,0.0093 2.36523,0.07648 -5.2e-4,-0.03204 -0.0439,-0.09922 2.64273,0.07751 0.0971,2.388484 2.49287,-0.225309 0.15555,-2.151806 -0.21342,0.0062 0.21445,-0.01912 -0.001,0.01292 1.47174,-0.04341 -1.1777,0.0088 0.0594,-0.0067 1.97197,-0.09922 0.002,-0.696082 -1.99678,0.192236 1.99729,-0.202054 0.005,-1.626774 -0.0811,0.0046 -0.047,-2.585371 0.11162,0.02584 2.55023,0.06563 -0.15296,2.352311 -0.95188,0.05478 1.07952,0.09353 0.0749,2.483053 -2.47892,-0.05943 v 5.17e-4 l 2.34611,0.09457 0.003,2.276347 0.0863,-0.0083 -0.002,0.206706 4.97438,-0.525549 0.0475,-1.923914 0.0537,-0.135392 1.72445,0.04444 -1.76475,-0.07803 0.0486,-2.407088 -0.0243,5.17e-4 v -0.02377 l -0.0351,-0.0072 0.0357,-5.17e-4 0.0253,-2.536279 -0.03,10e-4 v -0.01137 l -0.19327,-0.02842 0.19327,0.0031 0.003,-2.517676 0.0708,0.0124 0.5426,-0.0155 -0.55604,-0.0186 -0.12041,-2.436027 -0.0393,-10e-4 -0.0134,5.16e-4 v -5.16e-4 l -2.35334,-0.04237 -0.009,-0.948779 -0.0444,0.0041 -5.1e-4,-0.02429 0.045,-0.0047 -0.0139,-1.526522 -0.0997,-0.05116 2.58537,0.172082 0.005,2.419491 2.47788,-0.05168 0.10852,2.57452 -0.0444,-0.0016 -0.003,0.06356 -0.0165,0.0016 v -0.06563 l -0.0946,-0.0031 -0.007,2.426209 -1.6428,0.04858 1.65623,0.02842 0.11938,2.492871 -0.91829,0.02429 0.9188,-0.0067 0.004,2.571419 -0.0987,-0.0041 -0.0579,1.720308 0.0992,-0.01034 0.0729,0.778247 2.49959,-0.235644 -0.0419,-2.225704 -0.063,-0.115239 h 2.66392 l -0.11111,2.109949 0.0398,-0.0036 -0.003,0.544152 5.06377,-0.562756 -0.0481,-1.952852 -0.0253,10e-4 0.0233,-0.08217 0.002,0.08113 2.52387,-0.08785 -0.0357,2.482536 -0.045,0.0026 -0.003,0.05736 10.14357,-1.014408 0.13178,-1.442806 -0.13178,-0.135392 -5.2e-4,0.02377 -2.55178,-0.06976 0.0708,-2.366264 0.0806,-0.05736 -0.0455,5.17e-4 -0.0424,-1.289327 -0.0315,-10e-4 h -0.001 l 0.0181,-0.436149 -0.0248,-0.747758 h -0.005 l 0.004,-0.03359 0.001,0.03359 0.0553,10e-4 0.0145,-0.351917 -0.0274,-0.929659 -0.0698,0.0067 0.0444,-0.843359 -0.0124,-0.418579 0.0336,0.01757 0.004,-0.06666 -7.5799,0.03772 0.0103,-0.286288 7.56905,-0.736906 -0.0651,-1.452624 0.003,-0.0041 -2.47943,-0.03204 0.005,-0.467154 2.58072,-0.259933 -0.005,-0.464054 -2.57142,0.241329 0.003,-0.264584 2.56883,0.02325 -0.015,-1.397331 -0.1111,-0.06976 2.68924,0.188102 -0.062,1.491899 0.0403,-0.0041 -0.015,0.934827 -0.009,10e-4 -0.0279,0.01344 0.0336,0.001 -0.0532,1.623674 0.0103,0.898136 0.031,-0.0026 0.006,0.01034 -0.0212,1.841232 0.0341,0.667659 2.80707,-0.2682 -2.80552,0.296622 0.005,0.102836 -0.0543,-0.0052 0.0248,2.337325 2.5399,-0.236162 -2.57142,0.261483 -0.0388,-1.157552 -0.017,-5.17e-4 -0.045,1.169438 0.14263,0.0026 -0.0682,2.480469 2.57968,0.0098 -0.004,0.07286 0.0336,-0.02377 2.14199,-0.0088 0.2713,-0.0155 0.0346,-0.733289 -0.0103,-0.375171 h 0.0279 l 0.0646,-1.385445 -0.0863,-0.05116 2.61689,-0.02119 0.0227,2.566252 -0.20051,0.0016 -0.0294,0.01964 0.007,0.08733 0.0692,-0.0026 -0.005,0.817005 0.12816,1.62419 -0.0527,0.0052 -0.008,2.468066 h 5.1e-4 v 0.0036 h -5.1e-4 v 0.0067 l 0.11937,10e-4 -0.0837,2.565218 h 5.2e-4 l 0.0439,1.241785 7.45225,0.04909 -7.42797,0.648023 0.0207,0.586527 12.45557,-1.317749 -0.0708,-2.45618 -0.004,5.16e-4 0.0579,-2.482019 -7.08484,0.652157 7.13651,-0.689881 -0.03,-1.552876 4.98419,-0.502295 0.0217,-1.683102 -1.9513,-0.02842 -3.0546,0.001 0.005,-0.118339 2.4014,-0.22686 0.17312,-2.198832 0.008,-10e-4 -0.0589,-2.485637 0.0915,0.01447 2.30426,-0.0036 0.17518,2.339392 -2.01435,0.141077 1.85157,0.03876 0.15554,1.90221 0.0207,-0.0021 0.0233,0.521415 -0.002,5.17e-4 0.001,0.0124 h 0.002 l 0.002,0.03566 0.001,0.01602 0.49712,-0.05271 1.93115,-0.0031 0.0403,-0.0036 0.007,-0.03101 -0.008,-0.0052 0.009,5.17e-4 0.003,-0.01189 5.2e-4,0.0124 0.20567,0.01395 2.24017,-0.216007 0.0103,-0.22531 0.0124,-0.0016 -5.1e-4,-0.03049 -0.0103,10e-4 0.009,-0.192237 -0.016,-1.819527 0.0444,-0.0088 0.0723,-2.386934 -0.16898,5.16e-4 0.17002,-0.02687 -10e-4,0.02636 2.58176,-0.0078 -0.11162,2.504757 -1.24437,-0.02739 1.21956,0.08372 -0.0124,1.114661 h 0.0233 l 0.0233,0.488342 -0.0522,0.0052 v 0.0083 l 0.0522,-0.0057 0.0119,0.246496 -0.0672,0.0072 0.0672,-0.0062 0.0238,0.498161 12.54548,-1.288294 0.0754,-2.486153 -7.61039,0.7922 -0.002,-0.04961 7.57215,-0.780831 -0.0791,-2.477368 -6.24717,0.623218 6.32416,-0.682646 0.0227,-2.436544 -7.59437,0.784965 0.004,-0.100252 7.49825,-0.79685 0.0119,-2.501656 -0.0243,0.0026 0.0987,-2.361096 -2.60708,0.04599 -5.07514,0.510563 5.2e-4,-0.606164 -2.57659,0.191719 -4.9568,0.423747 0.002,-0.647506 -2.41071,-0.02067 -7.66,0.783415 5.2e-4,-0.01137 7.61969,-0.780314 -2.65513,0.02119 -4.95371,0.488859 0.0212,-0.541569 -2.55902,0.105937 -5.00744,0.470255 -0.0315,-0.544669 -2.48254,0.02894 -7.58093,0.77308 0.0227,-0.669727 -2.52542,0.0155 -5.05861,0.449585 0.004,-0.475423 -6.62027,0.596346 6.53862,-0.625802 0.0858,-2.467549 -12.6075,1.181323 -0.002,0.05943 -0.0357,5.17e-4 -0.0186,0.234611 0.0243,1.294494 -0.0444,0.0036 -0.0253,-0.361735 h -0.0284 l -0.0972,1.224214 -2.18436,0.02067 -0.0724,-1.224732 -0.0387,5.17e-4 -5.05706,0.510563 0.007,-0.547253 -2.44327,-0.01344 -6.22856,0.619084 6.20944,-0.649573 -2.56625,0.118856 -7.63416,0.667143 0.0357,-0.6165 -2.59467,-0.127641 -0.19224,0.01964 -2.27996,-0.116789 -0.003,-2.245341 -1.95233,0.161231 1.91048,-0.185002 0.10542,-2.550749 -12.55789,1.135332 12.41991,-1.273824 0.0672,-2.421041 -11.51299,1.156001 11.48043,-1.283125 -0.0269,-2.383317 z m 75.64706,23.623365 -10e-4,0.0279 0.0258,-0.0026 v -0.0279 z m -10e-4,0.0279 -1.94045,0.208773 1.03456,0.07131 -1.2671,5.17e-4 2.13733,0.02377 -0.003,-0.19327 0.032,0.02067 z m -1.94045,0.208773 -0.29869,-0.02067 -0.17105,0.01654 0.0698,0.04703 z m -0.46974,-0.0041 -0.0346,-0.02325 5.2e-4,0.02636 z M 209.18516,48.739661 h 0.0134 l 0.0393,-5.17e-4 -0.007,-0.141077 z m 20.21582,-8.87026 -2.53627,0.133325 -11.27115,1.092957 1.37511,0.04289 -0.0388,1.025777 -0.005,1.491899 12.53361,-1.189591 z m -53.02725,2.892847 -9.28315,0.875398 1.84898,0.04031 -0.015,1.631942 0.008,0.845426 7.53546,-0.767395 -0.0134,-1.638143 0.0429,-0.06563 1.10175,-0.0067 -1.22422,-0.06046 z m -9.28315,0.875398 -0.66146,-0.01447 0.0579,0.07131 z m 9.37824,1.857251 -7.53546,0.689881 5.1e-4,0.04806 h -0.0682 l 0.001,0.51108 0.0124,0.724503 7.54631,-0.04237 -0.0119,-1.299663 0.0372,-0.01033 0.0233,5.17e-4 z m -7.58972,1.973523 h -0.0103 l 0.002,0.68678 0.0202,-0.0021 z m 0.0114,0.684713 0.008,0.481624 7.53184,-0.721919 -0.005,-0.483175 z m 90.79755,-2.058272 0.16692,2.578137 -0.14366,10e-4 0.0527,2.41949 -1.92133,0.104903 1.96009,0.144178 -0.0987,2.331123 -2.55643,0.04237 0.009,-2.463415 -0.004,-0.104904 0.0124,0.001 0.0754,-2.441712 0.008,-0.04909 h 0.0186 l -0.001,-2.407088 -0.0677,0.0041 0.0677,-0.151412 v 0.147278 z m -65.51073,0.03411 0.0491,0.07286 2.37711,0.0088 0.002,-0.02481 0.0155,5.17e-4 v 0.301274 l 0.11213,2.189013 -2.57193,0.06976 v 0.05994 l -2.51354,-0.111104 -0.11524,2.02675 0.0651,-0.0062 0.002,0.06925 -0.0713,0.0067 -0.0232,0.411861 -2.47633,0.04031 0.12867,-2.421041 -0.10904,0.0062 0.11007,-0.02997 -0.001,0.02377 2.49029,-0.147795 -0.0191,-2.453597 h -0.0217 l 0.0217,-0.03152 v 0.03152 l 2.53214,-0.0036 v 1.261938 z m 55.42246,0.01499 5.2e-4,0.01602 0.15296,0.0098 2.36471,0.178283 -0.0284,2.437578 -2.49855,0.01344 -0.002,-0.07545 -2.49029,0.0925 0.10749,2.536279 -0.18449,-0.0021 0.0403,2.33009 0.10697,-0.0093 0.0667,2.704227 -0.11885,-0.0047 -0.0134,1.483114 0.0377,-0.0036 5.2e-4,0.01602 -0.0382,0.0031 -0.008,0.943612 -2.56212,0.06356 0.14573,-2.572453 -0.0444,0.0026 0.046,-0.02997 -0.0708,-0.0026 -0.006,-2.374532 -0.0253,0.0021 0.0253,-0.08992 v 0.08785 l 1.38286,-0.12299 -1.35805,-0.116271 -0.0713,-2.340426 0.0532,-0.126607 0.0661,0.0026 -0.0739,-2.350244 0.10025,-0.04496 2.39107,-0.09405 0.004,0.0894 0.15296,-2.535246 -0.29456,-0.06046 z m -4.91908,10.132715 -0.002,0.02739 0.29146,-0.01602 z m -40.49985,-10.12703 0.0419,1.844332 0.0439,-0.0047 5.2e-4,0.0041 -0.0444,0.0041 0.016,0.700216 h 0.006 v 5.16e-4 l 2.52026,-0.0041 0.008,2.62413 -2.54093,-0.0646 5.2e-4,-0.10697 -2.5089,0.03721 -0.092,-2.402437 -0.0481,-0.211874 0.0656,0.0052 0.12351,-2.297018 -0.0858,0.0047 0.0915,-0.112138 -0.006,0.107487 z m 0.0641,2.548681 h -0.006 l 0.002,0.07855 0.004,5.16e-4 5.2e-4,0.05168 z m -0.006,0 v -5.16e-4 l -0.0424,5.16e-4 z m 17.65938,-2.544547 2.5337,0.06511 -0.0222,2.575554 -2.54248,-0.07286 0.0393,-1.237651 -0.0822,0.0016 -0.10801,0.01137 -0.002,-0.02222 0.15244,-0.01499 0.0408,5.17e-4 0.0398,-1.256771 z m 42.79016,0.01395 0.0806,0.05426 0.0429,-5.17e-4 0.005,-0.04082 1.25677,0.0052 -0.23616,0.02377 1.43609,-0.01654 0.0279,2.509408 -1.37305,0.05013 1.43196,-0.02429 -0.0326,1.808158 0.0439,-0.0047 0.002,0.04444 -0.0465,0.0041 -0.0109,0.604098 0.14159,-0.0052 -0.17828,1.727026 0.0398,-0.0041 -5.2e-4,0.02687 -0.0419,0.0041 -0.0842,0.817005 -2.36161,0.0677 -0.0847,-2.52026 h -0.0687 l 5.1e-4,-0.02067 -0.0279,10e-4 0.0279,-0.0098 0.0398,-2.565218 0.0868,0.06873 0.0202,-5.17e-4 z m -0.0109,5.100463 v 0.0088 l 0.0677,-0.0026 -0.001,-0.02894 z m -47.89836,-5.087028 0.0682,1.774052 0.0527,-0.0052 0.003,0.05426 -0.0537,0.0057 0.0258,0.675928 -1.51308,0.05839 1.50843,0.02584 -0.0703,2.461865 2.56367,0.129708 -0.0579,2.318205 -2.36213,0.03101 -0.001,0.077 2.36058,-0.0217 0.13384,2.503207 h -0.0382 l -5.2e-4,0.03256 2.41071,0.01395 0.15658,2.392619 -2.60088,0.077 0.0336,-2.483569 h -0.0248 l 0.0248,-0.03256 -2.48822,0.0052 0.007,-0.523482 -0.0889,0.0088 0.005,0.377755 -2.54145,0.204122 0.0248,-2.603976 0.0248,0.02532 2.46238,0.01188 0.0248,1.974557 0.0889,-0.0078 0.0258,-1.953886 h -0.0165 l 0.0103,-0.077 -0.076,10e-4 5.2e-4,0.01654 -2.62413,-0.04548 0.23255,-2.372982 -0.11266,0.0036 -0.0734,-2.476335 0.0109,-0.05168 -0.031,10e-4 -0.009,-0.502811 -2.43655,0.256831 0.004,-0.08888 2.43138,-0.240295 -0.009,-0.505396 -2.40295,0.249597 0.002,-0.03101 2.4014,-0.225309 -0.0269,-1.461926 0.17363,-0.05374 z m 0.15761,7.529773 h 0.007 l 0.001,-0.06304 z m 25.06359,-7.489982 0.003,1.754415 0.0873,-0.0088 5.2e-4,0.0078 -0.0879,0.0083 10e-4,0.690397 -2.48719,-0.0083 0.12403,-2.383317 -0.12661,0.0031 0.12919,-0.04858 -0.003,0.04548 z m -62.98221,0.861963 -0.0232,0.584461 0.0651,-0.0062 z m 78.16888,0.294556 -2.50476,0.265617 10e-4,-0.241846 z m -2.5337,0.02429 -1.07642,0.102319 0.95911,-0.101286 z m -53.0288,0.02067 -2.40192,0.260966 0.001,-0.174149 -1.61592,-0.06305 z m -10.06296,0.499195 -5.1e-4,0.01189 -4.96301,0.500228 5.2e-4,-0.0217 z m -15.13086,0.07751 -7.32616,0.737423 2.27583,0.03772 v -0.0155 l -0.0816,-0.05736 0.16433,-0.0016 0.0181,-0.02997 0.88573,-0.0057 -0.28112,0.03049 0.5457,-0.0047 0.25994,-0.02945 1.13378,-0.0078 -0.0134,0.42323 0.0217,2.102714 2.39366,-0.23306 -0.11111,-2.14819 0.14005,-0.06873 h -0.0186 z m -10.04124,0.394292 -2.51251,0.241328 -0.0243,0.03152 2.52388,0.03411 v 0.0248 l 0.0196,0.02119 0.0398,-0.001 5.1e-4,-0.04082 -0.0486,-10e-4 z m 85.73378,0.219624 2.5368,0.05013 0.0548,2.480985 -1.70533,0.06046 1.70998,0.06408 -0.0677,2.422591 -1.19476,0.07338 1.21336,0.04082 0.092,2.485637 -1.5503,0.02997 1.53014,0.153996 -0.0971,2.313037 -2.36781,-0.01809 -0.23565,2.588473 -2.42827,-0.08992 0.0506,-2.34301 -0.0863,0.0062 0.0889,-0.123506 -0.003,0.117305 2.46548,-0.179834 0.1354,-2.406054 -0.10181,0.0021 v -0.113689 l -0.0434,-0.01654 0.0434,0.0041 -0.004,-2.423625 0.0331,-0.05994 -0.0537,-2.48822 0.006,-0.0088 -0.0434,0.0016 0.13074,-2.48512 z m -30.36249,0.03979 0.13953,1.570447 0.0155,-0.0021 0.002,0.04134 -0.0139,0.0015 0.0858,0.967383 -2.63601,0.08992 -0.004,-0.788582 -0.0398,0.0041 0.0398,-0.0047 -0.008,-1.755965 0.0729,-0.0739 z m -57.92308,0.03256 -0.10231,0.132809 0.18241,-0.0052 0.002,-0.05116 z m 75.71373,0.02532 v 0.02842 l 2.53886,-0.0217 -0.009,2.520776 -2.51406,0.0036 -0.0155,-2.502689 h -0.002 z m -52.95594,0.01499 h 0.0186 l -0.001,0.02119 h -0.0176 z m 10.00249,0.0801 2.61534,0.05168 -0.0687,2.39727 0.11886,-5.17e-4 -5.2e-4,0.02842 0.032,-0.0031 -0.047,0.586528 -0.0165,0.675411 2.46393,0.01602 -0.0434,-1.282609 0.0367,-0.08992 2.48719,-0.03514 -0.0413,2.054655 0.062,-0.0057 -0.001,0.02842 -0.0615,0.0062 -0.0114,0.558106 -2.38693,-0.05013 -0.009,-0.266651 -2.25103,0.225826 -0.33073,-5.17e-4 -0.003,-0.04289 2.58279,-0.234094 -0.0295,-0.861963 -2.47065,0.24908 -0.0212,0.840776 -2.4753,0.127641 -0.11575,-1.522905 5.2e-4,1.507918 -2.43552,-0.04599 -0.0723,-1.81901 -0.002,1.827795 -2.46238,0.03824 -0.0739,-2.59054 0.15193,0.03204 2.38693,-0.02222 v 0.0078 l 0.0553,-0.02377 2.45153,-0.08268 V 51.2827 l 0.0873,-0.01912 0.93431,-0.0036 -0.93793,-0.04237 -0.11885,-2.410706 z m 31.37586,1.25057 1.50327,0.0078 -5.05912,0.472322 0.004,-0.111104 z m -44.00506,0.688847 -4.73253,0.481108 h -0.18035 l 5.1e-4,0.01447 -1.08572,-0.01654 -3.93671,-0.0057 0.001,0.103353 -2.5399,-0.01757 0.002,0.05839 -2.53318,-0.141593 5.2e-4,0.01912 0.0129,5.17e-4 -0.0171,2.442228 -0.0894,0.0052 -5.1e-4,0.02945 0.0139,-0.02739 -0.001,0.05633 -0.0134,0.0016 -10e-4,0.04548 0.0134,-0.0016 -0.0274,1.432471 0.0362,1.025777 -0.0558,0.0016 -5.2e-4,0.04082 0.0811,-0.0088 -0.0568,2.448429 -0.001,0.05736 h -5.1e-4 l -5.2e-4,0.03204 0.0289,-0.0031 0.0227,-0.01705 -0.001,0.01499 7.37578,-0.731738 -7.29568,0.751892 -0.0548,0.02274 1.27279,-0.02894 1.0387,-0.06046 0.003,0.03669 0.15607,-0.0036 0.0331,2.46755 -0.0186,5.16e-4 0.003,0.04031 4.95732,-0.45992 0.11059,-2.032951 0.009,-0.02842 -0.008,-2.400887 0.0543,-0.01705 1.32912,-0.09457 -1.39682,0.07338 -0.0512,-0.830957 -6.75514,0.680579 6.75153,-0.743624 -0.10387,-1.689819 0.14159,-0.03514 -0.0124,5.17e-4 -0.0599,-2.501657 0.0785,0.128158 2.62826,-0.07648 -0.0486,2.325956 -2.29185,0.109554 2.2779,0.04082 -0.0398,2.460314 -0.0961,0.0052 0.0579,2.559534 -0.0408,5.17e-4 0.0625,1.825728 0.0568,-0.0052 0.0506,0.59583 4.93096,-0.412895 -0.009,-2.021582 0.11575,-0.02842 0.43408,-0.0021 -0.54932,-0.0217 0.0956,-2.396237 -0.0698,-5.16e-4 -5.2e-4,-0.02377 h -0.01 l 0.01,-0.01292 -0.008,-0.513663 -2.57246,0.2651 -0.001,-0.02325 2.57297,-0.249597 -0.032,-1.945617 -0.0186,5.16e-4 0.0181,-0.04703 5.2e-4,0.04651 1.74976,-0.02997 -1.67173,-0.05943 -0.007,-0.360701 -2.54972,0.257865 0.001,-0.243913 2.54404,-0.245979 -0.0367,-1.832447 -0.014,5.17e-4 0.007,-0.07752 h -0.0439 z m 0.0424,0.476973 h 0.006 l -0.001,-0.05116 z m 0.006,0 0.002,0.077 1.92598,-0.08682 z m 0.0129,5.058606 v 0.01292 l 0.0708,0.0021 0.005,-0.113689 z m -15.16031,-2.532662 5.2e-4,-0.03049 -0.016,0.03204 z m 47.92421,-2.509407 -0.69712,0.0217 0.69298,0.03101 0.031,1.044897 0.0475,-0.981852 z m 22.8539,0.02067 -0.004,0.04703 2.3673,0.0124 0.0233,-0.02325 v 0.02222 l -0.0109,10e-4 0.0801,5.17e-4 0.0444,2.43551 -0.13074,0.0052 0.0165,2.408122 -2.46859,-0.02325 0.0889,-2.295983 -0.19431,0.0072 0.18397,-2.549715 -0.0858,-5.17e-4 z m -40.4766,2.473751 0.0119,2.64325 -0.0579,-0.0036 0.008,2.319239 -2.56315,0.04806 0.0346,-2.383317 0.0388,-0.06356 0.68575,-0.03514 -0.68316,-0.04341 -0.0946,-2.436544 0.0393,0.03617 z m -10.20506,0.02791 2.61637,0.117305 -0.0134,2.41639 h -0.002 l -0.0398,2.534729 -2.55695,-0.03307 0.0729,-2.378149 0.0574,-0.0863 -0.0207,-2.5585 z m 70.79154,2.004528 10e-4,0.04444 -0.0331,0.0031 0.004,-0.04496 z m -42.98652,0.40411 0.0956,2.511991 -2.52594,0.04237 -0.10749,-2.436544 0.0646,0.07803 z m 58.09619,1.284676 -0.6599,0.0708 -1.74202,-0.01395 -4.21886,0.409794 4.1708,-0.441316 v -0.0031 z m 5.04001,0.07183 -12.56978,1.240752 -0.0217,0.0041 -0.001,0.07545 0.0331,0.001 0.045,2.379183 12.44421,-1.228349 z m -80.66795,0.02997 0.0207,0.4439 1.73013,-0.156063 -1.72909,0.185519 0.008,0.180867 -0.0992,0.0093 0.009,-0.181384 0.0816,-0.0088 -0.001,-0.02946 -0.0791,0.0072 0.0217,-0.450618 z m 0.03,0.65629 0.0258,0.558106 -0.10232,0.01085 -0.0501,5.17e-4 0.0274,-0.559656 z m 47.93661,0.529167 2.29702,0.07131 0.0744,2.393135 -2.48305,0.0067 0.0233,-2.445329 z m 14.75052,0.08578 -2.16834,0.001 0.003,0.02945 z m 0.26562,0 -0.0274,1.454692 0.10594,-0.01034 -0.0315,-1.444356 z m -93.3173,0.04341 -0.0987,0.04082 0.0966,-0.0057 z m 68.07595,1.009758 -0.01,0.191202 0.01,-0.001 z m -35.23661,1.42937 -0.002,0.06615 0.5178,-0.04909 z m 37.78167,6.277653 0.007,0.176733 -0.002,-0.176733 z m 0.0171,0.943611 -2.50579,0.218592 0.001,0.04082 2.46445,0.07235 0.002,0.09147 0.0796,0.0041 -0.007,-0.170533 -0.0305,-0.0015 z m 0.0408,0.427365 -0.005,1.177705 4.08296,0.05374 -4.08503,0.439766 -0.001,0.24288 -0.0439,0.0036 5.1e-4,0.02635 0.0434,-0.0047 -0.002,0.485759 12.42819,-1.210263 0.13177,-1.29191 z m -0.007,1.671215 0.002,-0.49351 -0.0579,-5.16e-4 0.007,0.499194 z m -2.66237,-0.528133 0.0563,0.808736 0.0584,-0.0062 -0.0264,-0.801501 z m 0.0563,0.808736 -4.07003,0.438217 1.53169,-0.02842 0.009,0.107487 0.0775,5.17e-4 0.97771,-0.102319 1.50844,0.077 -0.016,-0.233578 0.0491,-0.0052 -0.003,-0.077 -0.0522,0.0047 z m 0.0341,0.492477 0.03,2.539896 12.6137,-1.461409 -0.0801,-1.097091 -12.14499,0.01809 -0.37724,0.01757 -5.2e-4,-0.01705 z m 9.03252,-1.18184 1.07591,0.01395 -6.26784,0.530201 z m -11.55847,1.052649 0.21963,0.01137 -0.154,0.01292 z m -2.47891,0.154512 -0.0599,0.02377 0.0594,-0.0062 z" />
      <path
         style="fill:none;stroke:#f60000;stroke-width:0.264583"
         d="m 191.23659,35.055038 -11.98516,1.196279 m 4e-4,1.004928 11.9961,-1.197369 m 0.0113,1.003838 -12.00703,1.19846 m 0.0342,1.00156 11.99072,-1.196833 m -0.028,1.007761 -11.95047,1.192816 m 0.0185,1.003125 12.04516,-1.202267 m -0.0417,1.009132 -12.02848,1.200602 m -0.14081,1.019023 12.12758,-1.210494 m -15.20385,1.517547 -6.84105,0.682827 m 10.04684,0.0022 12.02172,-1.199927 m -15.14098,1.511271 -6.93716,0.69242 m 48.03071,-3.789133 11.85576,-1.183362 m -37.80699,3.773639 -12.00985,1.198742 m -10.12822,1.010932 7.0039,-0.699083 m 52.96336,-4.281477 -11.90436,1.188213 m -35.40562,3.53395 9.48927,-0.947155 m -15.19443,1.516606 -6.94159,0.692862 m 48.049,-3.790958 11.92993,-1.190765 m -32.81636,3.275508 -12.01002,1.198759 m -15.13574,1.510749 6.93412,-0.692118 m 53.02354,-4.287484 -12.02539,1.200294 m -20.20096,2.016323 12.06889,-1.204636 m -17.65787,1.762491 -6.97293,0.695991 m -10.04185,1.00231 1.8159,-0.181251 m 52.97914,-4.283053 -12.12214,1.209951 m -7.40043,0.738661 4.54594,-0.453745 m -7.6265,0.761226 -2.01699,0.201323 m -7.51994,0.750589 0.3347,-0.03341 m -5.96709,0.595594 -4.61084,0.460223 m -7.46398,0.745005 4.40657,-0.439835 m -7.61598,0.760176 -1.73958,0.173633 m 42.77391,-3.264435 12.07889,-1.205634 m -15.24238,1.521393 -4.33322,0.432512 m -5.07828,0.50688 2.00335,-0.199961 m -5.14812,0.513851 -4.34673,0.433861 m -5.09922,0.50897 1.94047,-0.193684 m -5.04,0.503058 -2.04209,0.203828 m -7.47146,0.745751 4.35739,-0.434925 m -7.56122,0.754709 -1.78093,0.17776 m 50.39731,-4.02535 12.00872,-1.19863 m -15.11684,1.508861 -4.48715,0.447878 m -7.53312,0.751905 4.34893,-0.434081 m -12.6032,1.257966 -1.84381,0.184037 m -7.63047,0.761622 4.447,-0.44387 m -7.54275,0.752867 -1.93626,0.193264 m -7.44489,0.743099 4.2754,-0.426742 m -7.5719,0.755776 -6.827,0.681426 m 73.01959,-6.283355 9.55283,-0.953499 m -12.50415,1.24808 -4.48548,0.44771 m -10.13412,1.01152 6.98696,-0.697391 m -10.11867,1.009977 -4.41666,0.440841 m -5.07683,0.506736 1.8898,-0.188628 m -5.01476,0.50054 -1.90067,0.189712 m -7.59586,0.758167 1.91104,-0.190747 m -5.01631,0.500695 -4.55387,0.454536 m -4.90583,0.489667 1.82978,-0.182636 m -5.00563,0.499628 -4.3587,0.435057 m -10.10951,1.009062 6.85806,-0.684525 m 85.90819,-7.569809 -9.82242,0.980408 m -9.90476,0.988626 4.6294,-0.462075 m -7.64572,0.763145 -4.4341,0.442582 m -12.7533,1.272949 7.03522,-0.702208 m -10.08891,1.007006 -1.89608,0.189254 m -5.01288,0.500352 1.87912,-0.187561 m -4.99683,0.49875 -1.94703,0.19434 m -7.47681,0.746284 1.82726,-0.182385 m -10.12707,1.010816 -4.45986,0.445153 m -7.48301,0.746905 4.39983,-0.439162 m -7.60624,0.759203 -6.97302,0.696 m 90.82892,-8.060963 11.96245,-1.194011 m -14.99699,1.496899 -4.55623,0.454773 m -10.10651,1.008763 4.56679,-0.455826 m -7.63729,0.762303 -4.40201,0.439378 m -12.64432,1.262072 9.43376,-0.941614 m -12.57137,1.254789 -1.92944,0.192584 m -4.94192,0.493268 1.86664,-0.186315 m -5.04359,0.503417 -4.53826,0.452979 m -4.92532,0.491613 1.84376,-0.184032 m -10.05818,1.003939 -4.56091,0.455239 m -7.43974,0.742585 4.36896,-0.43608 m -7.61901,0.760479 -6.91258,0.689967 m 98.41804,-8.818458 12.05389,-1.203138 m -15.20773,1.517934 -4.35824,0.43501 m -7.66715,0.765283 4.56838,-0.455984 m -12.66824,1.264458 -1.90918,0.190562 m -7.59128,0.75771 4.4577,-0.444938 m -7.59039,0.757622 -9.39024,0.93727 m -10.24976,1.023062 2.08915,-0.208525 m -5.11486,0.510532 -4.55731,0.454879 m -4.93036,0.492115 1.90291,-0.189936 m -7.53027,0.751622 -2.00297,0.199923 m -5.00446,0.499511 1.90806,-0.19045 m -5.0776,0.506812 -4.40174,0.439352 m -10.09132,1.007248 6.9187,-0.690577 m 103.45601,-9.321315 -12.00054,1.197813 m -7.45859,0.744467 4.34608,-0.433797 m -7.50909,0.749507 -2.00394,0.20002 m -7.53316,0.751909 4.48293,-0.447456 m -7.57847,0.756432 -1.94878,0.194514 m -7.59985,0.758566 4.47608,-0.446772 m -11.80398,1.178194 -7.81772,0.780311 m -7.61781,0.76036 1.99259,-0.198887 m -5.0166,0.500723 -4.45775,0.444943 m -5.06652,0.505705 1.80955,-0.180618 m -4.99837,0.498905 -4.40929,0.440106 m -4.90528,0.489612 1.82259,-0.181919 m -5.06898,0.505952 -4.5258,0.451735 m -10.00737,0.998868 6.99969,-0.698662 m 103.3562,-9.311351 -11.9472,1.192488 m -7.5749,0.756076 4.39092,-0.438272 m -7.50319,0.748918 -1.92738,0.192377 m -7.51289,0.749887 4.38736,-0.437918 m -7.49382,0.747984 -1.98387,0.198017 m -7.56094,0.754682 4.51829,-0.450986 m -7.71705,0.770264 -12.00734,1.198492 m -7.56513,0.7551 1.96561,-0.196194 m -4.99386,0.498454 -4.54681,0.453831 m -4.99622,0.49869 1.82327,-0.181986 m -4.97774,0.496844 -4.45373,0.444542 m -5.11209,0.510254 1.96392,-0.196025 m -4.94532,0.493609 -4.55573,0.454722 m -10.05342,1.003464 7.0264,-0.701328 m 103.37179,-9.312907 -11.91994,1.189769 m -7.59925,0.758504 4.35346,-0.434533 m -7.5187,0.750467 -1.8741,0.18706 m -7.68187,0.766752 4.48104,-0.447267 m -7.53251,0.751845 -1.85682,0.185335 m -7.60774,0.759353 4.45684,-0.444852 m -7.57709,0.756294 -12.05515,1.203264 m -7.53634,0.752227 1.90813,-0.190456 m -4.99432,0.498499 -4.60254,0.459395 m -4.92592,0.491672 1.83698,-0.183355 m -5.0197,0.501032 -4.44577,0.443747 m -5.07898,0.50695 1.93705,-0.193343 m -4.97606,0.496676 -4.49279,0.44844 m -7.53615,0.752208 4.4898,-0.448142 m 103.36366,-9.312095 -11.88865,1.186644 m -7.57141,0.755728 4.2835,-0.42755 m -7.52926,0.75152 -1.85058,0.184712 m -7.66186,0.764756 4.5141,-0.450567 m -7.55241,0.75383 -1.86906,0.186557 m -7.59117,0.7577 4.34896,-0.434084 m -7.55323,0.753913 -11.95253,1.193021 m -7.54189,0.752781 1.85065,-0.184719 m -4.97155,0.496225 -4.49674,0.448834 m -5.09928,0.508977 1.97338,-0.19697 m -5.11634,0.510679 -4.44696,0.443866 m -5.04562,0.503619 1.88858,-0.188506 m -4.97671,0.496742 -4.47241,0.446407 m -7.51151,0.749747 4.42068,-0.441242 m 103.50553,-9.326256 -11.92499,1.190272 m -7.66003,0.764573 4.40317,-0.439495 m -7.61386,0.759964 -1.87507,0.187157 m -7.61634,0.760212 4.51839,-0.450996 m -7.60576,0.759156 -1.95328,0.194964 m -7.51671,0.750267 4.53081,-0.452235 m -7.66053,0.764623 -9.5743,0.955642 m -5.01118,0.500181 2.00972,-0.200596 m -5.13691,0.512732 -1.8053,0.180193 m -7.59695,0.758276 4.44619,-0.443788 m -7.60584,0.759163 -1.82272,0.181931 m -12.67234,1.264869 4.37068,-0.436251 m -7.56466,0.755052 -4.44261,0.443431 m -7.53232,0.751827 4.35224,-0.434412 m 103.55113,-9.330808 -12.02044,1.199799 m -7.59794,0.758376 4.47956,-0.44712 m -7.65119,0.76369 -1.87682,0.187332 m -7.48001,0.746604 4.36818,-0.436003 m -7.55294,0.753884 -1.97992,0.197623 m -7.51294,0.749891 4.4811,-0.447273 m -7.58853,0.757436 -9.54527,0.952745 m -5.03504,0.502563 1.95799,-0.195434 m -5.07915,0.506967 -1.84787,0.184442 m -7.70162,0.768724 4.52896,-0.45205 m -9.95574,0.993715 -2.06917,0.206531 m -10.05291,1.003413 4.41639,-0.440814 m 88.30595,-7.809137 -12.11563,1.209301 m -7.60238,0.758818 4.45617,-0.444785 m -7.47205,0.74581 -1.88651,0.188299 m -7.49234,0.747835 4.34511,-0.4337 m -7.55206,0.753796 -1.97558,0.197189 m -7.5214,0.750735 4.48141,-0.447304 m -7.64233,0.762806 -9.42486,0.940726 m -5.06228,0.505283 1.90628,-0.190272 m -5.03825,0.502884 -1.98163,0.197793 m -7.59383,0.757965 4.49492,-0.448652 m -9.9962,0.997752 -1.9553,0.195165 m 70.68484,-6.050316 11.8949,-1.187268 m -15.07636,1.504821 -4.51796,0.450952 m -4.94002,0.49308 1.8732,-0.186971 m -5.05583,0.504639 -4.44767,0.443936 m -4.97756,0.496827 1.90811,-0.190455 m -5.09925,0.508973 -4.46204,0.445371 m -10.08773,1.00689 6.92436,-0.691143 m -10.04073,1.002198 -4.39251,0.438431 m -5.17128,0.516162 2.03445,-0.203065 m -5.12429,0.511472 -4.46872,0.446038 m 63.18195,-5.301429 11.97186,-1.194951 m -15.13887,1.511061 -4.58742,0.457885 m -4.85748,0.484841 1.86935,-0.186585 m -4.97795,0.496864 -4.51333,0.450491 m -4.9596,0.495033 1.84198,-0.183853 m -5.0894,0.507989 -1.86668,0.18632 m -12.65017,1.262654 9.51361,-0.949584 m -12.59081,1.25673 -4.4704,0.446205 m -4.98014,0.497084 1.9154,-0.191182 m 65.58903,-5.541687 -12.0809,1.205835 m -7.611,0.759678 4.45646,-0.444814 m -7.60585,0.759165 -1.83196,0.182854 m -7.5881,0.757393 4.46499,-0.445665 m -7.62731,0.761307 -1.93782,0.19342 m -17.62967,1.759675 9.52591,-0.950812 m 45.43468,-3.530016 -12.03436,1.201189 m -7.5293,0.751525 4.36762,-0.435946 m -10.0819,1.006306 -1.80014,0.179678 m -10.22275,1.020366 4.48204,-0.447367 m 32.78822,-2.26773 -11.95633,1.1934 m -15.18351,1.515516 6.88749,-0.687463 m -12.54546,1.252203 -4.39377,0.438557 m 25.25616,-1.515931 11.92055,-1.18983 m -20.25046,2.021265 -6.96684,0.695383 m -9.99889,0.998022 6.95217,-0.693918 m 30.23542,-2.012927 -11.87298,1.185081 m -25.31786,2.527058 12.00008,-1.197768 m -0.0455,1.009507 -11.84744,1.182532 m -0.0329,1.008253 11.85685,-1.18347 m -0.0235,1.007314 -11.86625,1.184409 m 0.0199,1.002981 11.87017,-1.184801 m 0.0289,1.002086 -4.44255,0.443425 m -9.99897,2.003 1.45823,-0.145551 m 10.45856,-0.03893 -7.84574,0.783109 m -6.63326,2.672026 11.9542,-1.193188 m 0.0728,0.997698 -12.01519,1.199275"
         id="path4824" />
    </g>
  </g>
  <g
     inkscape:groupmode="layer"
     id="layer3"
     inkscape:label="2 letters"
     style="display:none">
    <g
       id="g5061"
       transform="translate(0,55.033344)">
      <path
         d="m 166.42742,43.722421 2.48094,-0.0058 0.0254,2.516355 -2.57772,-0.0079 8.1e-4,-2.48404 m -0.004,2.50375 2.51218,-0.125087 0.007,2.63217 -2.48414,-0.04845 0.0139,-2.42173 m -2.58514,2.384228 2.55951,0.03441 0.0166,2.434158 -2.53783,0.0033 0.0641,-2.375951 m 2.51209,0.02251 2.45748,-0.01537 0.0759,2.484012 -2.52979,0.09704 -0.0803,-2.649068 m 2.49932,0.03161 2.58132,0.04298 0.0617,2.587091 -2.58466,-0.144774 0.005,-2.579632 m 2.38169,0.06306 2.7089,-0.02237 0.0273,2.642761 -2.66481,-0.01856 0.0102,-2.54438 m -4.88909,2.419045 2.48541,0.06291 -0.017,2.442325 -2.65154,0.152533 0.0563,-2.562973 m 0.002,2.38468 2.43848,0.151033 0.0855,2.442217 -2.67212,0.07998 0.0296,-2.477572 m 0.10035,2.462788 2.55402,2.52e-4 -0.0451,2.473855 -2.49689,0.120884 -0.14244,-2.618919 m 2.61055,2.569655 2.57381,-0.05826 0.0331,2.467663 -2.65721,0.0446 0.13013,-2.514051"
         fill="#ffffff"
         stroke="#000000"
         stroke-width="0.264583"
         class="fg"
         id="path2297-5" />
      <path
         d="m 176.49024,36.160781 2.38411,0.07434 0.0237,2.452798 -2.43713,0.02361 0.085,-2.570392 m -0.033,2.520167 2.47829,-0.05812 -0.0358,2.444049 -2.42744,0.116129 -0.11607,-2.56122 m 0.008,2.542662 2.46449,0.134964 -0.041,2.459332 -2.46801,-0.122003 -0.004,-2.447433 m 0.12663,2.514718 2.47419,-0.01533 0.0336,2.556828 -2.53143,-0.04046 -0.0196,-2.435486 m -0.004,2.366112 2.60303,0.06907 -0.10262,2.569084 -2.51379,-0.02537 -0.0238,-2.602226 m 2.55757,0.138605 2.5013,-0.0387 -0.0459,2.486796 -2.28491,0.06983 -0.18993,-2.608142 m 2.59128,-0.0051 2.4496,0.03408 0.10549,2.455358 -2.62298,0.03908 0.0444,-2.632898 m -5.06093,2.662128 2.48267,0.01514 0.11507,2.497839 -2.61605,-0.03908 -0.12458,-2.403805 m 7.55375,-0.04174 2.57053,-0.04838 0.13153,2.501794 -2.60463,0.01304 0.008,-2.531672 m -7.51042,2.668464 2.62874,-0.07677 -0.0488,2.326278 -2.59843,0.123883 -0.0599,-2.501876 m 7.61838,0.06915 2.62918,-0.118661 -0.18791,2.628043 -2.37895,-0.08472 -0.0509,-2.553491 m -7.48516,2.543038 2.49955,0.04474 -0.0397,2.460504 -2.51507,0.131622 -0.15878,-2.583725 m 7.65335,0.04693 2.52929,-0.04336 0.2407,2.561654 -2.70998,-0.01495 -0.0418,-2.550244 m -7.44498,2.605186 2.35094,-0.167221 0.058,2.578561 -2.45535,0.01999 -0.008,-2.414581 m 7.53109,-0.09543 2.43375,0.05448 0.0429,2.465358 -2.49209,-0.09919 0.10046,-2.532419 m -7.60238,2.59065 2.40837,-0.0033 0.0839,2.453863 -2.64375,0.09794 0.13627,-2.502718 m 7.63229,-0.08049 2.48144,-0.011 0.007,2.555238 -2.59427,-0.0911 -0.01,-2.424467"
         fill="#ffffff"
         stroke="#000000"
         stroke-width="0.264583"
         class="fg"
         id="path2299-0" />
      <path
         d="m 191.60633,46.221412 2.55401,-0.0038 2.5e-4,2.588557 -2.5133,-0.111013 -0.0191,-2.505012 m 2.59807,0.01161 2.37983,0.0091 0.12679,2.465721 -2.58821,0.07033 0.0327,-2.61772 m -5.12936,2.700116 2.60035,-0.153993 -0.14393,2.528097 -2.47598,0.04036 0.12934,-2.444768 m 7.43984,0.0069 2.61566,0.05164 -0.071,2.471256 -2.44626,-0.111379 -0.11888,-2.410678 m -4.85845,2.399245 2.38701,-0.02213 -0.003,2.542557 -2.46203,0.03822 -0.074,-2.59065 m 2.59408,-0.0059 2.45171,-0.08297 2.5e-4,2.678403 -2.43558,-0.04603 -0.1002,-2.513123 m 2.62293,0.05894 2.56344,-0.0093 -0.0602,2.397179 -2.47521,0.127406 -0.1878,-2.480104 m -7.57442,2.462673 2.61632,0.117467 -0.0131,2.416309 -2.46813,0.06852 -0.0209,-2.589855 m 7.5105,0.04084 2.58047,-0.08116 0.0119,2.643237 -2.53706,-0.161867 -0.0944,-2.436352 m -7.44159,2.539364 2.45787,-0.04189 -0.0401,2.553857 -2.55706,-0.03318 0.0728,-2.377945 m 7.60007,-0.125454 2.48083,-0.126701 0.009,2.525661 -2.56296,0.04804 0.0342,-2.38319 m -4.94185,2.422011 2.39057,0.07758 0.11442,2.360667 -2.49069,0.06184 -0.12164,-2.509506 m 2.42856,-0.0455 2.64249,0.07768 0.10567,2.591184 -2.68045,-0.06064 -0.0239,-2.508801 m 5.13062,-0.0043 2.65228,-0.07733 -0.14102,2.656393 -2.48521,0.0062 0.1888,-2.604497"
         fill="#ffffff"
         stroke="#000000"
         stroke-width="0.264583"
         class="fg"
         id="path2301-3" />
      <path
         d="m 201.68716,46.28228 2.4937,-0.132412 0.0608,2.689478 -2.59603,-0.196584 0.13261,-2.47236 m 4.9309,-0.02442 2.58556,0.171985 0.005,2.423563 -2.46805,-0.04427 -0.0228,-2.500067 m -5.2251,2.372647 2.65992,0.207618 0.0174,2.368639 -2.53764,0.03808 -0.0919,-2.402782 m 2.56496,-0.08322 2.56856,-0.0038 0.008,2.623979 -2.54094,-0.06451 0.0129,-2.556027 m 4.9404,0.04227 2.59253,-0.05402 0.10851,2.57451 -2.52794,-0.08369 -0.12802,-2.57867 m -7.54212,2.586929 2.48733,-0.03546 -0.0534,2.642033 -2.38666,-0.05028 -0.084,-2.466648 m 7.71997,-0.06375 2.35633,-0.0682 -0.007,2.538602 -2.42322,0.07139 0.003,-2.554228 m -7.61278,2.586143 2.55033,0.06568 -0.15312,2.35248 -2.46176,0.141627 -0.047,-2.585414 m 7.52823,-0.04612 2.63,0.04536 0.11911,2.492951 -2.55161,0.06842 0.0256,-2.573682 m -7.53023,2.395871 2.41548,0.209088 0.0748,2.483193 -2.59041,-0.0619 0.007,-2.510343 m 7.5623,0.02656 2.58742,-0.01947 0.004,2.571502 -2.58059,-0.114526 0.0492,-2.425181 m -7.73328,2.465778 2.56136,0.103192 0.003,2.518644 -2.48011,-0.08064 0.0551,-2.492909 m 7.58514,-0.05516 2.44182,0.06287 -0.0823,2.439204 -2.47465,0.118633 0.0616,-2.485155"
         fill="#ffffff"
         stroke="#000000"
         stroke-width="0.264583"
         class="fg"
         id="path2303-7" />
      <path
         d="m 214.25467,41.053691 2.71417,0.0851 -0.0999,2.623027 -2.48323,0.02508 -0.10162,-2.617015 m 0.0491,2.502827 2.51004,-0.03189 -0.1995,2.516626 -2.18446,0.02061 -0.15211,-2.580731 m 0.0827,2.586519 2.38905,-0.0029 0.096,2.505003 -2.61171,0.100931 -0.0466,-2.549369 m 7.68151,-0.08362 2.53378,0.06494 -0.0221,2.5754 -2.54272,-0.07288 0.0802,-2.517725 m -7.64087,2.522395 2.56389,0.04412 -0.0701,2.468428 -2.4434,0.07511 -0.073,-2.476554 m 5.13103,-0.13483 2.34577,-0.04941 0.22911,2.578632 -2.63635,0.08993 -0.0112,-2.545061 m -4.95802,2.407279 2.40497,0.107976 0.0719,2.436719 -2.62389,-0.04531 0.24079,-2.459466 m 2.31111,0.0079 2.57494,0.130195 -0.058,2.318419 -2.55259,0.03341 0.11458,-2.35881 m -2.52718,2.408298 2.46252,0.0118 0.0295,2.363118 -2.54122,0.203886 0.0245,-2.603849 m 2.6103,0.04992 2.37728,-0.02151 0.13369,2.502832 -2.52688,0.0053 0.0343,-2.626601 m -2.64701,2.717808 2.47289,-0.196203 0.0955,2.51198 -2.52581,0.04241 -0.10763,-2.436609 m 5.14123,0.0148 2.43527,0.01371 0.1565,2.392771 -2.60074,0.07704 0.0342,-2.516555 m -5.1312,2.478686 2.6641,-8.1e-5 -0.13633,2.595743 -2.41915,-0.06068 -0.0453,-2.419603 m 7.51733,0.02075 2.54927,-0.08893 -0.0356,2.482517 -2.4266,0.137887 -0.0637,-2.613803"
         fill="#ffffff"
         stroke="#000000"
         stroke-width="0.264583"
         class="fg"
         id="path2305-3" />
      <path
         d="m 231.88347,46.084054 2.68907,0.188074 -0.10219,2.461979 -2.44848,-0.05636 -0.0271,-2.524123 m 7.5197,0.130638 2.48595,-0.06332 0.004,2.452031 -2.48748,-0.0081 0.12683,-2.428747 m -7.65614,2.394876 2.54475,0.07942 -0.0857,2.623926 -2.42984,-0.08917 -0.11076,-2.466882 m 7.64317,-0.03941 2.5407,-0.02161 -0.009,2.521005 -2.51434,0.0033 -0.0151,-2.530663 m -7.54146,2.59413 2.39868,-0.108028 0.13718,2.682867 -2.5402,-0.246063 -0.0708,-2.368435 m 7.62322,0.04065 2.54541,0.01323 0.0444,2.435715 -2.68797,0.101407 0.18765,-2.597195 m -7.72204,2.542034 2.55073,0.05562 -0.0928,2.399359 -2.37188,0.01956 -0.0824,-2.508059 m 7.59068,-0.04847 2.49659,-0.04079 0.0173,2.4899 -2.46879,-0.02332 0.0941,-2.424957 m -7.50713,2.487753 2.37464,0.04374 -0.0689,2.516802 -2.55217,-0.06987 0.0709,-2.366274 m 7.53539,-0.11066 2.61699,-0.02132 0.0227,2.566237 -2.67083,0.02042 0.11783,-2.514109 m -5.15302,2.459147 2.59268,0.0099 -0.13466,2.663937 -2.53115,-0.147511 0.21765,-2.378144 m 2.47815,-0.08939 2.53396,-0.01014 -0.16197,2.556523 -2.45775,0.07175 -0.003,-2.555466 m 2.51427,0.109985 2.50411,-0.09097 -0.0141,2.433229 -2.56595,-0.01861 0.0737,-2.501029 m 0.15113,2.657407 2.42609,-0.182419 -0.008,2.543781 -2.43586,0.04531 0.029,-2.521786 m -0.10415,2.443359 2.63033,0.02642 -0.0885,2.701896 -2.66775,-0.106929 0.0231,-2.644274 m 0.0487,2.7481 2.60111,-0.133341 0.0895,2.539383 -2.64054,-0.11643 -0.0295,-2.359943 m -2.49869,2.363832 2.48453,0.07254 0.0353,2.440446 -2.49166,0.116796 -0.082,-2.468591 m -5.11286,2.416147 2.58096,-0.04726 0.21505,2.58054 -2.72688,0.02642 0.0835,-2.63039 m 2.53811,0.142637 2.38085,0.04894 0.0961,2.346873 -2.60128,0.160253 0.197,-2.576428"
         fill="#ffffff"
         stroke="#000000"
         stroke-width="0.264583"
         class="fg"
         id="path2309-5" />
      <path
         d="m 246.95625,46.200512 2.64372,-0.05677 0.0649,2.577347 -2.56803,0.09487 0.1542,-2.555209 m 2.50223,-0.0908 2.36474,0.178116 -0.0287,2.437494 -2.49812,0.01366 -0.0484,-2.642999 m -4.83925,2.644313 2.39079,-0.09405 0.11217,2.645898 -2.5254,-0.02489 -0.0781,-2.48188 m 7.51999,-0.232482 2.53694,0.05027 0.0549,2.480975 -2.61413,0.09245 0.13099,-2.485516 m -7.62065,2.441722 2.41024,0.08758 0.0444,2.587899 -2.43684,-0.208122 -0.0713,-2.34029 m 7.62922,-0.146473 2.5328,0.09487 -0.0677,2.422753 -2.45735,0.150872 -0.0566,-2.597967 m -7.55882,2.657702 2.59017,-0.230959 0.067,2.704609 -2.62614,-0.10146 -0.006,-2.462498 m 7.59366,-0.08917 2.47243,0.08334 0.092,2.485669 -2.59943,0.0506 -0.004,-2.550168 m -7.52413,2.514584 2.4847,-0.137777 -0.0237,2.644094 -2.56231,0.06392 0.14728,-2.600199 m 7.43867,-0.06477 2.6228,0.263307 -0.0971,2.312959 -2.51742,-0.01871 0.14107,-2.5001 m -5.06299,2.472655 2.2969,0.07114 0.0747,2.392981 -2.48341,0.0067 0.0234,-2.444958 m 2.46043,0.164256 2.70248,-0.196837 -0.2386,2.623531 -2.42826,-0.08999 0.0532,-2.460109"
         fill="#ffffff"
         stroke="#000000"
         stroke-width="0.264583"
         class="fg"
         id="path2311-9" />
      <path
         d="m 257.19852,46.255173 2.48961,-0.160157 0.16697,2.577866 -2.58766,0.01514 -9.5e-4,-2.584158 m 7.50247,0.117957 2.50426,-0.02865 0.0279,2.509505 -2.47599,0.09038 -0.13683,-2.625197 m -7.43959,2.490328 2.46217,-0.01223 0.0529,2.447776 -2.60071,0.14207 0.0783,-2.528526 m 7.56246,0.06428 2.55599,-0.04317 -0.0463,2.571959 -2.63656,-0.0029 0.04,-2.594654 m -7.56384,2.444815 2.64956,0.194757 -0.0987,2.331342 -2.55617,0.04231 0.009,-2.463502 m 7.4927,0.02575 2.80767,-0.09904 -0.26536,2.570792 -2.36169,0.0679 -0.0863,-2.572354 m -7.47689,2.567984 2.30435,-0.0033 0.17489,2.33911 -2.5105,0.175874 -0.0602,-2.525827 m 7.48962,0.056 2.75057,-0.0083 -0.11136,2.504807 -2.54444,-0.05537 0.0752,-2.467858 m -7.56329,2.452127 2.31162,0.04865 0.20719,2.530101 -2.76394,-0.04036 0.19926,-2.533438 m 7.55891,-0.04834 2.49451,0.170771 -0.0267,2.384685 -2.51325,-0.03003 -0.0222,-2.5118 m -4.96487,2.607481 2.46942,-0.03489 -0.0476,2.538669 -2.55298,-0.07446 0.033,-2.539582 m 2.5849,0.07569 2.45715,0.02708 0.062,2.412506 -2.43402,0.113473 -0.0581,-2.668302 m 2.5913,0.06608 2.49026,0.07298 0.0449,2.389501 -2.68339,0.173195 -0.0358,-2.752536"
         fill="#ffffff"
         stroke="#000000"
         stroke-width="0.264583"
         class="fg"
         id="path2313-1" />
    </g>
  </g>
  <g
     inkscape:groupmode="layer"
     id="layer4"
     inkscape:label="3 circle">
    <g
       id="g5946">
      <circle
         style="fill:none;fill-opacity:1;stroke:#f60000;stroke-width:0.3;stroke-dasharray:none;stroke-opacity:1;stop-color:#000000"
         id="path5852"
         cx="139.53758"
         cy="85.456566"
         r="35.038227" />
      <path
         style="stroke:#f60000;fill:none;stroke-width:0.3"
         d="M 118.887605,57.243287 l -7.629668,7.629668 M 109.240667,68.304439 l 13.158174,-13.158174 M 125.453839,53.505480 l -17.792991,17.792991 M 106.909040,73.464492 l 20.733744,-20.733744 M 129.798395,51.989350 l -23.620935,23.620935 M 105.727939,77.474020 l 25.829062,-25.829062 M 133.341660,51.274512 l -27.985227,27.985227 M 105.094786,80.935600 l 29.922488,-29.922488 M 136.603508,50.841091 l -31.680705,31.680705 M 104.768795,84.090017 l 33.428151,-33.428151 M 139.554541,50.718485 l -34.755036,34.755036 M 104.828732,86.858507 l 36.110756,-36.110756 M 142.275793,50.825660 l -37.370152,37.370152 M 105.032892,89.482775 l 38.530022,-38.530022 M 144.808601,51.121279 l -39.606905,39.606905 M 105.409048,91.935046 l 40.606731,-40.606731 M 147.216239,51.542068 l -41.563894,41.563894 M 105.929327,94.243193 l 42.401493,-42.401493 M 149.431696,52.155038 l -43.193667,43.193667 M 106.576731,96.424216 l 43.941872,-43.941872 M 151.552601,52.862559 l -44.608669,44.608669 M 107.338315,98.491058 l 45.233988,-45.233988 M 153.565939,53.677648 l -45.807212,45.807212 M 108.204157,100.453644 l 46.330411,-46.330411 M 155.479137,54.592877 l -46.805418,46.805418 M 109.166640,102.319587 l 47.233855,-47.233855 M 157.297850,55.602590 l -47.614328,47.614328 M 110.222353,104.092301 l 47.950920,-47.950920 M 159.027202,56.701665 l -48.244348,48.244348 M 111.364597,105.778484 l 48.495418,-48.495418 M 160.671023,57.886271 l -48.703805,48.703805 M 112.591475,107.380032 l 48.869420,-48.869420 M 162.230440,59.155281 l -48.993981,48.993981 M 113.901657,108.898277 l 49.078146,-49.078146 M 163.708386,60.505762 l -49.121440,49.121440 M 115.292757,110.335605 l 49.123323,-49.123323 M 165.103747,61.938827 l -49.084102,49.084102 M 116.766610,111.690178 l 49.004716,-49.004716 M 166.418558,63.452444 l -48.884820,48.884820 M 118.321393,112.963822 l 48.722761,-48.722761 M 167.649185,65.050244 l -48.518236,48.518236 M 119.961275,114.152366 l 48.272083,-48.272083 M 168.796321,66.731533 l -47.983639,47.983639 M 121.685285,115.256783 l 47.652384,-47.652384 M 169.855792,68.500489 l -47.274203,47.274203 M 123.500311,116.270184 l 46.850964,-46.850964 M 170.823452,70.361257 l -46.381258,46.381258 M 125.408080,117.190841 l 45.863477,-45.863477 M 171.694716,72.318419 l -45.297065,45.297065 M 127.415118,118.012231 l 44.676808,-44.676808 M 172.462045,74.379517 l -44.002521,44.002521 M 129.532167,118.723609 l 43.295990,-43.295990 M 173.144927,76.525062 l -42.510418,42.510418 M 131.768203,119.315999 l 41.627651,-41.627651 M 173.642563,78.855853 l -40.707440,40.707440 M 134.095415,119.817214 l 39.758077,-39.758077 M 174.026059,81.300784 l -38.643750,38.643750 M 136.665521,120.075534 l 37.491759,-37.491759 M 174.262165,83.893105 l -36.268823,36.268823 M 139.376005,120.193478 l 34.898446,-34.898446 M 174.253655,86.730041 l -33.442956,33.442956 M 142.314405,120.083504 l 31.849764,-31.849764 M 174.092475,89.719648 l -30.200619,30.200619 M 145.557503,119.668833 l 28.255086,-28.255086 M 173.519077,93.121473 l -26.188387,26.188387 M 149.223172,118.831591 l 23.671640,-23.671640 M 172.479181,96.989796 l -21.142694,21.142694 M 153.562684,117.320505 l 17.764598,-17.764598 M 170.151652,102.145752 l -13.950740,13.950740 M 159.710945,114.000671 l 8.428335,-8.428335"
         id="path5944" />
    </g>
  </g>
  <plotdata
     application="axidraw"
     model="2"
     layer="-2"
     node="0"
     last_path="0"
     node_after_path="0"
     last_known_x="0"
     last_known_y="0"
     paused_x="0"
     paused_y="0"
     randseed="0"
     row="0"
     id="1704569886" />
</svg>
