<?xml version="1.0" encoding="UTF-8" standalone="no"?>
<!-- Created with Inkscape (http://www.inkscape.org/) -->

<svg
   width="297mm"
   height="420mm"
   viewBox="0 0 297 420"
   version="1.1"
   id="svg91965"
   sodipodi:docname="three-d-presents.svg"
   inkscape:version="1.2.1 (9c6d41e, 2022-07-14)"
   xmlns:inkscape="http://www.inkscape.org/namespaces/inkscape"
   xmlns:sodipodi="http://sodipodi.sourceforge.net/DTD/sodipodi-0.dtd"
   xmlns="http://www.w3.org/2000/svg"
   xmlns:svg="http://www.w3.org/2000/svg">
  <sodipodi:namedview
     id="namedview91967"
     pagecolor="#ffffff"
     bordercolor="#666666"
     borderopacity="1.0"
     inkscape:showpageshadow="2"
     inkscape:pageopacity="0.0"
     inkscape:pagecheckerboard="0"
     inkscape:deskcolor="#d1d1d1"
     inkscape:document-units="mm"
     showgrid="false"
     inkscape:zoom="0.4204826"
     inkscape:cx="475.64393"
     inkscape:cy="694.44014"
     inkscape:window-width="1228"
     inkscape:window-height="916"
     inkscape:window-x="0"
     inkscape:window-y="38"
     inkscape:window-maximized="0"
     inkscape:current-layer="layer1" />
  <defs
     id="defs91962" />
  <g
     inkscape:label="Layer 1"
     inkscape:groupmode="layer"
     id="layer1">
    <rect
       style="font-variation-settings:normal;opacity:1;vector-effect:none;fill:#f84500;fill-opacity:1;stroke:#0000ff;stroke-width:0.264999;stroke-linecap:butt;stroke-linejoin:miter;stroke-miterlimit:4;stroke-dasharray:none;stroke-dashoffset:0;stroke-opacity:1;-inkscape-stroke:none;stop-color:#000000;stop-opacity:1"
       id="rect96716"
       width="215.89999"
       height="279.39999"
       x="80.967506"
       y="0.1324995" />
    <path
       id="path96499-8"
       style="font-variation-settings:normal;vector-effect:none;fill:#01dd00;fill-opacity:1;stroke:#0000ff;stroke-width:0.264999;stroke-linecap:butt;stroke-linejoin:miter;stroke-miterlimit:4;stroke-dasharray:none;stroke-dashoffset:0;stroke-opacity:1;-inkscape-stroke:none;stop-color:#000000"
       d="m 58.058504,200.51974 -0.26501,-71.86557 m -27.119742,25.98551 0.265,71.86557 m 26.854762,-97.85108 -27.119762,25.98551 m 27.384762,45.88006 -27.119762,25.98551" />
    <path
       id="path96601"
       style="fill:#01dd00;fill-opacity:1;stroke:#000000;stroke-width:0.264998;stroke-linecap:round;stroke-linejoin:round;stroke-opacity:1;stop-color:#000000"
       d="m 257.82561,263.89552 -12.02149,11.51868 v 62.43805 l 12.01115,-11.50886 z m 14.70297,65.75499 -12.02149,11.51868 v 62.43805 l 12.01115,-11.50886 z"
       sodipodi:nodetypes="ccccc" />
    <rect
       style="font-variation-settings:normal;opacity:1;fill:#f88000;fill-opacity:1;stroke:#0000ff;stroke-width:0.264999;stroke-linecap:butt;stroke-linejoin:miter;stroke-miterlimit:4;stroke-dasharray:none;stroke-dashoffset:0;stroke-opacity:1;stop-color:#000000;stop-opacity:1"
       id="rect96837"
       width="139.735"
       height="209.735"
       x="157.13251"
       y="0.1324995" />
  </g>
  <g
     inkscape:groupmode="layer"
     id="layer5"
     inkscape:label="2 box">
    <g
       id="g95814"
       transform="translate(77.706353,-72.349238)">
      <g
         id="g93911"
         style="stroke:#000000;stroke-opacity:1">
        <path
           id="path92240"
           style="display:inline;fill:none;stroke:#000000;stroke-width:0.264999;stroke-linecap:round;stroke-linejoin:round;stroke-opacity:1;stop-color:#000000"
           d="m 169.57931,173.04008 -55.68755,53.3585 v 25.92555 l 82.74482,-79.28405 z" />
        <path
           style="fill:none;stroke:#000000;stroke-width:0.264999;stroke-opacity:1"
           d="m 169.85159,173.34008 -55.65983,53.37586 m 0,1.3855 57.10462,-54.76136 m 1.44478,0 -58.5494,56.14686 m 0,1.3855 59.99419,-57.53236 m 1.44479,0 -61.43898,58.91786 m 0,1.3855 62.88377,-60.30336 m 1.44478,0 -64.32855,61.68887 m 0,1.3855 65.77334,-63.07437 m 1.44479,0 -67.21813,64.45987 m 0,1.3855 68.66292,-65.84537 m 1.44478,0 -70.1077,67.23087 m 0,1.3855 71.55249,-68.61637 m 1.44479,0 -72.99728,70.00187 m 0,1.38551 74.44207,-71.38738 m 1.44479,0 -75.88686,72.77288 m 0,1.3855 77.33164,-74.15838 m 1.44479,0 -78.77643,75.54388 m 0,1.3855 80.22122,-76.92938 m 1.44479,0 -81.66601,78.31488"
           id="path93909" />
      </g>
      <g
         id="g94666"
         style="stroke:#000000;stroke-opacity:1">
        <path
           id="path92238"
           style="display:inline;fill:none;stroke:#000000;stroke-width:0.264999;stroke-linecap:round;stroke-linejoin:round;stroke-opacity:1;stop-color:#000000"
           d="m 169.57931,101.30699 -82.744817,79.28405 h 27.057267 l 55.68755,-53.3585 z" />
        <path
           style="fill:none;stroke:#000000;stroke-width:0.264999;stroke-opacity:1"
           d="m 169.27931,102.53333 -81.084992,77.75771 m 1.444788,0 79.640204,-76.37221 m 0,1.3855 -78.195417,74.98671 m 1.444788,0 76.750629,-73.60121 m 0,1.3855 -75.305842,72.21571 m 1.444788,0 73.861054,-70.8302 m 0,1.3855 -72.416266,69.4447 m 1.444787,0 70.971479,-68.0592 m 0,1.3855 -69.526691,66.6737 m 1.444791,0 68.0819,-65.2882 m 0,1.3855 -66.63712,63.9027 m 1.44479,0 65.19233,-62.51719 m 0,1.3855 -63.74754,61.13169 m 1.44479,0 62.30275,-59.74619 m 0,1.3855 -60.85797,58.36069 m 1.44479,0 59.41318,-56.97519 m 0,1.3855 -57.96839,55.58969 m 1.44479,0 56.5236,-54.20419 m 0.0489,1.33859 -55.22108,52.95512"
           id="path94664" />
      </g>
      <g
         id="g95424"
         style="stroke:#000000;stroke-opacity:1">
        <path
           style="fill:none;fill-opacity:1;stroke:#000000;stroke-width:0.264999;stroke-linecap:round;stroke-linejoin:round;stroke-opacity:1;stop-color:#000000"
           d="m 169.57931,101.30699 v 71.73309 h 27.05727 l 0.13248,-71.86557 z"
           id="path93528" />
        <path
           style="fill:none;stroke:#000000;stroke-width:0.264999;stroke-opacity:1"
           d="m 169.75562,101.60613 v 71.13395 m 1,0 v -71.13882 m 1,-0.005 v 71.14369 m 1,0 v -71.14856 m 1,-0.005 v 71.15343 m 1,0 v -71.15831 m 1,-0.005 v 71.16318 m 1,0 v -71.16805 m 1,-0.005 v 71.17292 m 1,0 v -71.1778 m 1,-0.005 v 71.18267 m 1,0 v -71.18754 m 1,-0.005 v 71.19242 m 1,0 v -71.19729 m 1,-0.005 v 71.20216 m 1,0 v -71.20703 m 1,-0.005 v 71.2119 m 1,0 V 101.5233 m 1,-0.005 v 71.22165 m 1,0 v -71.22652 m 1,-0.005 v 71.23139 m 1,0 v -71.23627 m 1,-0.005 v 71.24114 m 1,0 v -71.24601 m 1,-0.005 v 71.25088 m 1,0 V 101.4838 m 1,-0.005 v 71.26063"
           id="path95422" />
      </g>
      <g
         id="g95429"
         style="stroke:#000000;stroke-opacity:1">
        <path
           style="fill:none;fill-opacity:1;stroke:#000000;stroke-width:0.264999;stroke-linecap:round;stroke-linejoin:round;stroke-opacity:1;stop-color:#000000"
           d="M 113.89176,252.32413 V 180.59104 H 86.834492 l 2.153097,71.86557 z"
           id="path93526" />
        <path
           style="fill:none;stroke:#000000;stroke-width:0.264999;stroke-opacity:1"
           d="m 87.967954,180.89104 v 27.51462 m 1,33.37776 v -60.89238 m 1,0 v 71.26035 m 1,-0.005 v -71.25503 m 1,0 v 71.24971 m 1,-0.005 v -71.24439 m 1,0 v 71.23907 m 0.999999,-0.005 V 180.892 m 1,0 v 71.22843 m 1,-0.005 v -71.22311 m 1,0 v 71.21779 m 1,-0.005 v -71.21247 m 1,0 v 71.20715 m 0.999997,-0.005 v -71.20183 m 1,0 v 71.19652 m 1,-0.005 v -71.1912 m 1,0 v 71.18588 m 1,-0.005 V 180.8936 m 1,0 v 71.17524 m 1,-0.005 v -71.16992 m 1,0 v 71.1646 m 1,-0.005 v -71.15928 m 1,0 V 252.045 m 1,-0.005 v -71.14864 m 1,0 v 71.14332 m 1,-0.005 v -71.138"
           id="path95427" />
      </g>
    </g>
  </g>
  <plotdata
     application="axidraw"
     model="2"
     layer="-2"
     node="0"
     last_path="0"
     node_after_path="0"
     last_known_x="0"
     last_known_y="0"
     paused_x="0"
     paused_y="0"
     randseed="0"
     row="0"
     id="1703203035" />
</svg>
